WixMadeforText-Bold.ufo
<glyph name="exclam" format="2">
	<unicode hex="0021"/>
	<advance width="271"/>
	<outline>
		<contour>
			<point x="171" y="225" type="line"/>
			<point x="179" y="285"/>
			<point x="211" y="629"/>
			<point x="211" y="650" type="curve" smooth="yes"/>
			<point x="211" y="700"/>
			<point x="177" y="731"/>
			<point x="136" y="731" type="curve"/>
			<point x="95" y="731"/>
			<point x="60" y="700"/>
			<point x="60" y="650" type="curve" smooth="yes"/>
			<point x="60" y="629"/>
			<point x="92" y="285"/>
			<point x="100" y="225" type="curve"/>
		</contour>
		<contour>
			<point x="136" y="-13" type="curve" smooth="yes"/>
			<point x="184" y="-13"/>
			<point x="220" y="23"/>
			<point x="220" y="71" type="curve" smooth="yes"/>
			<point x="220" y="119"/>
			<point x="184" y="154"/>
			<point x="136" y="154" type="curve" smooth="yes"/>
			<point x="87" y="154"/>
			<point x="51" y="119"/>
			<point x="51" y="71" type="curve" smooth="yes"/>
			<point x="51" y="23"/>
			<point x="87" y="-13"/>
		</contour>
	</outline>
</glyph>
<glyph name="dollar" format="2">
	<unicode hex="0024"/>
	<advance width="632"/>
	<outline>
		<contour>
			<point x="45" y="119" type="line"/>
			<point x="110" y="38"/>
			<point x="207" y="-6"/>
			<point x="319" y="-6" type="curve" smooth="yes"/>
			<point x="480" y="-6"/>
			<point x="587" y="83"/>
			<point x="587" y="209" type="curve" smooth="yes"/>
			<point x="587" y="329"/>
			<point x="511" y="390"/>
			<point x="329" y="420" type="curve" smooth="yes"/>
			<point x="230" y="436"/>
			<point x="189" y="464"/>
			<point x="189" y="520" type="curve" smooth="yes"/>
			<point x="189" y="575"/>
			<point x="238" y="613"/>
			<point x="311" y="613" type="curve" smooth="yes"/>
			<point x="380" y="613"/>
			<point x="436" y="581"/>
			<point x="482" y="515" type="curve"/>
			<point x="565" y="596" type="line"/>
			<point x="501" y="676"/>
			<point x="414" y="721"/>
			<point x="317" y="721" type="curve" smooth="yes"/>
			<point x="170" y="721"/>
			<point x="64" y="635"/>
			<point x="64" y="516" type="curve" smooth="yes"/>
			<point x="64" y="402"/>
			<point x="139" y="337"/>
			<point x="301" y="308" type="curve" smooth="yes"/>
			<point x="420" y="286"/>
			<point x="460" y="260"/>
			<point x="460" y="203" type="curve" smooth="yes"/>
			<point x="460" y="140"/>
			<point x="409" y="101"/>
			<point x="320" y="101" type="curve" smooth="yes"/>
			<point x="244" y="101"/>
			<point x="176" y="136"/>
			<point x="126" y="200" type="curve"/>
		</contour>
		<contour>
			<point x="358" y="372" type="line"/>
			<point x="358" y="831" type="line"/>
			<point x="291" y="831" type="line"/>
			<point x="291" y="372" type="line"/>
		</contour>
		<contour>
			<point x="352" y="-116" type="line"/>
			<point x="352" y="362" type="line"/>
			<point x="286" y="362" type="line"/>
			<point x="286" y="-116" type="line"/>
		</contour>
	</outline>
</glyph>
<glyph name="ampersand" format="2">
	<unicode hex="0026"/>
	<advance width="672"/>
	<outline>
		<contour>
			<point x="650" y="294" type="line"/>
			<point x="554" y="360" type="line"/>
			<point x="450" y="196" type="line" smooth="yes"/>
			<point x="400" y="119"/>
			<point x="348" y="90"/>
			<point x="291" y="90" type="curve" smooth="yes"/>
			<point x="220" y="90"/>
			<point x="175" y="133"/>
			<point x="175" y="198" type="curve" smooth="yes"/>
			<point x="175" y="263"/>
			<point x="211" y="311"/>
			<point x="296" y="340" type="curve"/>
			<point x="276" y="422" type="line"/>
			<point x="113" y="369"/>
			<point x="40" y="298"/>
			<point x="40" y="191" type="curve" smooth="yes"/>
			<point x="40" y="68"/>
			<point x="137" y="-16"/>
			<point x="283" y="-16" type="curve" smooth="yes"/>
			<point x="398" y="-16"/>
			<point x="480" y="33"/>
			<point x="557" y="151" type="curve" smooth="yes"/>
		</contour>
		<contour>
			<point x="668" y="75" type="line"/>
			<point x="344" y="385" type="line"/>
			<point x="322" y="404" type="line" smooth="yes"/>
			<point x="244" y="473"/>
			<point x="225" y="505"/>
			<point x="225" y="550" type="curve" smooth="yes"/>
			<point x="225" y="597"/>
			<point x="258" y="632"/>
			<point x="304" y="632" type="curve" smooth="yes"/>
			<point x="349" y="632"/>
			<point x="383" y="596"/>
			<point x="383" y="546" type="curve" smooth="yes"/>
			<point x="383" y="494"/>
			<point x="345" y="451"/>
			<point x="279" y="428" type="curve"/>
			<point x="297" y="346" type="line"/>
			<point x="421" y="380"/>
			<point x="500" y="458"/>
			<point x="500" y="549" type="curve" smooth="yes"/>
			<point x="500" y="654"/>
			<point x="414" y="731"/>
			<point x="300" y="731" type="curve" smooth="yes"/>
			<point x="186" y="731"/>
			<point x="103" y="652"/>
			<point x="103" y="547" type="curve" smooth="yes"/>
			<point x="103" y="480"/>
			<point x="134" y="429"/>
			<point x="217" y="352" type="curve"/>
			<point x="237" y="335" type="line"/>
			<point x="590" y="-10" type="line"/>
		</contour>
	</outline>
</glyph>
<glyph name="parenleft" format="2">
	<unicode hex="0028"/>
	<advance width="354"/>
	<outline>
		<contour>
			<point x="321" y="-129" type="line"/>
			<point x="229" y="10"/>
			<point x="190" y="155"/>
			<point x="190" y="304" type="curve" smooth="yes"/>
			<point x="190" y="455"/>
			<point x="231" y="591"/>
			<point x="321" y="731" type="curve"/>
			<point x="189" y="731" type="line"/>
			<point x="102" y="607"/>
			<point x="57" y="464"/>
			<point x="57" y="304" type="curve" smooth="yes"/>
			<point x="57" y="143"/>
			<point x="102" y="-6"/>
			<point x="189" y="-129" type="curve"/>
		</contour>
	</outline>
</glyph>
<glyph name="asterisk" format="2">
	<unicode hex="002A"/>
	<advance width="421"/>
	<outline>
		<contour>
			<point x="301" y="336" type="curve" smooth="yes"/>
			<point x="327" y="336"/>
			<point x="350" y="359"/>
			<point x="350" y="383" type="curve" smooth="yes"/>
			<point x="350" y="396"/>
			<point x="345" y="408"/>
			<point x="337" y="420" type="curve" smooth="yes"/>
			<point x="324" y="438"/>
			<point x="285" y="476"/>
			<point x="247" y="506" type="curve"/>
			<point x="296" y="508"/>
			<point x="342" y="513"/>
			<point x="363" y="520" type="curve" smooth="yes"/>
			<point x="387" y="527"/>
			<point x="399" y="545"/>
			<point x="399" y="567" type="curve" smooth="yes"/>
			<point x="399" y="597"/>
			<point x="380" y="618"/>
			<point x="354" y="618" type="curve" smooth="yes"/>
			<point x="345" y="618"/>
			<point x="337" y="617"/>
			<point x="328" y="613" type="curve" smooth="yes"/>
			<point x="309" y="605"/>
			<point x="276" y="584"/>
			<point x="233" y="550" type="curve"/>
			<point x="247" y="601"/>
			<point x="259" y="657"/>
			<point x="259" y="679" type="curve" smooth="yes"/>
			<point x="259" y="711"/>
			<point x="240" y="732"/>
			<point x="211" y="732" type="curve" smooth="yes"/>
			<point x="181" y="732"/>
			<point x="162" y="711"/>
			<point x="162" y="679" type="curve" smooth="yes"/>
			<point x="162" y="657"/>
			<point x="174" y="601"/>
			<point x="188" y="550" type="curve"/>
			<point x="145" y="584"/>
			<point x="112" y="605"/>
			<point x="93" y="613" type="curve" smooth="yes"/>
			<point x="84" y="617"/>
			<point x="76" y="618"/>
			<point x="67" y="618" type="curve" smooth="yes"/>
			<point x="41" y="618"/>
			<point x="22" y="597"/>
			<point x="22" y="567" type="curve" smooth="yes"/>
			<point x="22" y="545"/>
			<point x="35" y="527"/>
			<point x="58" y="520" type="curve" smooth="yes"/>
			<point x="79" y="513"/>
			<point x="125" y="508"/>
			<point x="174" y="506" type="curve"/>
			<point x="136" y="476"/>
			<point x="97" y="438"/>
			<point x="84" y="420" type="curve" smooth="yes"/>
			<point x="76" y="408"/>
			<point x="71" y="396"/>
			<point x="71" y="383" type="curve" smooth="yes"/>
			<point x="71" y="359"/>
			<point x="94" y="336"/>
			<point x="120" y="336" type="curve" smooth="yes"/>
			<point x="136" y="336"/>
			<point x="149" y="343"/>
			<point x="161" y="359" type="curve" smooth="yes"/>
			<point x="173" y="378"/>
			<point x="195" y="431"/>
			<point x="211" y="479" type="curve"/>
			<point x="226" y="431"/>
			<point x="248" y="378"/>
			<point x="260" y="359" type="curve" smooth="yes"/>
			<point x="272" y="343"/>
			<point x="285" y="336"/>
		</contour>
	</outline>
</glyph>
<glyph name="hyphen" format="2">
	<unicode hex="002D"/>
	<advance width="323"/>
	<outline>
		<contour>
			<point x="294" y="221" type="line"/>
			<point x="294" y="334" type="line"/>
			<point x="29" y="334" type="line"/>
			<point x="29" y="221" type="line"/>
		</contour>
	</outline>
</glyph>
<glyph name="zero" format="2">
	<unicode hex="0030"/>
	<advance width="635"/>
	<outline>
		<contour>
			<point x="317" y="94" type="curve" smooth="yes"/>
			<point x="233" y="94"/>
			<point x="183" y="184"/>
			<point x="183" y="357" type="curve" smooth="yes"/>
			<point x="183" y="531"/>
			<point x="233" y="621"/>
			<point x="317" y="621" type="curve" smooth="yes"/>
			<point x="402" y="621"/>
			<point x="451" y="531"/>
			<point x="451" y="357" type="curve" smooth="yes"/>
			<point x="451" y="184"/>
			<point x="402" y="94"/>
		</contour>
		<contour>
			<point x="317" y="-16" type="curve" smooth="yes"/>
			<point x="487" y="-16"/>
			<point x="588" y="121"/>
			<point x="588" y="357" type="curve" smooth="yes"/>
			<point x="588" y="595"/>
			<point x="487" y="731"/>
			<point x="317" y="731" type="curve" smooth="yes"/>
			<point x="148" y="731"/>
			<point x="47" y="595"/>
			<point x="47" y="357" type="curve" smooth="yes"/>
			<point x="47" y="121"/>
			<point x="148" y="-16"/>
		</contour>
	</outline>
</glyph>
<glyph name="two" format="2">
	<unicode hex="0032"/>
	<advance width="563"/>
	<outline>
		<contour>
			<point x="525" y="0" type="line"/>
			<point x="525" y="109" type="line"/>
			<point x="211" y="109" type="line"/>
			<point x="354" y="237" type="line" smooth="yes"/>
			<point x="485" y="355"/>
			<point x="524" y="423"/>
			<point x="524" y="518" type="curve" smooth="yes"/>
			<point x="524" y="647"/>
			<point x="430" y="731"/>
			<point x="284" y="731" type="curve" smooth="yes"/>
			<point x="186" y="731"/>
			<point x="100" y="684"/>
			<point x="35" y="595" type="curve"/>
			<point x="122" y="510" type="line"/>
			<point x="169" y="583"/>
			<point x="221" y="617"/>
			<point x="284" y="617" type="curve" smooth="yes"/>
			<point x="352" y="617"/>
			<point x="395" y="576"/>
			<point x="395" y="511" type="curve" smooth="yes"/>
			<point x="395" y="459"/>
			<point x="372" y="416"/>
			<point x="299" y="347" type="curve" smooth="yes"/>
			<point x="47" y="109" type="line"/>
			<point x="47" y="0" type="line"/>
		</contour>
	</outline>
</glyph>
<glyph name="three" format="2">
	<unicode hex="0033"/>
	<advance width="600"/>
	<outline>
		<contour>
			<point x="27" y="106" type="line"/>
			<point x="91" y="24"/>
			<point x="177" y="-16"/>
			<point x="290" y="-16" type="curve" smooth="yes"/>
			<point x="446" y="-16"/>
			<point x="553" y="74"/>
			<point x="553" y="205" type="curve" smooth="yes"/>
			<point x="553" y="324"/>
			<point x="464" y="397"/>
			<point x="319" y="397" type="curve"/>
			<point x="306" y="360" type="line"/>
			<point x="441" y="360"/>
			<point x="533" y="429"/>
			<point x="533" y="531" type="curve" smooth="yes"/>
			<point x="533" y="647"/>
			<point x="434" y="731"/>
			<point x="297" y="731" type="curve" smooth="yes"/>
			<point x="194" y="731"/>
			<point x="107" y="691"/>
			<point x="44" y="613" type="curve"/>
			<point x="130" y="523" type="line"/>
			<point x="178" y="590"/>
			<point x="223" y="618"/>
			<point x="287" y="618" type="curve" smooth="yes"/>
			<point x="350" y="618"/>
			<point x="393" y="576"/>
			<point x="393" y="521" type="curve" smooth="yes"/>
			<point x="393" y="464"/>
			<point x="349" y="425"/>
			<point x="282" y="425" type="curve" smooth="yes"/>
			<point x="222" y="425" type="line"/>
			<point x="222" y="314" type="line"/>
			<point x="282" y="314" type="line" smooth="yes"/>
			<point x="366" y="314"/>
			<point x="415" y="274"/>
			<point x="415" y="210" type="curve" smooth="yes"/>
			<point x="415" y="136"/>
			<point x="357" y="96"/>
			<point x="281" y="96" type="curve" smooth="yes"/>
			<point x="216" y="96"/>
			<point x="162" y="125"/>
			<point x="112" y="194" type="curve"/>
		</contour>
	</outline>
</glyph>
<glyph name="four" format="2">
	<unicode hex="0034"/>
	<advance width="660"/>
	<outline>
		<contour>
			<point x="526" y="0" type="line"/>
			<point x="526" y="144" type="line"/>
			<point x="617" y="144" type="line"/>
			<point x="617" y="251" type="line"/>
			<point x="526" y="251" type="line"/>
			<point x="526" y="715" type="line"/>
			<point x="394" y="715" type="line"/>
			<point x="43" y="251" type="line"/>
			<point x="43" y="144" type="line"/>
			<point x="394" y="144" type="line"/>
			<point x="394" y="0" type="line"/>
		</contour>
		<contour>
			<point x="394" y="545" type="line"/>
			<point x="394" y="251" type="line"/>
			<point x="172" y="251" type="line"/>
		</contour>
	</outline>
</glyph>
<glyph name="five" format="2">
	<unicode hex="0035"/>
	<advance width="595"/>
	<outline>
		<contour>
			<point x="32" y="115" type="line"/>
			<point x="85" y="30"/>
			<point x="177" y="-16"/>
			<point x="282" y="-16" type="curve" smooth="yes"/>
			<point x="441" y="-16"/>
			<point x="553" y="93"/>
			<point x="553" y="242" type="curve" smooth="yes"/>
			<point x="553" y="381"/>
			<point x="459" y="486"/>
			<point x="328" y="486" type="curve" smooth="yes"/>
			<point x="221" y="486"/>
			<point x="141" y="415"/>
			<point x="129" y="308" type="curve"/>
			<point x="171" y="305" type="line"/>
			<point x="195" y="353"/>
			<point x="244" y="377"/>
			<point x="293" y="377" type="curve" smooth="yes"/>
			<point x="369" y="377"/>
			<point x="419" y="319"/>
			<point x="419" y="239" type="curve" smooth="yes"/>
			<point x="419" y="154"/>
			<point x="365" y="95"/>
			<point x="282" y="95" type="curve" smooth="yes"/>
			<point x="214" y="95"/>
			<point x="156" y="133"/>
			<point x="118" y="201" type="curve"/>
		</contour>
		<contour>
			<point x="519" y="606" type="line"/>
			<point x="519" y="715" type="line"/>
			<point x="104" y="715" type="line"/>
			<point x="56" y="305" type="line"/>
			<point x="171" y="305" type="line"/>
			<point x="215" y="673" type="line"/>
			<point x="151" y="606" type="line"/>
		</contour>
	</outline>
</glyph>
<glyph name="six" format="2">
	<unicode hex="0036"/>
	<advance width="620"/>
	<outline>
		<contour>
			<point x="309" y="-16" type="curve" smooth="yes"/>
			<point x="466" y="-16"/>
			<point x="576" y="91"/>
			<point x="576" y="239" type="curve" smooth="yes"/>
			<point x="576" y="382"/>
			<point x="478" y="479"/>
			<point x="346" y="479" type="curve" smooth="yes"/>
			<point x="276" y="479"/>
			<point x="226" y="448"/>
			<point x="199" y="397" type="curve"/>
			<point x="208" y="391" type="line"/>
			<point x="248" y="484"/>
			<point x="327" y="576"/>
			<point x="492" y="715" type="curve"/>
			<point x="317" y="715" type="line"/>
			<point x="126" y="556"/>
			<point x="48" y="418"/>
			<point x="48" y="258" type="curve" smooth="yes"/>
			<point x="48" y="95"/>
			<point x="155" y="-16"/>
		</contour>
		<contour>
			<point x="311" y="94" type="curve" smooth="yes"/>
			<point x="235" y="94"/>
			<point x="179" y="154"/>
			<point x="179" y="235" type="curve" smooth="yes"/>
			<point x="179" y="319"/>
			<point x="234" y="373"/>
			<point x="311" y="373" type="curve" smooth="yes"/>
			<point x="388" y="373"/>
			<point x="443" y="317"/>
			<point x="443" y="235" type="curve" smooth="yes"/>
			<point x="443" y="152"/>
			<point x="388" y="94"/>
		</contour>
	</outline>
</glyph>
<glyph name="eight" format="2">
	<unicode hex="0038"/>
	<advance width="625"/>
	<outline>
		<contour>
			<point x="313" y="-16" type="curve" smooth="yes"/>
			<point x="468" y="-16"/>
			<point x="579" y="73"/>
			<point x="579" y="199" type="curve" smooth="yes"/>
			<point x="579" y="319"/>
			<point x="468" y="405"/>
			<point x="313" y="405" type="curve" smooth="yes"/>
			<point x="157" y="405"/>
			<point x="46" y="319"/>
			<point x="46" y="199" type="curve" smooth="yes"/>
			<point x="46" y="73"/>
			<point x="157" y="-16"/>
		</contour>
		<contour>
			<point x="313" y="94" type="curve" smooth="yes"/>
			<point x="238" y="94"/>
			<point x="183" y="140"/>
			<point x="183" y="205" type="curve" smooth="yes"/>
			<point x="183" y="270"/>
			<point x="237" y="316"/>
			<point x="313" y="316" type="curve" smooth="yes"/>
			<point x="388" y="316"/>
			<point x="442" y="270"/>
			<point x="442" y="205" type="curve" smooth="yes"/>
			<point x="442" y="140"/>
			<point x="388" y="94"/>
		</contour>
		<contour>
			<point x="313" y="354" type="curve" smooth="yes"/>
			<point x="453" y="354"/>
			<point x="552" y="430"/>
			<point x="552" y="535" type="curve" smooth="yes"/>
			<point x="552" y="650"/>
			<point x="452" y="731"/>
			<point x="313" y="731" type="curve" smooth="yes"/>
			<point x="173" y="731"/>
			<point x="73" y="650"/>
			<point x="73" y="535" type="curve" smooth="yes"/>
			<point x="73" y="430"/>
			<point x="173" y="354"/>
		</contour>
		<contour>
			<point x="313" y="424" type="curve" smooth="yes"/>
			<point x="252" y="424"/>
			<point x="205" y="466"/>
			<point x="205" y="523" type="curve" smooth="yes"/>
			<point x="205" y="581"/>
			<point x="251" y="623"/>
			<point x="313" y="623" type="curve" smooth="yes"/>
			<point x="374" y="623"/>
			<point x="420" y="581"/>
			<point x="420" y="523" type="curve" smooth="yes"/>
			<point x="420" y="466"/>
			<point x="374" y="424"/>
		</contour>
	</outline>
</glyph>
<glyph name="nine" format="2">
	<unicode hex="0039"/>
	<advance width="620"/>
	<outline>
		<contour>
			<point x="314" y="731" type="curve" smooth="yes"/>
			<point x="157" y="731"/>
			<point x="47" y="624"/>
			<point x="47" y="476" type="curve" smooth="yes"/>
			<point x="47" y="333"/>
			<point x="145" y="236"/>
			<point x="277" y="236" type="curve" smooth="yes"/>
			<point x="347" y="236"/>
			<point x="397" y="267"/>
			<point x="424" y="318" type="curve"/>
			<point x="415" y="324" type="line"/>
			<point x="375" y="231"/>
			<point x="296" y="139"/>
			<point x="131" y="0" type="curve"/>
			<point x="306" y="0" type="line"/>
			<point x="497" y="159"/>
			<point x="575" y="297"/>
			<point x="575" y="457" type="curve" smooth="yes"/>
			<point x="575" y="620"/>
			<point x="468" y="731"/>
		</contour>
		<contour>
			<point x="312" y="621" type="curve" smooth="yes"/>
			<point x="388" y="621"/>
			<point x="444" y="561"/>
			<point x="444" y="480" type="curve" smooth="yes"/>
			<point x="444" y="396"/>
			<point x="389" y="342"/>
			<point x="312" y="342" type="curve" smooth="yes"/>
			<point x="235" y="342"/>
			<point x="180" y="398"/>
			<point x="180" y="480" type="curve" smooth="yes"/>
			<point x="180" y="563"/>
			<point x="235" y="621"/>
		</contour>
	</outline>
</glyph>
<glyph name="greater" format="2">
	<unicode hex="003E"/>
	<advance width="632"/>
	<outline>
		<contour>
			<point x="521" y="316" type="line"/>
			<point x="521" y="429" type="line"/>
			<point x="112" y="603" type="line"/>
			<point x="112" y="481" type="line"/>
		</contour>
		<contour>
			<point x="521" y="287" type="line"/>
			<point x="521" y="397" type="line"/>
			<point x="112" y="232" type="line"/>
			<point x="112" y="113" type="line"/>
		</contour>
	</outline>
</glyph>
<glyph name="question" format="2">
	<unicode hex="003F"/>
	<advance width="590"/>
	<outline>
		<contour>
			<point x="325" y="224" type="line"/>
			<point x="325" y="280"/>
			<point x="343" y="308"/>
			<point x="401" y="344" type="curve" smooth="yes"/>
			<point x="494" y="401"/>
			<point x="526" y="449"/>
			<point x="526" y="532" type="curve" smooth="yes"/>
			<point x="526" y="650"/>
			<point x="433" y="731"/>
			<point x="296" y="731" type="curve" smooth="yes"/>
			<point x="199" y="731"/>
			<point x="109" y="684"/>
			<point x="43" y="599" type="curve"/>
			<point x="130" y="513" type="line"/>
			<point x="174" y="582"/>
			<point x="230" y="618"/>
			<point x="293" y="618" type="curve" smooth="yes"/>
			<point x="354" y="618"/>
			<point x="394" y="583"/>
			<point x="394" y="528" type="curve" smooth="yes"/>
			<point x="394" y="486"/>
			<point x="376" y="459"/>
			<point x="330" y="430" type="curve" smooth="yes"/>
			<point x="239" y="372"/>
			<point x="216" y="326"/>
			<point x="230" y="224" type="curve"/>
		</contour>
		<contour>
			<point x="277" y="-13" type="curve" smooth="yes"/>
			<point x="326" y="-13"/>
			<point x="361" y="23"/>
			<point x="361" y="71" type="curve" smooth="yes"/>
			<point x="361" y="119"/>
			<point x="326" y="154"/>
			<point x="277" y="154" type="curve" smooth="yes"/>
			<point x="229" y="154"/>
			<point x="193" y="119"/>
			<point x="193" y="71" type="curve" smooth="yes"/>
			<point x="193" y="23"/>
			<point x="229" y="-13"/>
		</contour>
	</outline>
</glyph>
<glyph name="at" format="2">
	<unicode hex="0040"/>
	<advance width="1019"/>
	<outline>
		<contour>
			<point x="475" y="44" type="curve" smooth="yes"/>
			<point x="585" y="44"/>
			<point x="659" y="133"/>
			<point x="643" y="245" type="curve"/>
			<point x="610" y="264" type="line"/>
			<point x="609" y="190"/>
			<point x="562" y="136"/>
			<point x="496" y="136" type="curve" smooth="yes"/>
			<point x="429" y="136"/>
			<point x="391" y="187"/>
			<point x="391" y="260" type="curve" smooth="yes"/>
			<point x="391" y="336"/>
			<point x="429" y="387"/>
			<point x="498" y="387" type="curve" smooth="yes"/>
			<point x="557" y="387"/>
			<point x="600" y="332"/>
			<point x="600" y="254" type="curve"/>
			<point x="615" y="251" type="line"/>
			<point x="616" y="255"/>
			<point x="619" y="279"/>
			<point x="619" y="292" type="curve" smooth="yes"/>
			<point x="619" y="410"/>
			<point x="562" y="478"/>
			<point x="465" y="478" type="curve" smooth="yes"/>
			<point x="352" y="478"/>
			<point x="279" y="380"/>
			<point x="279" y="261" type="curve" smooth="yes"/>
			<point x="279" y="139"/>
			<point x="354" y="44"/>
		</contour>
		<contour>
			<point x="713" y="-15" type="line"/>
			<point x="663" y="-62"/>
			<point x="590" y="-89"/>
			<point x="510" y="-89" type="curve" smooth="yes"/>
			<point x="325" y="-89"/>
			<point x="180" y="65"/>
			<point x="180" y="261" type="curve" smooth="yes"/>
			<point x="180" y="470"/>
			<point x="319" y="625"/>
			<point x="521" y="625" type="curve" smooth="yes"/>
			<point x="709" y="625"/>
			<point x="832" y="485"/>
			<point x="832" y="285" type="curve" smooth="yes"/>
			<point x="832" y="197"/>
			<point x="807" y="146"/>
			<point x="765" y="146" type="curve" smooth="yes"/>
			<point x="726" y="146"/>
			<point x="705" y="175"/>
			<point x="705" y="226" type="curve" smooth="yes"/>
			<point x="705" y="465" type="line"/>
			<point x="601" y="465" type="line"/>
			<point x="601" y="357" type="line"/>
			<point x="600" y="353" type="line"/>
			<point x="600" y="201" type="line" smooth="yes"/>
			<point x="600" y="107"/>
			<point x="662" y="44"/>
			<point x="754" y="44" type="curve" smooth="yes"/>
			<point x="872" y="44"/>
			<point x="945" y="138"/>
			<point x="945" y="291" type="curve" smooth="yes"/>
			<point x="945" y="545"/>
			<point x="772" y="731"/>
			<point x="520" y="731" type="curve" smooth="yes"/>
			<point x="257" y="731"/>
			<point x="67" y="528"/>
			<point x="67" y="262" type="curve" smooth="yes"/>
			<point x="67" y="2"/>
			<point x="260" y="-194"/>
			<point x="515" y="-194" type="curve" smooth="yes"/>
			<point x="617" y="-194"/>
			<point x="726" y="-157"/>
			<point x="782" y="-104" type="curve"/>
		</contour>
	</outline>
</glyph>
<glyph name="A" format="2">
	<unicode hex="0041"/>
	<advance width="746"/>
	<outline>
		<contour>
			<point x="573" y="157" type="line"/>
			<point x="573" y="271" type="line"/>
			<point x="170" y="271" type="line"/>
			<point x="170" y="157" type="line"/>
		</contour>
		<contour>
			<point x="715" y="0" type="line"/>
			<point x="448" y="715" type="line"/>
			<point x="298" y="715" type="line"/>
			<point x="31" y="0" type="line"/>
			<point x="171" y="0" type="line"/>
			<point x="390" y="619" type="line"/>
			<point x="351" y="619" type="line"/>
			<point x="569" y="0" type="line"/>
		</contour>
	</outline>
	<anchor name="bottom.UC" x="368" y="-50"/>
	<anchor name="ogonek.UC" x="561" y="-30"/>
	<anchor name="top.UC" x="368" y="750"/>
</glyph>
<glyph name="B" format="2">
	<unicode hex="0042"/>
	<advance width="682"/>
	<outline>
		<contour>
			<point x="89" y="0" type="line"/>
			<point x="385" y="0" type="line" smooth="yes"/>
			<point x="531" y="0"/>
			<point x="628" y="82"/>
			<point x="628" y="207" type="curve" smooth="yes"/>
			<point x="628" y="325"/>
			<point x="531" y="400"/>
			<point x="385" y="400" type="curve" smooth="yes"/>
			<point x="233" y="400" type="line"/>
			<point x="233" y="349" type="line"/>
			<point x="379" y="349" type="line" smooth="yes"/>
			<point x="511" y="349"/>
			<point x="600" y="422"/>
			<point x="600" y="528" type="curve" smooth="yes"/>
			<point x="600" y="640"/>
			<point x="511" y="715"/>
			<point x="379" y="715" type="curve" smooth="yes"/>
			<point x="89" y="715" type="line"/>
		</contour>
		<contour>
			<point x="224" y="113" type="line"/>
			<point x="224" y="602" type="line"/>
			<point x="371" y="602" type="line" smooth="yes"/>
			<point x="429" y="602"/>
			<point x="464" y="569"/>
			<point x="464" y="514" type="curve" smooth="yes"/>
			<point x="464" y="456"/>
			<point x="429" y="422"/>
			<point x="371" y="422" type="curve" smooth="yes"/>
			<point x="214" y="422" type="line"/>
			<point x="214" y="311" type="line"/>
			<point x="386" y="311" type="line" smooth="yes"/>
			<point x="451" y="311"/>
			<point x="492" y="275"/>
			<point x="492" y="214" type="curve" smooth="yes"/>
			<point x="492" y="150"/>
			<point x="451" y="113"/>
			<point x="386" y="113" type="curve" smooth="yes"/>
		</contour>
	</outline>
</glyph>
<glyph name="E" format="2">
	<unicode hex="0045"/>
	<advance width="611"/>
	<outline>
		<contour>
			<point x="565" y="0" type="line"/>
			<point x="565" y="114" type="line"/>
			<point x="224" y="114" type="line"/>
			<point x="224" y="601" type="line"/>
			<point x="565" y="601" type="line"/>
			<point x="565" y="715" type="line"/>
			<point x="89" y="715" type="line"/>
			<point x="89" y="0" type="line"/>
		</contour>
		<contour>
			<point x="547" y="305" type="line"/>
			<point x="547" y="419" type="line"/>
			<point x="214" y="419" type="line"/>
			<point x="214" y="305" type="line"/>
		</contour>
	</outline>
	<anchor name="bottom.UC" x="329" y="-50"/>
	<anchor name="ogonek.UC" x="439" y="-30"/>
	<anchor name="top.UC" x="329" y="750"/>
</glyph>
<glyph name="F" format="2">
	<unicode hex="0046"/>
	<advance width="579"/>
	<outline>
		<contour>
			<point x="224" y="0" type="line"/>
			<point x="224" y="601" type="line"/>
			<point x="546" y="601" type="line"/>
			<point x="546" y="715" type="line"/>
			<point x="89" y="715" type="line"/>
			<point x="89" y="0" type="line"/>
		</contour>
		<contour>
			<point x="528" y="301" type="line"/>
			<point x="528" y="415" type="line"/>
			<point x="214" y="415" type="line"/>
			<point x="214" y="301" type="line"/>
		</contour>
	</outline>
</glyph>
<glyph name="G" format="2">
	<unicode hex="0047"/>
	<advance width="782"/>
	<outline>
		<contour>
			<point x="720" y="0" type="line"/>
			<point x="720" y="391" type="line"/>
			<point x="407" y="391" type="line"/>
			<point x="407" y="282" type="line"/>
			<point x="594" y="282" type="line"/>
			<point x="594" y="179" type="line"/>
			<point x="604" y="217" type="line"/>
			<point x="569" y="144"/>
			<point x="503" y="103"/>
			<point x="420" y="103" type="curve" smooth="yes"/>
			<point x="285" y="103"/>
			<point x="196" y="206"/>
			<point x="196" y="358" type="curve" smooth="yes"/>
			<point x="196" y="507"/>
			<point x="286" y="612"/>
			<point x="413" y="612" type="curve" smooth="yes"/>
			<point x="494" y="612"/>
			<point x="558" y="578"/>
			<point x="608" y="507" type="curve"/>
			<point x="697" y="597" type="line"/>
			<point x="632" y="682"/>
			<point x="528" y="731"/>
			<point x="414" y="731" type="curve" smooth="yes"/>
			<point x="207" y="731"/>
			<point x="54" y="573"/>
			<point x="54" y="358" type="curve" smooth="yes"/>
			<point x="54" y="144"/>
			<point x="199" y="-16"/>
			<point x="394" y="-16" type="curve" smooth="yes"/>
			<point x="491" y="-16"/>
			<point x="564" y="22"/>
			<point x="606" y="93" type="curve"/>
			<point x="595" y="98" type="line"/>
			<point x="595" y="0" type="line"/>
		</contour>
	</outline>
	<anchor name="top.UC" x="413" y="750"/>
	<anchor name="bottom.UC" x="402" y="-50"/>
</glyph>
<glyph name="H" format="2">
	<unicode hex="0048"/>
	<advance width="757"/>
	<outline>
		<contour>
			<point x="533" y="0" type="line"/>
			<point x="668" y="0" type="line"/>
			<point x="668" y="715" type="line"/>
			<point x="533" y="715" type="line"/>
		</contour>
		<contour>
			<point x="224" y="0" type="line"/>
			<point x="224" y="715" type="line"/>
			<point x="89" y="715" type="line"/>
			<point x="89" y="0" type="line"/>
		</contour>
		<contour>
			<point x="214" y="310" type="line"/>
			<point x="542" y="310" type="line"/>
			<point x="542" y="425" type="line"/>
			<point x="214" y="425" type="line"/>
		</contour>
	</outline>
	<anchor name="bottom.UC" x="378" y="-50"/>
	<anchor name="top.UC" x="378" y="750"/>
</glyph>
<glyph name="M" format="2">
	<unicode hex="004D"/>
	<advance width="914"/>
	<outline>
		<contour>
			<point x="505" y="77" type="line"/>
			<point x="768" y="660" type="line"/>
			<point x="693" y="661" type="line"/>
			<point x="693" y="0" type="line"/>
			<point x="825" y="0" type="line"/>
			<point x="825" y="715" type="line"/>
			<point x="672" y="715" type="line"/>
			<point x="430" y="168" type="line"/>
			<point x="483" y="168" type="line"/>
			<point x="243" y="715" type="line"/>
			<point x="89" y="715" type="line"/>
			<point x="89" y="0" type="line"/>
			<point x="219" y="0" type="line"/>
			<point x="219" y="661" type="line"/>
			<point x="147" y="660" type="line"/>
			<point x="407" y="77" type="line"/>
		</contour>
	</outline>
</glyph>
<glyph name="N" format="2">
	<unicode hex="004E"/>
	<advance width="767"/>
	<outline>
		<contour>
			<point x="221" y="0" type="line"/>
			<point x="221" y="586" type="line"/>
			<point x="167" y="586" type="line"/>
			<point x="537" y="0" type="line"/>
			<point x="678" y="0" type="line"/>
			<point x="678" y="715" type="line"/>
			<point x="546" y="715" type="line"/>
			<point x="546" y="129" type="line"/>
			<point x="600" y="129" type="line"/>
			<point x="230" y="715" type="line"/>
			<point x="89" y="715" type="line"/>
			<point x="89" y="0" type="line"/>
		</contour>
	</outline>
	<anchor name="bottom.UC" x="376" y="-50"/>
	<anchor name="top.UC" x="387" y="750"/>
</glyph>
<glyph name="Q" format="2">
	<unicode hex="0051"/>
	<advance width="828"/>
	<outline>
		<contour>
			<point x="682" y="-46" type="line"/>
			<point x="757" y="31" type="line"/>
			<point x="489" y="318" type="line"/>
			<point x="415" y="241" type="line"/>
		</contour>
		<contour>
			<point x="414" y="-16" type="curve" smooth="yes"/>
			<point x="625" y="-16"/>
			<point x="774" y="145"/>
			<point x="774" y="358" type="curve" smooth="yes"/>
			<point x="774" y="572"/>
			<point x="623" y="731"/>
			<point x="414" y="731" type="curve" smooth="yes"/>
			<point x="205" y="731"/>
			<point x="54" y="572"/>
			<point x="54" y="358" type="curve" smooth="yes"/>
			<point x="54" y="143"/>
			<point x="205" y="-16"/>
		</contour>
		<contour>
			<point x="414" y="104" type="curve" smooth="yes"/>
			<point x="286" y="104"/>
			<point x="195" y="210"/>
			<point x="195" y="358" type="curve" smooth="yes"/>
			<point x="195" y="505"/>
			<point x="286" y="611"/>
			<point x="414" y="611" type="curve" smooth="yes"/>
			<point x="543" y="611"/>
			<point x="632" y="505"/>
			<point x="632" y="358" type="curve" smooth="yes"/>
			<point x="632" y="208"/>
			<point x="545" y="104"/>
		</contour>
	</outline>
</glyph>
<glyph name="S" format="2">
	<unicode hex="0053"/>
	<advance width="673"/>
	<outline>
		<contour>
			<point x="37" y="116" type="line"/>
			<point x="110" y="30"/>
			<point x="217" y="-16"/>
			<point x="340" y="-16" type="curve" smooth="yes"/>
			<point x="510" y="-16"/>
			<point x="623" y="74"/>
			<point x="623" y="207" type="curve" smooth="yes"/>
			<point x="623" y="329"/>
			<point x="539" y="398"/>
			<point x="358" y="427" type="curve" smooth="yes"/>
			<point x="244" y="446"/>
			<point x="203" y="471"/>
			<point x="203" y="522" type="curve" smooth="yes"/>
			<point x="203" y="581"/>
			<point x="256" y="616"/>
			<point x="335" y="616" type="curve" smooth="yes"/>
			<point x="416" y="616"/>
			<point x="484" y="581"/>
			<point x="536" y="517" type="curve"/>
			<point x="622" y="606" type="line"/>
			<point x="554" y="685"/>
			<point x="452" y="731"/>
			<point x="334" y="731" type="curve" smooth="yes"/>
			<point x="177" y="731"/>
			<point x="67" y="643"/>
			<point x="67" y="510" type="curve" smooth="yes"/>
			<point x="67" y="396"/>
			<point x="148" y="332"/>
			<point x="326" y="304" type="curve" smooth="yes"/>
			<point x="441" y="286"/>
			<point x="486" y="256"/>
			<point x="486" y="200" type="curve" smooth="yes"/>
			<point x="486" y="138"/>
			<point x="431" y="100"/>
			<point x="343" y="100" type="curve" smooth="yes"/>
			<point x="257" y="100"/>
			<point x="175" y="139"/>
			<point x="126" y="206" type="curve"/>
		</contour>
	</outline>
	<anchor name="top.UC" x="334" y="750"/>
	<anchor name="bottom.UC" x="341" y="-50"/>
</glyph>
<glyph name="T" format="2">
	<unicode hex="0054"/>
	<advance width="616"/>
	<outline>
		<contour>
			<point x="375" y="0" type="line"/>
			<point x="375" y="609" type="line"/>
			<point x="241" y="609" type="line"/>
			<point x="241" y="0" type="line"/>
		</contour>
		<contour>
			<point x="584" y="599" type="line"/>
			<point x="584" y="715" type="line"/>
			<point x="32" y="715" type="line"/>
			<point x="32" y="599" type="line"/>
		</contour>
	</outline>
	<anchor name="bottom.UC" x="312" y="-50"/>
	<anchor name="top.UC" x="309" y="750"/>
</glyph>
<glyph name="U" format="2">
	<unicode hex="0055"/>
	<advance width="733"/>
	<outline>
		<contour>
			<point x="656" y="715" type="line"/>
			<point x="522" y="715" type="line"/>
			<point x="522" y="282" type="line" smooth="yes"/>
			<point x="522" y="173"/>
			<point x="464" y="104"/>
			<point x="367" y="104" type="curve" smooth="yes"/>
			<point x="270" y="104"/>
			<point x="212" y="173"/>
			<point x="212" y="282" type="curve" smooth="yes"/>
			<point x="212" y="715" type="line"/>
			<point x="77" y="715" type="line"/>
			<point x="77" y="282" type="line" smooth="yes"/>
			<point x="77" y="94"/>
			<point x="186" y="-16"/>
			<point x="367" y="-16" type="curve" smooth="yes"/>
			<point x="547" y="-16"/>
			<point x="656" y="94"/>
			<point x="656" y="282" type="curve" smooth="yes"/>
		</contour>
	</outline>
	<anchor name="bottom.UC" x="366" y="-50"/>
	<anchor name="ogonek.UC.round" x="399" y="-30"/>
	<anchor name="top.UC" x="366" y="750"/>
</glyph>
<glyph name="X" format="2">
	<unicode hex="0058"/>
	<advance width="718"/>
	<outline>
		<contour>
			<point x="186" y="0" type="line"/>
			<point x="373" y="301" type="line"/>
			<point x="345" y="301" type="line"/>
			<point x="532" y="0" type="line"/>
			<point x="690" y="0" type="line"/>
			<point x="433" y="389" type="line"/>
			<point x="432" y="348" type="line"/>
			<point x="667" y="715" type="line"/>
			<point x="511" y="715" type="line"/>
			<point x="348" y="436" type="line"/>
			<point x="377" y="436" type="line"/>
			<point x="210" y="715" type="line"/>
			<point x="51" y="715" type="line"/>
			<point x="290" y="348" type="line"/>
			<point x="287" y="389" type="line"/>
			<point x="28" y="0" type="line"/>
		</contour>
	</outline>
</glyph>
<glyph name="bracketleft" format="2">
	<unicode hex="005B"/>
	<advance width="326"/>
	<outline>
		<contour>
			<point x="299" y="-129" type="line"/>
			<point x="299" y="-24" type="line"/>
			<point x="200" y="-24" type="line"/>
			<point x="200" y="626" type="line"/>
			<point x="299" y="626" type="line"/>
			<point x="299" y="731" type="line"/>
			<point x="71" y="731" type="line"/>
			<point x="71" y="-129" type="line"/>
		</contour>
	</outline>
</glyph>
<glyph name="b" format="2">
	<unicode hex="0062"/>
	<advance width="640"/>
	<outline>
		<contour>
			<point x="202" y="0" type="line"/>
			<point x="202" y="119" type="line"/>
			<point x="203" y="126" type="line"/>
			<point x="203" y="248" type="line" smooth="yes"/>
			<point x="203" y="346"/>
			<point x="257" y="409"/>
			<point x="332" y="409" type="curve" smooth="yes"/>
			<point x="410" y="409"/>
			<point x="458" y="343"/>
			<point x="458" y="252" type="curve" smooth="yes"/>
			<point x="458" y="160"/>
			<point x="405" y="94"/>
			<point x="326" y="94" type="curve" smooth="yes"/>
			<point x="260" y="94"/>
			<point x="206" y="141"/>
			<point x="197" y="210" type="curve"/>
			<point x="168" y="192" type="line"/>
			<point x="163" y="76"/>
			<point x="238" y="-16"/>
			<point x="359" y="-16" type="curve" smooth="yes"/>
			<point x="489" y="-16"/>
			<point x="595" y="93"/>
			<point x="595" y="252" type="curve" smooth="yes"/>
			<point x="595" y="410"/>
			<point x="490" y="519"/>
			<point x="361" y="519" type="curve" smooth="yes"/>
			<point x="254" y="519"/>
			<point x="184" y="446"/>
			<point x="171" y="347" type="curve"/>
			<point x="203" y="347" type="line"/>
			<point x="203" y="720" type="line"/>
			<point x="71" y="720" type="line"/>
			<point x="71" y="0" type="line"/>
		</contour>
	</outline>
</glyph>
<glyph name="d" format="2">
	<unicode hex="0064"/>
	<advance width="640"/>
	<outline>
		<contour>
			<point x="438" y="0" type="line"/>
			<point x="438" y="119" type="line"/>
			<point x="437" y="126" type="line"/>
			<point x="437" y="248" type="line" smooth="yes"/>
			<point x="437" y="346"/>
			<point x="386" y="409"/>
			<point x="311" y="409" type="curve" smooth="yes"/>
			<point x="233" y="409"/>
			<point x="182" y="343"/>
			<point x="182" y="252" type="curve" smooth="yes"/>
			<point x="182" y="160"/>
			<point x="235" y="94"/>
			<point x="315" y="94" type="curve" smooth="yes"/>
			<point x="381" y="94"/>
			<point x="434" y="141"/>
			<point x="443" y="210" type="curve"/>
			<point x="472" y="192" type="line"/>
			<point x="477" y="76"/>
			<point x="402" y="-16"/>
			<point x="281" y="-16" type="curve" smooth="yes"/>
			<point x="151" y="-16"/>
			<point x="45" y="93"/>
			<point x="45" y="252" type="curve" smooth="yes"/>
			<point x="45" y="410"/>
			<point x="153" y="519"/>
			<point x="283" y="519" type="curve" smooth="yes"/>
			<point x="390" y="519"/>
			<point x="457" y="446"/>
			<point x="469" y="347" type="curve"/>
			<point x="437" y="347" type="line"/>
			<point x="437" y="720" type="line"/>
			<point x="569" y="720" type="line"/>
			<point x="569" y="0" type="line"/>
		</contour>
	</outline>
	<anchor name="top_right" x="687" y="540"/>
</glyph>
<glyph name="f" format="2">
	<unicode hex="0066"/>
	<advance width="393"/>
	<outline>
		<contour>
			<point x="246" y="0" type="line"/>
			<point x="246" y="561" type="line" smooth="yes"/>
			<point x="246" y="601"/>
			<point x="260" y="617"/>
			<point x="296" y="617" type="curve" smooth="yes"/>
			<point x="364" y="617" type="line"/>
			<point x="364" y="720" type="line"/>
			<point x="249" y="720" type="line" smooth="yes"/>
			<point x="158" y="720"/>
			<point x="114" y="674"/>
			<point x="114" y="579" type="curve" smooth="yes"/>
			<point x="114" y="0" type="line"/>
		</contour>
		<contour>
			<point x="364" y="397" type="line"/>
			<point x="364" y="503" type="line"/>
			<point x="34" y="503" type="line"/>
			<point x="34" y="397" type="line"/>
		</contour>
	</outline>
</glyph>
<glyph name="k" format="2">
	<unicode hex="006B"/>
	<advance width="590"/>
	<outline>
		<contour>
			<point x="203" y="0" type="line"/>
			<point x="203" y="720" type="line"/>
			<point x="71" y="720" type="line"/>
			<point x="71" y="0" type="line"/>
		</contour>
		<contour>
			<point x="583" y="0" type="line"/>
			<point x="325" y="271" type="line"/>
			<point x="325" y="251" type="line"/>
			<point x="555" y="503" type="line"/>
			<point x="399" y="503" type="line"/>
			<point x="185" y="261" type="line"/>
			<point x="175" y="261" type="line"/>
			<point x="417" y="0" type="line"/>
		</contour>
	</outline>
	<anchor name="bottom.LC" x="308" y="-50"/>
</glyph>
<glyph name="l" format="2">
	<unicode hex="006C"/>
	<advance width="274"/>
	<outline>
		<contour>
			<point x="203" y="0" type="line"/>
			<point x="203" y="720" type="line"/>
			<point x="71" y="720" type="line"/>
			<point x="71" y="0" type="line"/>
		</contour>
	</outline>
	<anchor name="bottom.LC" x="137" y="-50"/>
	<anchor name="top.LC" x="137" y="766"/>
	<anchor name="top_right" x="311" y="540"/>
</glyph>
<glyph name="p" format="2">
	<unicode hex="0070"/>
	<advance width="640"/>
	<outline>
		<contour>
			<point x="203" y="-194" type="line"/>
			<point x="203" y="248" type="line" smooth="yes"/>
			<point x="203" y="346"/>
			<point x="257" y="410"/>
			<point x="332" y="410" type="curve" smooth="yes"/>
			<point x="409" y="410"/>
			<point x="458" y="343"/>
			<point x="458" y="252" type="curve" smooth="yes"/>
			<point x="458" y="160"/>
			<point x="405" y="94"/>
			<point x="326" y="94" type="curve" smooth="yes"/>
			<point x="260" y="94"/>
			<point x="206" y="141"/>
			<point x="197" y="210" type="curve"/>
			<point x="168" y="192" type="line"/>
			<point x="163" y="76"/>
			<point x="236" y="-16"/>
			<point x="359" y="-16" type="curve" smooth="yes"/>
			<point x="489" y="-16"/>
			<point x="595" y="93"/>
			<point x="595" y="252" type="curve" smooth="yes"/>
			<point x="595" y="409"/>
			<point x="490" y="519"/>
			<point x="361" y="519" type="curve" smooth="yes"/>
			<point x="256" y="519"/>
			<point x="186" y="446"/>
			<point x="174" y="347" type="curve"/>
			<point x="202" y="347" type="line"/>
			<point x="202" y="503" type="line"/>
			<point x="71" y="503" type="line"/>
			<point x="71" y="-194" type="line"/>
		</contour>
	</outline>
</glyph>
<glyph name="q" format="2">
	<unicode hex="0071"/>
	<advance width="640"/>
	<outline>
		<contour>
			<point x="437" y="-194" type="line"/>
			<point x="437" y="248" type="line" smooth="yes"/>
			<point x="437" y="346"/>
			<point x="386" y="410"/>
			<point x="312" y="410" type="curve" smooth="yes"/>
			<point x="234" y="410"/>
			<point x="182" y="343"/>
			<point x="182" y="252" type="curve" smooth="yes"/>
			<point x="182" y="160"/>
			<point x="235" y="94"/>
			<point x="315" y="94" type="curve" smooth="yes"/>
			<point x="381" y="94"/>
			<point x="434" y="141"/>
			<point x="443" y="210" type="curve"/>
			<point x="472" y="192" type="line"/>
			<point x="477" y="76"/>
			<point x="404" y="-16"/>
			<point x="281" y="-16" type="curve" smooth="yes"/>
			<point x="151" y="-16"/>
			<point x="45" y="93"/>
			<point x="45" y="252" type="curve" smooth="yes"/>
			<point x="45" y="409"/>
			<point x="153" y="519"/>
			<point x="283" y="519" type="curve" smooth="yes"/>
			<point x="388" y="519"/>
			<point x="455" y="446"/>
			<point x="467" y="347" type="curve"/>
			<point x="438" y="347" type="line"/>
			<point x="438" y="503" type="line"/>
			<point x="569" y="503" type="line"/>
			<point x="569" y="-194" type="line"/>
		</contour>
	</outline>
</glyph>
<glyph name="r" format="2">
	<unicode hex="0072"/>
	<advance width="400"/>
	<outline>
		<contour>
			<point x="377" y="512" type="line"/>
			<point x="356" y="512" type="line" smooth="yes"/>
			<point x="287" y="512"/>
			<point x="201" y="475"/>
			<point x="186" y="340" type="curve"/>
			<point x="202" y="340" type="line"/>
			<point x="202" y="503" type="line"/>
			<point x="71" y="503" type="line"/>
			<point x="71" y="0" type="line"/>
			<point x="203" y="0" type="line"/>
			<point x="203" y="214" type="line" smooth="yes"/>
			<point x="203" y="337"/>
			<point x="259" y="391"/>
			<point x="350" y="391" type="curve" smooth="yes"/>
			<point x="377" y="391" type="line"/>
		</contour>
	</outline>
	<anchor name="top.LC" x="229" y="544"/>
</glyph>
<glyph name="w" format="2">
	<unicode hex="0077"/>
	<advance width="803"/>
	<outline>
		<contour>
			<point x="630" y="0" type="line"/>
			<point x="777" y="503" type="line"/>
			<point x="650" y="503" type="line"/>
			<point x="547" y="83" type="line"/>
			<point x="579" y="83" type="line"/>
			<point x="457" y="503" type="line"/>
			<point x="349" y="503" type="line"/>
			<point x="226" y="83" type="line"/>
			<point x="258" y="83" type="line"/>
			<point x="156" y="503" type="line"/>
			<point x="26" y="503" type="line"/>
			<point x="172" y="0" type="line"/>
			<point x="302" y="0" type="line"/>
			<point x="419" y="384" type="line"/>
			<point x="382" y="384" type="line"/>
			<point x="500" y="0" type="line"/>
		</contour>
	</outline>
	<anchor name="top.LC" x="399" y="544"/>
</glyph>
<glyph name="y" format="2">
	<unicode hex="0079"/>
	<advance width="581"/>
	<outline>
		<contour>
			<point x="423" y="503" type="line"/>
			<point x="271" y="80" type="line"/>
			<point x="312" y="80" type="line"/>
			<point x="161" y="503" type="line"/>
			<point x="24" y="503" type="line"/>
			<point x="227" y="-1" type="line"/>
			<point x="217" y="-29" type="line" smooth="yes"/>
			<point x="203" y="-68"/>
			<point x="185" y="-86"/>
			<point x="116" y="-86" type="curve" smooth="yes"/>
			<point x="80" y="-86" type="line"/>
			<point x="80" y="-194" type="line"/>
			<point x="147" y="-194" type="line" smooth="yes"/>
			<point x="242" y="-194"/>
			<point x="296" y="-147"/>
			<point x="332" y="-58" type="curve" smooth="yes"/>
			<point x="555" y="503" type="line"/>
		</contour>
	</outline>
	<anchor name="bottom.LC" x="444" y="-50"/>
	<anchor name="top.LC" x="291" y="544"/>
</glyph>
<glyph name="bar" format="2">
	<unicode hex="007C"/>
	<advance width="271"/>
	<outline>
		<contour>
			<point x="200" y="-129" type="line"/>
			<point x="200" y="736" type="line"/>
			<point x="71" y="736" type="line"/>
			<point x="71" y="-129" type="line"/>
		</contour>
	</outline>
</glyph>
<glyph name="braceright" format="2">
	<unicode hex="007D"/>
	<advance width="392"/>
	<outline>
		<contour>
			<point x="44" y="-26" type="line"/>
			<point x="93" y="-26" type="line" smooth="yes"/>
			<point x="129" y="-26"/>
			<point x="143" y="-10"/>
			<point x="143" y="30" type="curve" smooth="yes"/>
			<point x="143" y="176" type="line" smooth="yes"/>
			<point x="143" y="270"/>
			<point x="187" y="316"/>
			<point x="279" y="316" type="curve"/>
			<point x="279" y="290" type="line"/>
			<point x="187" y="290"/>
			<point x="143" y="335"/>
			<point x="143" y="431" type="curve" smooth="yes"/>
			<point x="143" y="572" type="line" smooth="yes"/>
			<point x="143" y="612"/>
			<point x="129" y="628"/>
			<point x="93" y="628" type="curve" smooth="yes"/>
			<point x="44" y="628" type="line"/>
			<point x="44" y="731" type="line"/>
			<point x="137" y="731" type="line" smooth="yes"/>
			<point x="228" y="731"/>
			<point x="272" y="685"/>
			<point x="272" y="590" type="curve" smooth="yes"/>
			<point x="272" y="410" type="line" smooth="yes"/>
			<point x="272" y="370"/>
			<point x="286" y="354"/>
			<point x="322" y="354" type="curve" smooth="yes"/>
			<point x="348" y="354" type="line"/>
			<point x="348" y="251" type="line"/>
			<point x="322" y="251" type="line" smooth="yes"/>
			<point x="286" y="251"/>
			<point x="272" y="236"/>
			<point x="272" y="196" type="curve" smooth="yes"/>
			<point x="272" y="12" type="line" smooth="yes"/>
			<point x="272" y="-83"/>
			<point x="228" y="-129"/>
			<point x="137" y="-129" type="curve" smooth="yes"/>
			<point x="44" y="-129" type="line"/>
		</contour>
	</outline>
</glyph>
<glyph name="exclamdown" format="2">
	<unicode hex="00A1"/>
	<advance width="271"/>
	<outline>
		<contour>
			<point x="104" y="265" type="line"/>
			<point x="96" y="205"/>
			<point x="64" y="-139"/>
			<point x="64" y="-160" type="curve" smooth="yes"/>
			<point x="64" y="-210"/>
			<point x="98" y="-241"/>
			<point x="139" y="-241" type="curve"/>
			<point x="180" y="-241"/>
			<point x="215" y="-210"/>
			<point x="215" y="-160" type="curve" smooth="yes"/>
			<point x="215" y="-139"/>
			<point x="183" y="205"/>
			<point x="175" y="265" type="curve"/>
		</contour>
		<contour>
			<point x="139" y="503" type="curve" smooth="yes"/>
			<point x="91" y="503"/>
			<point x="55" y="467"/>
			<point x="55" y="419" type="curve" smooth="yes"/>
			<point x="55" y="371"/>
			<point x="91" y="336"/>
			<point x="139" y="336" type="curve" smooth="yes"/>
			<point x="188" y="336"/>
			<point x="224" y="371"/>
			<point x="224" y="419" type="curve" smooth="yes"/>
			<point x="224" y="467"/>
			<point x="188" y="503"/>
		</contour>
	</outline>
</glyph>
<glyph name="cent" format="2">
	<unicode hex="00A2"/>
	<advance width="632"/>
	<outline>
		<contour>
			<point x="380" y="-116" type="line"/>
			<point x="380" y="619" type="line"/>
			<point x="313" y="619" type="line"/>
			<point x="313" y="-116" type="line"/>
		</contour>
		<contour>
			<point x="475" y="167" type="line"/>
			<point x="446" y="119"/>
			<point x="402" y="93"/>
			<point x="353" y="93" type="curve" smooth="yes"/>
			<point x="273" y="93"/>
			<point x="217" y="155"/>
			<point x="217" y="252" type="curve" smooth="yes"/>
			<point x="217" y="348"/>
			<point x="272" y="410"/>
			<point x="353" y="410" type="curve" smooth="yes"/>
			<point x="400" y="410"/>
			<point x="445" y="383"/>
			<point x="474" y="336" type="curve"/>
			<point x="557" y="418" type="line"/>
			<point x="507" y="484"/>
			<point x="433" y="519"/>
			<point x="346" y="519" type="curve" smooth="yes"/>
			<point x="190" y="519"/>
			<point x="82" y="409"/>
			<point x="82" y="252" type="curve" smooth="yes"/>
			<point x="82" y="97"/>
			<point x="191" y="-16"/>
			<point x="347" y="-16" type="curve" smooth="yes"/>
			<point x="431" y="-16"/>
			<point x="507" y="20"/>
			<point x="558" y="86" type="curve"/>
		</contour>
	</outline>
</glyph>
<glyph name="sterling" format="2">
	<unicode hex="00A3"/>
	<advance width="632"/>
	<outline>
		<contour>
			<point x="581" y="0" type="line"/>
			<point x="581" y="110" type="line"/>
			<point x="61" y="110" type="line"/>
			<point x="61" y="0" type="line"/>
		</contour>
		<contour>
			<point x="471" y="301" type="line"/>
			<point x="471" y="404" type="line"/>
			<point x="70" y="404" type="line"/>
			<point x="70" y="301" type="line"/>
		</contour>
		<contour>
			<point x="583" y="611" type="line"/>
			<point x="535" y="688"/>
			<point x="460" y="731"/>
			<point x="372" y="731" type="curve" smooth="yes"/>
			<point x="232" y="731"/>
			<point x="141" y="634"/>
			<point x="141" y="484" type="curve" smooth="yes"/>
			<point x="141" y="55" type="line"/>
			<point x="273" y="55" type="line"/>
			<point x="273" y="486" type="line" smooth="yes"/>
			<point x="273" y="568"/>
			<point x="311" y="617"/>
			<point x="372" y="617" type="curve" smooth="yes"/>
			<point x="420" y="617"/>
			<point x="456" y="592"/>
			<point x="493" y="530" type="curve"/>
		</contour>
	</outline>
</glyph>
<glyph name="currency" format="2">
	<unicode hex="00A4"/>
	<advance width="583"/>
	<outline>
		<contour>
			<point x="291" y="254" type="curve" smooth="yes"/>
			<point x="226" y="254"/>
			<point x="176" y="306"/>
			<point x="176" y="375" type="curve" smooth="yes"/>
			<point x="176" y="444"/>
			<point x="226" y="496"/>
			<point x="291" y="496" type="curve" smooth="yes"/>
			<point x="356" y="496"/>
			<point x="406" y="444"/>
			<point x="406" y="375" type="curve" smooth="yes"/>
			<point x="406" y="306"/>
			<point x="356" y="254"/>
		</contour>
		<contour>
			<point x="291" y="159" type="curve" smooth="yes"/>
			<point x="334" y="159"/>
			<point x="374" y="171"/>
			<point x="408" y="192" type="curve"/>
			<point x="483" y="117" type="line"/>
			<point x="542" y="176" type="line"/>
			<point x="470" y="249" type="line"/>
			<point x="495" y="284"/>
			<point x="510" y="328"/>
			<point x="510" y="375" type="curve" smooth="yes"/>
			<point x="510" y="422"/>
			<point x="495" y="466"/>
			<point x="470" y="501" type="curve"/>
			<point x="542" y="574" type="line"/>
			<point x="483" y="633" type="line"/>
			<point x="408" y="558" type="line"/>
			<point x="374" y="579"/>
			<point x="334" y="591"/>
			<point x="291" y="591" type="curve" smooth="yes"/>
			<point x="248" y="591"/>
			<point x="208" y="579"/>
			<point x="174" y="558" type="curve"/>
			<point x="99" y="633" type="line"/>
			<point x="40" y="574" type="line"/>
			<point x="112" y="501" type="line"/>
			<point x="87" y="466"/>
			<point x="72" y="422"/>
			<point x="72" y="375" type="curve" smooth="yes"/>
			<point x="72" y="328"/>
			<point x="87" y="284"/>
			<point x="112" y="249" type="curve"/>
			<point x="40" y="176" type="line"/>
			<point x="99" y="117" type="line"/>
			<point x="174" y="192" type="line"/>
			<point x="208" y="171"/>
			<point x="248" y="159"/>
		</contour>
	</outline>
</glyph>
<glyph name="yen" format="2">
	<unicode hex="00A5"/>
	<advance width="632"/>
	<outline>
		<contour>
			<point x="542" y="128" type="line"/>
			<point x="542" y="220" type="line"/>
			<point x="90" y="220" type="line"/>
			<point x="90" y="128" type="line"/>
		</contour>
		<contour>
			<point x="542" y="283" type="line"/>
			<point x="542" y="375" type="line"/>
			<point x="90" y="375" type="line"/>
			<point x="90" y="283" type="line"/>
		</contour>
		<contour>
			<point x="382" y="0" type="line"/>
			<point x="382" y="306" type="line"/>
			<point x="609" y="715" type="line"/>
			<point x="463" y="715" type="line"/>
			<point x="306" y="403" type="line"/>
			<point x="328" y="403" type="line"/>
			<point x="171" y="715" type="line"/>
			<point x="23" y="715" type="line"/>
			<point x="249" y="307" type="line"/>
			<point x="249" y="0" type="line"/>
		</contour>
	</outline>
</glyph>
<glyph name="brokenbar" format="2">
	<unicode hex="00A6"/>
	<advance width="271"/>
	<outline>
		<contour>
			<point x="71" y="390" type="line"/>
			<point x="200" y="390" type="line"/>
			<point x="200" y="736" type="line"/>
			<point x="71" y="736" type="line"/>
		</contour>
		<contour>
			<point x="71" y="-129" type="line"/>
			<point x="200" y="-129" type="line"/>
			<point x="200" y="217" type="line"/>
			<point x="71" y="217" type="line"/>
		</contour>
	</outline>
</glyph>
<glyph name="section" format="2">
	<unicode hex="00A7"/>
	<advance width="524"/>
	<outline>
		<contour>
			<point x="491" y="314" type="curve" smooth="yes"/>
			<point x="491" y="402"/>
			<point x="427" y="454"/>
			<point x="285" y="484" type="curve" smooth="yes"/>
			<point x="210" y="500"/>
			<point x="181" y="524"/>
			<point x="181" y="566" type="curve" smooth="yes"/>
			<point x="181" y="609"/>
			<point x="214" y="637"/>
			<point x="267" y="637" type="curve" smooth="yes"/>
			<point x="319" y="637"/>
			<point x="370" y="609"/>
			<point x="406" y="563" type="curve"/>
			<point x="472" y="637" type="line"/>
			<point x="421" y="698"/>
			<point x="349" y="731"/>
			<point x="266" y="731" type="curve" smooth="yes"/>
			<point x="151" y="731"/>
			<point x="68" y="658"/>
			<point x="68" y="557" type="curve" smooth="yes"/>
			<point x="68" y="504"/>
			<point x="90" y="461"/>
			<point x="133" y="431" type="curve"/>
			<point x="77" y="398"/>
			<point x="46" y="349"/>
			<point x="46" y="291" type="curve" smooth="yes"/>
			<point x="46" y="204"/>
			<point x="111" y="153"/>
			<point x="254" y="121" type="curve" smooth="yes"/>
			<point x="331" y="104"/>
			<point x="359" y="81"/>
			<point x="359" y="36" type="curve" smooth="yes"/>
			<point x="359" y="-6"/>
			<point x="323" y="-33"/>
			<point x="265" y="-33" type="curve" smooth="yes"/>
			<point x="203" y="-33"/>
			<point x="144" y="-3"/>
			<point x="110" y="41" type="curve"/>
			<point x="44" y="-33" type="line"/>
			<point x="94" y="-92"/>
			<point x="178" y="-128"/>
			<point x="263" y="-128" type="curve" smooth="yes"/>
			<point x="385" y="-128"/>
			<point x="472" y="-56"/>
			<point x="472" y="44" type="curve" smooth="yes"/>
			<point x="472" y="98"/>
			<point x="449" y="142"/>
			<point x="403" y="174" type="curve"/>
			<point x="460" y="206"/>
			<point x="491" y="256"/>
		</contour>
		<contour>
			<point x="377" y="295" type="curve" smooth="yes"/>
			<point x="377" y="259"/>
			<point x="352" y="229"/>
			<point x="309" y="214" type="curve"/>
			<point x="279" y="222" type="line" smooth="yes"/>
			<point x="189" y="246"/>
			<point x="159" y="266"/>
			<point x="159" y="310" type="curve" smooth="yes"/>
			<point x="159" y="346"/>
			<point x="186" y="377"/>
			<point x="228" y="391" type="curve"/>
			<point x="257" y="383" type="line" smooth="yes"/>
			<point x="346" y="358"/>
			<point x="377" y="338"/>
		</contour>
	</outline>
</glyph>
<glyph name="ordfeminine" format="2">
	<unicode hex="00AA"/>
	<advance width="438"/>
	<outline>
		<contour>
			<point x="397" y="307" type="line"/>
			<point x="397" y="548" type="line" smooth="yes"/>
			<point x="397" y="654"/>
			<point x="321" y="715"/>
			<point x="207" y="715" type="curve" smooth="yes"/>
			<point x="142" y="715"/>
			<point x="80" y="690"/>
			<point x="42" y="651" type="curve"/>
			<point x="98" y="583" type="line"/>
			<point x="125" y="611"/>
			<point x="160" y="628"/>
			<point x="200" y="628" type="curve" smooth="yes"/>
			<point x="253" y="628"/>
			<point x="287" y="599"/>
			<point x="287" y="546" type="curve" smooth="yes"/>
			<point x="287" y="396" type="line"/>
			<point x="293" y="388" type="line"/>
			<point x="293" y="307" type="line"/>
		</contour>
		<contour>
			<point x="173" y="294" type="curve" smooth="yes"/>
			<point x="264" y="294"/>
			<point x="323" y="359"/>
			<point x="323" y="457" type="curve"/>
			<point x="296" y="470" type="line"/>
			<point x="291" y="417"/>
			<point x="253" y="378"/>
			<point x="205" y="378" type="curve" smooth="yes"/>
			<point x="170" y="378"/>
			<point x="148" y="398"/>
			<point x="148" y="429" type="curve" smooth="yes"/>
			<point x="148" y="463"/>
			<point x="176" y="483"/>
			<point x="222" y="483" type="curve" smooth="yes"/>
			<point x="294" y="483" type="line"/>
			<point x="294" y="554" type="line"/>
			<point x="214" y="554" type="line" smooth="yes"/>
			<point x="99" y="554"/>
			<point x="29" y="505"/>
			<point x="29" y="424" type="curve" smooth="yes"/>
			<point x="29" y="347"/>
			<point x="88" y="294"/>
		</contour>
	</outline>
</glyph>
<glyph name="logicalnot" format="2">
	<unicode hex="00AC"/>
	<advance width="632"/>
	<outline>
		<contour>
			<point x="525" y="154" type="line"/>
			<point x="525" y="411" type="line"/>
			<point x="107" y="411" type="line"/>
			<point x="107" y="305" type="line"/>
			<point x="419" y="305" type="line"/>
			<point x="419" y="154" type="line"/>
		</contour>
	</outline>
</glyph>
<glyph name="registered" format="2">
	<unicode hex="00AE"/>
	<advance width="523"/>
	<outline>
		<contour>
			<point x="226" y="384" type="line"/>
			<point x="226" y="559" type="line"/>
			<point x="267" y="559" type="line" smooth="yes"/>
			<point x="285" y="559"/>
			<point x="298" y="547"/>
			<point x="298" y="530" type="curve" smooth="yes"/>
			<point x="298" y="513"/>
			<point x="285" y="501"/>
			<point x="267" y="501" type="curve" smooth="yes"/>
			<point x="223" y="501" type="line"/>
			<point x="223" y="456" type="line"/>
			<point x="267" y="456" type="line" smooth="yes"/>
			<point x="318" y="456"/>
			<point x="351" y="486"/>
			<point x="351" y="530" type="curve" smooth="yes"/>
			<point x="351" y="574"/>
			<point x="318" y="604"/>
			<point x="267" y="604" type="curve" smooth="yes"/>
			<point x="174" y="604" type="line"/>
			<point x="174" y="384" type="line"/>
		</contour>
		<contour>
			<point x="367" y="384" type="line"/>
			<point x="292" y="471" type="line"/>
			<point x="233" y="471" type="line"/>
			<point x="305" y="384" type="line"/>
		</contour>
		<contour>
			<point x="261" y="251" type="curve" smooth="yes"/>
			<point x="389" y="251"/>
			<point x="493" y="357"/>
			<point x="493" y="488" type="curve" smooth="yes"/>
			<point x="493" y="619"/>
			<point x="389" y="725"/>
			<point x="261" y="725" type="curve" smooth="yes"/>
			<point x="134" y="725"/>
			<point x="30" y="619"/>
			<point x="30" y="488" type="curve" smooth="yes"/>
			<point x="30" y="357"/>
			<point x="134" y="251"/>
		</contour>
		<contour>
			<point x="261" y="318" type="curve" smooth="yes"/>
			<point x="167" y="318"/>
			<point x="98" y="387"/>
			<point x="98" y="488" type="curve" smooth="yes"/>
			<point x="98" y="589"/>
			<point x="167" y="658"/>
			<point x="261" y="658" type="curve" smooth="yes"/>
			<point x="355" y="658"/>
			<point x="424" y="589"/>
			<point x="424" y="488" type="curve" smooth="yes"/>
			<point x="424" y="387"/>
			<point x="355" y="318"/>
		</contour>
	</outline>
</glyph>
<glyph name="micro" format="2">
	<unicode hex="00B5"/>
	<advance width="632"/>
	<outline>
		<contour>
			<point x="416" y="0" type="line"/>
			<point x="547" y="0" type="line"/>
			<point x="547" y="503" type="line"/>
			<point x="415" y="503" type="line"/>
			<point x="415" y="124" type="line"/>
			<point x="416" y="96" type="line"/>
		</contour>
		<contour>
			<point x="85" y="-194" type="line"/>
			<point x="217" y="-194" type="line"/>
			<point x="217" y="83" type="line"/>
			<point x="169" y="42" type="line"/>
			<point x="185" y="4"/>
			<point x="226" y="-16"/>
			<point x="275" y="-16" type="curve" smooth="yes"/>
			<point x="381" y="-16"/>
			<point x="450" y="68"/>
			<point x="448" y="192" type="curve"/>
			<point x="422" y="210" type="line"/>
			<point x="413" y="142"/>
			<point x="363" y="94"/>
			<point x="305" y="94" type="curve" smooth="yes"/>
			<point x="250" y="94"/>
			<point x="217" y="131"/>
			<point x="217" y="203" type="curve" smooth="yes"/>
			<point x="217" y="503" type="line"/>
			<point x="85" y="503" type="line"/>
		</contour>
	</outline>
</glyph>
<glyph name="questiondown" format="2">
	<unicode hex="00BF"/>
	<advance width="590"/>
	<outline>
		<contour>
			<point x="265" y="266" type="line"/>
			<point x="265" y="210"/>
			<point x="247" y="182"/>
			<point x="189" y="146" type="curve" smooth="yes"/>
			<point x="96" y="89"/>
			<point x="64" y="41"/>
			<point x="64" y="-42" type="curve" smooth="yes"/>
			<point x="64" y="-160"/>
			<point x="157" y="-241"/>
			<point x="294" y="-241" type="curve" smooth="yes"/>
			<point x="391" y="-241"/>
			<point x="481" y="-194"/>
			<point x="547" y="-109" type="curve"/>
			<point x="460" y="-23" type="line"/>
			<point x="416" y="-92"/>
			<point x="360" y="-128"/>
			<point x="297" y="-128" type="curve" smooth="yes"/>
			<point x="236" y="-128"/>
			<point x="196" y="-93"/>
			<point x="196" y="-38" type="curve" smooth="yes"/>
			<point x="196" y="4"/>
			<point x="214" y="31"/>
			<point x="260" y="60" type="curve" smooth="yes"/>
			<point x="351" y="118"/>
			<point x="374" y="164"/>
			<point x="360" y="266" type="curve"/>
		</contour>
		<contour>
			<point x="313" y="503" type="curve" smooth="yes"/>
			<point x="264" y="503"/>
			<point x="229" y="467"/>
			<point x="229" y="419" type="curve" smooth="yes"/>
			<point x="229" y="371"/>
			<point x="264" y="336"/>
			<point x="313" y="336" type="curve" smooth="yes"/>
			<point x="361" y="336"/>
			<point x="397" y="371"/>
			<point x="397" y="419" type="curve" smooth="yes"/>
			<point x="397" y="467"/>
			<point x="361" y="503"/>
		</contour>
	</outline>
</glyph>
<glyph name="Eth" format="2">
	<unicode hex="00D0"/>
	<advance width="752"/>
	<outline>
		<contour>
			<point x="89" y="0" type="line"/>
			<point x="335" y="0" type="line" smooth="yes"/>
			<point x="553" y="0"/>
			<point x="698" y="149"/>
			<point x="698" y="358" type="curve" smooth="yes"/>
			<point x="698" y="566"/>
			<point x="553" y="715"/>
			<point x="335" y="715" type="curve" smooth="yes"/>
			<point x="89" y="715" type="line"/>
		</contour>
		<contour>
			<point x="224" y="115" type="line"/>
			<point x="224" y="600" type="line"/>
			<point x="335" y="600" type="line" smooth="yes"/>
			<point x="472" y="600"/>
			<point x="556" y="504"/>
			<point x="556" y="358" type="curve" smooth="yes"/>
			<point x="556" y="211"/>
			<point x="472" y="115"/>
			<point x="335" y="115" type="curve" smooth="yes"/>
		</contour>
		<contour>
			<point x="369" y="305" type="line"/>
			<point x="369" y="419" type="line"/>
			<point x="31" y="419" type="line"/>
			<point x="31" y="305" type="line"/>
		</contour>
	</outline>
</glyph>
<glyph name="multiply" format="2">
	<unicode hex="00D7"/>
	<advance width="632"/>
	<outline>
		<contour>
			<point x="511" y="229" type="line"/>
			<point x="196" y="559" type="line"/>
			<point x="122" y="485" type="line"/>
			<point x="437" y="155" type="line"/>
		</contour>
		<contour>
			<point x="196" y="155" type="line"/>
			<point x="511" y="485" type="line"/>
			<point x="437" y="559" type="line"/>
			<point x="122" y="229" type="line"/>
		</contour>
	</outline>
</glyph>
<glyph name="germandbls" format="2">
	<unicode hex="00DF"/>
	<advance width="637"/>
	<outline>
		<contour>
			<point x="204" y="0" type="line"/>
			<point x="204" y="455" type="line" smooth="yes"/>
			<point x="204" y="568"/>
			<point x="247" y="624"/>
			<point x="317" y="624" type="curve" smooth="yes"/>
			<point x="376" y="624"/>
			<point x="408" y="585"/>
			<point x="408" y="530" type="curve" smooth="yes"/>
			<point x="408" y="468"/>
			<point x="368" y="426"/>
			<point x="311" y="426" type="curve" smooth="yes"/>
			<point x="290" y="426" type="line"/>
			<point x="290" y="318" type="line"/>
			<point x="332" y="318" type="line" smooth="yes"/>
			<point x="407" y="318"/>
			<point x="463" y="267"/>
			<point x="463" y="194" type="curve" smooth="yes"/>
			<point x="463" y="134"/>
			<point x="427" y="90"/>
			<point x="375" y="90" type="curve" smooth="yes"/>
			<point x="343" y="90"/>
			<point x="314" y="103"/>
			<point x="293" y="125" type="curve"/>
			<point x="240" y="35" type="line"/>
			<point x="266" y="5"/>
			<point x="332" y="-16"/>
			<point x="385" y="-16" type="curve" smooth="yes"/>
			<point x="515" y="-16"/>
			<point x="599" y="69"/>
			<point x="599" y="191" type="curve" smooth="yes"/>
			<point x="599" y="325"/>
			<point x="493" y="407"/>
			<point x="348" y="407" type="curve" smooth="yes"/>
			<point x="308" y="407" type="line"/>
			<point x="308" y="349" type="line"/>
			<point x="311" y="349" type="line" smooth="yes"/>
			<point x="454" y="349"/>
			<point x="545" y="426"/>
			<point x="545" y="533" type="curve" smooth="yes"/>
			<point x="545" y="644"/>
			<point x="453" y="731"/>
			<point x="314" y="731" type="curve" smooth="yes"/>
			<point x="169" y="731"/>
			<point x="68" y="632"/>
			<point x="68" y="467" type="curve" smooth="yes"/>
			<point x="68" y="0" type="line"/>
		</contour>
	</outline>
</glyph>
<glyph name="oslash" format="2">
	<unicode hex="00F8"/>
	<advance width="618"/>
	<outline>
		<contour>
			<point x="92" y="-31" type="line"/>
			<point x="589" y="472" type="line"/>
			<point x="527" y="534" type="line"/>
			<point x="30" y="31" type="line"/>
		</contour>
		<contour>
			<point x="308" y="-16" type="curve" smooth="yes"/>
			<point x="464" y="-16"/>
			<point x="573" y="95"/>
			<point x="573" y="252" type="curve" smooth="yes"/>
			<point x="573" y="408"/>
			<point x="464" y="519"/>
			<point x="308" y="519" type="curve" smooth="yes"/>
			<point x="153" y="519"/>
			<point x="45" y="408"/>
			<point x="45" y="252" type="curve" smooth="yes"/>
			<point x="45" y="95"/>
			<point x="153" y="-16"/>
		</contour>
		<contour>
			<point x="308" y="94" type="curve" smooth="yes"/>
			<point x="232" y="94"/>
			<point x="180" y="159"/>
			<point x="180" y="252" type="curve" smooth="yes"/>
			<point x="180" y="344"/>
			<point x="230" y="409"/>
			<point x="308" y="409" type="curve" smooth="yes"/>
			<point x="386" y="409"/>
			<point x="438" y="344"/>
			<point x="438" y="252" type="curve" smooth="yes"/>
			<point x="438" y="159"/>
			<point x="388" y="94"/>
		</contour>
	</outline>
</glyph>
<glyph name="Hbar" format="2">
	<unicode hex="0126"/>
	<advance width="757"/>
	<outline>
		<contour>
			<point x="725" y="517" type="line"/>
			<point x="725" y="626" type="line"/>
			<point x="31" y="626" type="line"/>
			<point x="31" y="517" type="line"/>
		</contour>
		<contour>
			<point x="533" y="0" type="line"/>
			<point x="668" y="0" type="line"/>
			<point x="668" y="715" type="line"/>
			<point x="533" y="715" type="line"/>
		</contour>
		<contour>
			<point x="224" y="0" type="line"/>
			<point x="224" y="715" type="line"/>
			<point x="89" y="715" type="line"/>
			<point x="89" y="0" type="line"/>
		</contour>
		<contour>
			<point x="214" y="310" type="line"/>
			<point x="542" y="310" type="line"/>
			<point x="542" y="425" type="line"/>
			<point x="214" y="425" type="line"/>
		</contour>
	</outline>
</glyph>
<glyph name="hbar" format="2">
	<unicode hex="0127"/>
	<advance width="614"/>
	<outline>
		<contour>
			<point x="360" y="552" type="line"/>
			<point x="360" y="647" type="line"/>
			<point x="8" y="647" type="line"/>
			<point x="8" y="552" type="line"/>
		</contour>
		<contour>
			<point x="550" y="0" type="line"/>
			<point x="550" y="286" type="line" smooth="yes"/>
			<point x="550" y="423"/>
			<point x="482" y="501"/>
			<point x="369" y="501" type="curve" smooth="yes"/>
			<point x="293" y="501"/>
			<point x="215" y="457"/>
			<point x="201" y="328" type="curve"/>
			<point x="218" y="328" type="line"/>
			<point x="218" y="720" type="line"/>
			<point x="86" y="720" type="line"/>
			<point x="86" y="0" type="line"/>
			<point x="218" y="0" type="line"/>
			<point x="218" y="226" type="line" smooth="yes"/>
			<point x="218" y="334"/>
			<point x="266" y="391"/>
			<point x="330" y="391" type="curve" smooth="yes"/>
			<point x="385" y="391"/>
			<point x="418" y="349"/>
			<point x="418" y="272" type="curve" smooth="yes"/>
			<point x="418" y="0" type="line"/>
		</contour>
	</outline>
</glyph>
<glyph name="dotlessi" format="2">
	<unicode hex="0131"/>
	<advance width="274"/>
	<outline>
		<contour>
			<point x="203" y="0" type="line"/>
			<point x="203" y="503" type="line"/>
			<point x="71" y="503" type="line"/>
			<point x="71" y="0" type="line"/>
		</contour>
	</outline>
	<anchor name="top.LC" x="137" y="544"/>
</glyph>
<glyph name="IJ" format="2">
	<unicode hex="0132"/>
	<advance width="706"/>
	<outline>
		<contour>
			<point x="217" y="350" type="line"/>
			<point x="217" y="715" type="line"/>
			<point x="78" y="715" type="line"/>
			<point x="78" y="350" type="line"/>
		</contour>
		<contour>
			<point x="628" y="715" type="line"/>
			<point x="493" y="715" type="line"/>
			<point x="493" y="278" type="line" smooth="yes"/>
			<point x="493" y="164"/>
			<point x="448" y="104"/>
			<point x="353" y="104" type="curve" smooth="yes"/>
			<point x="271" y="104"/>
			<point x="224" y="158"/>
			<point x="215" y="262" type="curve"/>
			<point x="79" y="246" type="line"/>
			<point x="88" y="83"/>
			<point x="193" y="-16"/>
			<point x="353" y="-16" type="curve" smooth="yes"/>
			<point x="530" y="-16"/>
			<point x="628" y="89"/>
			<point x="628" y="278" type="curve" smooth="yes"/>
		</contour>
	</outline>
	<anchor name="top.UC_1" x="149" y="750"/>
	<anchor name="top.UC_2" x="572" y="750"/>
</glyph>
<glyph name="oe" format="2">
	<unicode hex="0153"/>
	<advance width="975"/>
	<outline>
		<contour>
			<point x="45" y="252" type="curve" smooth="yes"/>
			<point x="45" y="95"/>
			<point x="151" y="-16"/>
			<point x="301" y="-16" type="curve" smooth="yes"/>
			<point x="442" y="-16"/>
			<point x="541" y="95"/>
			<point x="541" y="252" type="curve" smooth="yes"/>
			<point x="541" y="408"/>
			<point x="442" y="519"/>
			<point x="301" y="519" type="curve" smooth="yes"/>
			<point x="151" y="519"/>
			<point x="45" y="408"/>
		</contour>
		<contour>
			<point x="182" y="252" type="curve" smooth="yes"/>
			<point x="182" y="344"/>
			<point x="233" y="409"/>
			<point x="308" y="409" type="curve" smooth="yes"/>
			<point x="384" y="409"/>
			<point x="436" y="344"/>
			<point x="436" y="252" type="curve" smooth="yes"/>
			<point x="436" y="159"/>
			<point x="384" y="94"/>
			<point x="308" y="94" type="curve" smooth="yes"/>
			<point x="233" y="94"/>
			<point x="182" y="159"/>
		</contour>
		<contour>
			<point x="859" y="153" type="line"/>
			<point x="825" y="111"/>
			<point x="779" y="88"/>
			<point x="721" y="88" type="curve" smooth="yes"/>
			<point x="626" y="88"/>
			<point x="574" y="151"/>
			<point x="574" y="254" type="curve" smooth="yes"/>
			<point x="574" y="354"/>
			<point x="618" y="416"/>
			<point x="691" y="416" type="curve" smooth="yes"/>
			<point x="761" y="416"/>
			<point x="801" y="361"/>
			<point x="801" y="264" type="curve" smooth="yes"/>
			<point x="801" y="250" type="line"/>
			<point x="930" y="250" type="line"/>
			<point x="930" y="256" type="line" smooth="yes"/>
			<point x="930" y="408"/>
			<point x="831" y="519"/>
			<point x="693" y="519" type="curve" smooth="yes"/>
			<point x="553" y="519"/>
			<point x="450" y="405"/>
			<point x="450" y="251" type="curve" smooth="yes"/>
			<point x="450" y="94"/>
			<point x="558" y="-16"/>
			<point x="716" y="-16" type="curve" smooth="yes"/>
			<point x="800" y="-16"/>
			<point x="874" y="14"/>
			<point x="928" y="72" type="curve"/>
		</contour>
		<contour>
			<point x="930" y="212" type="line"/>
			<point x="930" y="256" type="line"/>
			<point x="914" y="296" type="line"/>
			<point x="525" y="296" type="line"/>
			<point x="525" y="212" type="line"/>
		</contour>
	</outline>
</glyph>
<glyph name="tbar" format="2">
	<unicode hex="0167"/>
	<advance width="403"/>
	<outline>
		<contour>
			<point x="366" y="0" type="line"/>
			<point x="366" y="108" type="line"/>
			<point x="294" y="108" type="line" smooth="yes"/>
			<point x="260" y="108"/>
			<point x="246" y="124"/>
			<point x="246" y="160" type="curve" smooth="yes"/>
			<point x="246" y="636" type="line"/>
			<point x="114" y="636" type="line"/>
			<point x="114" y="137" type="line" smooth="yes"/>
			<point x="114" y="46"/>
			<point x="158" y="0"/>
			<point x="247" y="0" type="curve" smooth="yes"/>
		</contour>
		<contour>
			<point x="361" y="397" type="line"/>
			<point x="361" y="503" type="line"/>
			<point x="34" y="503" type="line"/>
			<point x="34" y="397" type="line"/>
		</contour>
		<contour>
			<point x="361" y="220" type="line"/>
			<point x="361" y="316" type="line"/>
			<point x="34" y="316" type="line"/>
			<point x="34" y="220" type="line"/>
		</contour>
	</outline>
</glyph>
<glyph name="Ohorn" format="2">
	<unicode hex="01A0"/>
	<advance width="833"/>
	<outline>
		<contour>
			<point x="414" y="-16" type="curve" smooth="yes"/>
			<point x="622" y="-16"/>
			<point x="774" y="142"/>
			<point x="774" y="357" type="curve" smooth="yes"/>
			<point x="774" y="471"/>
			<point x="732" y="575"/>
			<point x="648" y="647" type="curve"/>
			<point x="625" y="637" type="line"/>
			<point x="629" y="635"/>
			<point x="640" y="633"/>
			<point x="648" y="633" type="curve" smooth="yes"/>
			<point x="749" y="633"/>
			<point x="821" y="692"/>
			<point x="821" y="815" type="curve" smooth="yes"/>
			<point x="821" y="864" type="line"/>
			<point x="707" y="864" type="line"/>
			<point x="707" y="807" type="line" smooth="yes"/>
			<point x="707" y="742"/>
			<point x="679" y="715"/>
			<point x="591" y="715" type="curve" smooth="yes"/>
			<point x="569" y="715"/>
			<point x="534" y="718"/>
			<point x="492" y="724" type="curve" smooth="yes"/>
			<point x="476" y="726"/>
			<point x="446" y="731"/>
			<point x="416" y="731" type="curve" smooth="yes"/>
			<point x="204" y="731"/>
			<point x="54" y="574"/>
			<point x="54" y="358" type="curve" smooth="yes"/>
			<point x="54" y="142"/>
			<point x="206" y="-16"/>
		</contour>
		<contour>
			<point x="414" y="104" type="curve" smooth="yes"/>
			<point x="287" y="104"/>
			<point x="196" y="210"/>
			<point x="196" y="358" type="curve" smooth="yes"/>
			<point x="196" y="506"/>
			<point x="287" y="611"/>
			<point x="414" y="611" type="curve" smooth="yes"/>
			<point x="542" y="611"/>
			<point x="632" y="506"/>
			<point x="632" y="358" type="curve" smooth="yes"/>
			<point x="632" y="210"/>
			<point x="542" y="104"/>
		</contour>
	</outline>
	<anchor name="top.UC" x="414" y="750"/>
	<anchor name="bottom.UC" x="414" y="-50"/>
</glyph>
<glyph name="ohorn" format="2">
	<unicode hex="01A1"/>
	<advance width="634"/>
	<outline>
		<contour>
			<point x="308" y="-16" type="curve" smooth="yes"/>
			<point x="464" y="-16"/>
			<point x="573" y="95"/>
			<point x="573" y="252" type="curve" smooth="yes"/>
			<point x="573" y="323"/>
			<point x="550" y="389"/>
			<point x="506" y="436" type="curve"/>
			<point x="500" y="425" type="line"/>
			<point x="586" y="440"/>
			<point x="628" y="491"/>
			<point x="628" y="581" type="curve" smooth="yes"/>
			<point x="628" y="621" type="line"/>
			<point x="520" y="621" type="line"/>
			<point x="520" y="577" type="line" smooth="yes"/>
			<point x="520" y="527"/>
			<point x="496" y="503"/>
			<point x="441" y="503" type="curve" smooth="yes"/>
			<point x="425" y="503"/>
			<point x="411" y="506"/>
			<point x="400" y="508" type="curve" smooth="yes"/>
			<point x="370" y="514"/>
			<point x="343" y="519"/>
			<point x="308" y="519" type="curve" smooth="yes"/>
			<point x="153" y="519"/>
			<point x="45" y="408"/>
			<point x="45" y="252" type="curve" smooth="yes"/>
			<point x="45" y="95"/>
			<point x="153" y="-16"/>
		</contour>
		<contour>
			<point x="308" y="94" type="curve" smooth="yes"/>
			<point x="233" y="94"/>
			<point x="182" y="160"/>
			<point x="182" y="252" type="curve" smooth="yes"/>
			<point x="182" y="344"/>
			<point x="233" y="409"/>
			<point x="308" y="409" type="curve" smooth="yes"/>
			<point x="384" y="409"/>
			<point x="436" y="344"/>
			<point x="436" y="252" type="curve" smooth="yes"/>
			<point x="436" y="160"/>
			<point x="384" y="94"/>
		</contour>
	</outline>
	<anchor name="bottom.LC" x="308" y="-50"/>
	<anchor name="top.LC" x="308" y="544"/>
</glyph>
<glyph name="Uhorn" format="2">
	<unicode hex="01AF"/>
	<advance width="780"/>
	<outline>
		<contour>
			<point x="367" y="-16" type="curve" smooth="yes"/>
			<point x="547" y="-16"/>
			<point x="656" y="94"/>
			<point x="656" y="282" type="curve" smooth="yes"/>
			<point x="656" y="643" type="line"/>
			<point x="642" y="630" type="line"/>
			<point x="766" y="636"/>
			<point x="829" y="696"/>
			<point x="829" y="815" type="curve" smooth="yes"/>
			<point x="829" y="864" type="line"/>
			<point x="714" y="864" type="line"/>
			<point x="714" y="807" type="line" smooth="yes"/>
			<point x="714" y="742"/>
			<point x="687" y="715"/>
			<point x="623" y="715" type="curve" smooth="yes"/>
			<point x="522" y="715" type="line"/>
			<point x="522" y="282" type="line" smooth="yes"/>
			<point x="522" y="173"/>
			<point x="464" y="105"/>
			<point x="367" y="105" type="curve" smooth="yes"/>
			<point x="270" y="105"/>
			<point x="212" y="173"/>
			<point x="212" y="282" type="curve" smooth="yes"/>
			<point x="212" y="715" type="line"/>
			<point x="77" y="715" type="line"/>
			<point x="77" y="282" type="line" smooth="yes"/>
			<point x="77" y="94"/>
			<point x="186" y="-16"/>
		</contour>
	</outline>
	<anchor name="top.UC" x="367" y="750"/>
	<anchor name="bottom.UC" x="367" y="-50"/>
</glyph>
<glyph name="uhorn" format="2">
	<unicode hex="01B0"/>
	<advance width="660"/>
	<outline>
		<contour>
			<point x="405" y="210" type="line"/>
			<point x="396" y="142"/>
			<point x="346" y="94"/>
			<point x="288" y="94" type="curve" smooth="yes"/>
			<point x="233" y="94"/>
			<point x="200" y="132"/>
			<point x="200" y="203" type="curve" smooth="yes"/>
			<point x="200" y="503" type="line"/>
			<point x="68" y="503" type="line"/>
			<point x="68" y="189" type="line" smooth="yes"/>
			<point x="68" y="56"/>
			<point x="138" y="-16"/>
			<point x="248" y="-16" type="curve" smooth="yes"/>
			<point x="360" y="-16"/>
			<point x="433" y="68"/>
			<point x="431" y="192" type="curve"/>
		</contour>
		<contour>
			<point x="399" y="0" type="line"/>
			<point x="530" y="0" type="line"/>
			<point x="530" y="434" type="line"/>
			<point x="515" y="420" type="line"/>
			<point x="627" y="428"/>
			<point x="681" y="479"/>
			<point x="681" y="581" type="curve" smooth="yes"/>
			<point x="681" y="621" type="line"/>
			<point x="573" y="621" type="line"/>
			<point x="573" y="577" type="line" smooth="yes"/>
			<point x="573" y="527"/>
			<point x="549" y="503"/>
			<point x="495" y="503" type="curve" smooth="yes"/>
			<point x="398" y="503" type="line"/>
			<point x="398" y="124" type="line"/>
			<point x="399" y="96" type="line"/>
		</contour>
	</outline>
	<anchor name="bottom.LC" x="279" y="-50"/>
	<anchor name="top.LC" x="295" y="544"/>
</glyph>
<glyph name="gravecomb" format="2">
	<unicode hex="0300"/>
	<outline>
		<contour>
			<point x="-44" y="587" type="line"/>
			<point x="67" y="587" type="line"/>
			<point x="-44" y="761" type="line"/>
			<point x="-189" y="761" type="line"/>
		</contour>
	</outline>
	<anchor name="_top.LC" x="0" y="544"/>
</glyph>
<glyph name="circumflexcomb" format="2">
	<unicode hex="0302"/>
	<outline>
		<contour>
			<point x="193" y="587" type="line"/>
			<point x="72" y="761" type="line"/>
			<point x="-72" y="761" type="line"/>
			<point x="-193" y="587" type="line"/>
			<point x="-75" y="587" type="line"/>
			<point x="50" y="745" type="line"/>
			<point x="-53" y="745" type="line"/>
			<point x="72" y="587" type="line"/>
		</contour>
	</outline>
	<anchor name="_top.LC" x="0" y="544"/>
	<anchor name="top.LC" x="196" y="662"/>
</glyph>
<glyph name="tildecomb" format="2">
	<unicode hex="0303"/>
	<outline>
		<contour>
			<point x="104" y="739" type="line"/>
			<point x="97" y="697"/>
			<point x="85" y="677"/>
			<point x="67" y="677" type="curve" smooth="yes"/>
			<point x="55" y="677"/>
			<point x="41" y="686"/>
			<point x="22" y="700" type="curve" smooth="yes"/>
			<point x="-4" y="719"/>
			<point x="-37" y="737"/>
			<point x="-73" y="737" type="curve" smooth="yes"/>
			<point x="-128" y="737"/>
			<point x="-173" y="696"/>
			<point x="-188" y="620" type="curve"/>
			<point x="-105" y="585" type="line"/>
			<point x="-98" y="627"/>
			<point x="-85" y="647"/>
			<point x="-67" y="647" type="curve" smooth="yes"/>
			<point x="-55" y="647"/>
			<point x="-41" y="638"/>
			<point x="-22" y="624" type="curve" smooth="yes"/>
			<point x="4" y="605"/>
			<point x="36" y="586"/>
			<point x="73" y="586" type="curve" smooth="yes"/>
			<point x="128" y="586"/>
			<point x="173" y="628"/>
			<point x="188" y="704" type="curve"/>
		</contour>
	</outline>
	<anchor name="_top.LC" x="0" y="544"/>
</glyph>
<glyph name="brevecomb" format="2">
	<unicode hex="0306"/>
	<outline>
		<contour>
			<point x="0" y="585" type="curve"/>
			<point x="87" y="585"/>
			<point x="159" y="645"/>
			<point x="169" y="748" type="curve"/>
			<point x="69" y="748" type="line"/>
			<point x="62" y="695"/>
			<point x="34" y="673"/>
			<point x="0" y="673" type="curve" smooth="yes"/>
			<point x="-34" y="673"/>
			<point x="-61" y="695"/>
			<point x="-69" y="748" type="curve"/>
			<point x="-169" y="748" type="line"/>
			<point x="-159" y="645"/>
			<point x="-87" y="585"/>
		</contour>
	</outline>
	<anchor name="_top.LC" x="0" y="544"/>
	<anchor name="top.LC" x="0" y="720"/>
</glyph>
<glyph name="dotaccentcomb" format="2">
	<unicode hex="0307"/>
	<outline>
		<contour>
			<point x="0" y="592" type="curve" smooth="yes"/>
			<point x="44" y="592"/>
			<point x="78" y="625"/>
			<point x="78" y="667" type="curve" smooth="yes"/>
			<point x="78" y="710"/>
			<point x="44" y="743"/>
			<point x="0" y="743" type="curve" smooth="yes"/>
			<point x="-44" y="743"/>
			<point x="-78" y="710"/>
			<point x="-78" y="667" type="curve" smooth="yes"/>
			<point x="-78" y="625"/>
			<point x="-44" y="592"/>
		</contour>
	</outline>
	<anchor name="_top.LC" x="0" y="544"/>
</glyph>
<glyph name="dieresiscomb" format="2">
	<unicode hex="0308"/>
	<outline>
		<contour>
			<point x="111" y="592" type="curve" smooth="yes"/>
			<point x="155" y="592"/>
			<point x="189" y="625"/>
			<point x="189" y="667" type="curve" smooth="yes"/>
			<point x="189" y="710"/>
			<point x="155" y="743"/>
			<point x="111" y="743" type="curve" smooth="yes"/>
			<point x="67" y="743"/>
			<point x="33" y="710"/>
			<point x="33" y="667" type="curve" smooth="yes"/>
			<point x="33" y="625"/>
			<point x="67" y="592"/>
		</contour>
		<contour>
			<point x="-110" y="592" type="curve" smooth="yes"/>
			<point x="-67" y="592"/>
			<point x="-32" y="625"/>
			<point x="-32" y="667" type="curve" smooth="yes"/>
			<point x="-32" y="710"/>
			<point x="-67" y="743"/>
			<point x="-110" y="743" type="curve" smooth="yes"/>
			<point x="-154" y="743"/>
			<point x="-188" y="710"/>
			<point x="-188" y="667" type="curve" smooth="yes"/>
			<point x="-188" y="625"/>
			<point x="-154" y="592"/>
		</contour>
	</outline>
	<anchor name="_top.LC" x="0" y="544"/>
</glyph>
<glyph name="hookabovecomb" format="2">
	<unicode hex="0309"/>
	<outline>
		<contour>
			<point x="-5" y="559" type="line"/>
			<point x="71" y="589"/>
			<point x="112" y="634"/>
			<point x="112" y="687" type="curve" smooth="yes"/>
			<point x="112" y="744"/>
			<point x="66" y="786"/>
			<point x="0" y="786" type="curve" smooth="yes"/>
			<point x="-40" y="786"/>
			<point x="-75" y="771"/>
			<point x="-105" y="740" type="curve"/>
			<point x="-64" y="685" type="line"/>
			<point x="-43" y="701"/>
			<point x="-27" y="708"/>
			<point x="-12" y="708" type="curve" smooth="yes"/>
			<point x="10" y="708"/>
			<point x="22" y="696"/>
			<point x="22" y="677" type="curve" smooth="yes"/>
			<point x="22" y="655"/>
			<point x="5" y="637"/>
			<point x="-36" y="617" type="curve"/>
		</contour>
	</outline>
	<anchor name="_top.LC" x="0" y="544"/>
</glyph>
<glyph name="hungarumlautcomb" format="2">
	<unicode hex="030B"/>
	<outline>
		<contour>
			<point x="99" y="761" type="line"/>
			<point x="-46" y="761" type="line"/>
			<point x="-164" y="587" type="line"/>
			<point x="-46" y="587" type="line"/>
		</contour>
		<contour>
			<point x="305" y="761" type="line"/>
			<point x="159" y="761" type="line"/>
			<point x="21" y="587" type="line"/>
			<point x="139" y="587" type="line"/>
		</contour>
	</outline>
	<anchor name="_top.LC" x="0" y="544"/>
</glyph>
<glyph name="caroncomb" format="2">
	<unicode hex="030C"/>
	<outline>
		<contour>
			<point x="-193" y="761" type="line"/>
			<point x="-72" y="587" type="line"/>
			<point x="72" y="587" type="line"/>
			<point x="193" y="761" type="line"/>
			<point x="75" y="761" type="line"/>
			<point x="-50" y="603" type="line"/>
			<point x="53" y="603" type="line"/>
			<point x="-72" y="761" type="line"/>
		</contour>
	</outline>
	<anchor name="_top.LC" x="0" y="544"/>
</glyph>
<glyph name="commaaboverightcomb" format="2">
	<unicode hex="0315"/>
	<outline>
		<contour>
			<point x="0" y="491" type="line"/>
			<point x="40" y="534"/>
			<point x="76" y="602"/>
			<point x="76" y="651" type="curve" smooth="yes"/>
			<point x="76" y="698"/>
			<point x="47" y="731"/>
			<point x="4" y="731" type="curve" smooth="yes"/>
			<point x="-34" y="731"/>
			<point x="-63" y="701"/>
			<point x="-63" y="663" type="curve" smooth="yes"/>
			<point x="-63" y="625"/>
			<point x="-33" y="595"/>
			<point x="7" y="595" type="curve"/>
			<point x="-11" y="618" type="line"/>
			<point x="-10" y="584"/>
			<point x="-33" y="531"/>
			<point x="-68" y="491" type="curve"/>
		</contour>
	</outline>
	<anchor name="_top_right" x="0" y="540"/>
</glyph>
<glyph name="horncomb" format="2">
	<unicode hex="031B"/>
	<outline>
		<contour>
			<point x="0" y="419" type="line"/>
			<point x="52" y="419" type="line" smooth="yes"/>
			<point x="182" y="419"/>
			<point x="244" y="472"/>
			<point x="244" y="581" type="curve" smooth="yes"/>
			<point x="244" y="621" type="line"/>
			<point x="136" y="621" type="line"/>
			<point x="136" y="577" type="line" smooth="yes"/>
			<point x="136" y="527"/>
			<point x="112" y="504"/>
			<point x="58" y="504" type="curve" smooth="yes"/>
			<point x="0" y="504" type="line"/>
		</contour>
	</outline>
	<anchor name="_topright.LC" x="0" y="544"/>
</glyph>
<glyph name="commabelowcomb" format="2">
	<unicode hex="0326"/>
	<outline>
		<contour>
			<point x="-9" y="-292" type="line"/>
			<point x="26" y="-254"/>
			<point x="59" y="-194"/>
			<point x="59" y="-150" type="curve" smooth="yes"/>
			<point x="59" y="-107"/>
			<point x="32" y="-78"/>
			<point x="-7" y="-78" type="curve" smooth="yes"/>
			<point x="-42" y="-78"/>
			<point x="-69" y="-105"/>
			<point x="-69" y="-139" type="curve" smooth="yes"/>
			<point x="-69" y="-173"/>
			<point x="-40" y="-200"/>
			<point x="-3" y="-200" type="curve"/>
			<point x="-23" y="-179" type="line"/>
			<point x="-21" y="-208"/>
			<point x="-43" y="-255"/>
			<point x="-74" y="-292" type="curve"/>
		</contour>
	</outline>
	<anchor name="_bottom.LC" x="0" y="-50"/>
</glyph>
<glyph name="cedillacomb" format="2">
	<unicode hex="0327"/>
	<outline>
		<contour>
			<point x="-140" y="-222" type="line"/>
			<point x="-111" y="-246"/>
			<point x="-74" y="-261"/>
			<point x="-29" y="-261" type="curve" smooth="yes"/>
			<point x="59" y="-261"/>
			<point x="113" y="-211"/>
			<point x="113" y="-146" type="curve" smooth="yes"/>
			<point x="113" y="-81"/>
			<point x="43" y="-39"/>
			<point x="-37" y="-42" type="curve"/>
			<point x="0" y="-86" type="line"/>
			<point x="27" y="10" type="line"/>
			<point x="-46" y="10" type="line"/>
			<point x="-82" y="-115" type="line"/>
			<point x="-64" y="-110"/>
			<point x="-48" y="-109"/>
			<point x="-36" y="-109" type="curve" smooth="yes"/>
			<point x="0" y="-109"/>
			<point x="23" y="-124"/>
			<point x="23" y="-148" type="curve" smooth="yes"/>
			<point x="23" y="-171"/>
			<point x="3" y="-185"/>
			<point x="-28" y="-185" type="curve" smooth="yes"/>
			<point x="-55" y="-185"/>
			<point x="-82" y="-174"/>
			<point x="-100" y="-158" type="curve"/>
		</contour>
	</outline>
	<anchor name="_bottom.LC" x="0" y="-50"/>
</glyph>
<glyph name="Ieukrain" format="2">
	<unicode hex="0404"/>
	<advance width="723"/>
	<outline>
		<contour>
			<point x="408" y="-16" type="curve" smooth="yes"/>
			<point x="519" y="-16"/>
			<point x="622" y="34"/>
			<point x="683" y="117" type="curve"/>
			<point x="595" y="211" type="line"/>
			<point x="551" y="143"/>
			<point x="485" y="104"/>
			<point x="411" y="104" type="curve" smooth="yes"/>
			<point x="282" y="104"/>
			<point x="189" y="211"/>
			<point x="189" y="358" type="curve" smooth="yes"/>
			<point x="189" y="504"/>
			<point x="282" y="611"/>
			<point x="411" y="611" type="curve" smooth="yes"/>
			<point x="486" y="611"/>
			<point x="551" y="572"/>
			<point x="595" y="504" type="curve"/>
			<point x="683" y="598" type="line"/>
			<point x="621" y="683"/>
			<point x="522" y="731"/>
			<point x="412" y="731" type="curve" smooth="yes"/>
			<point x="205" y="731"/>
			<point x="54" y="573"/>
			<point x="54" y="358" type="curve" smooth="yes"/>
			<point x="54" y="140"/>
			<point x="201" y="-16"/>
		</contour>
		<contour>
			<point x="134" y="310" type="line"/>
			<point x="531" y="310" type="line"/>
			<point x="531" y="425" type="line"/>
			<point x="134" y="425" type="line"/>
		</contour>
	</outline>
</glyph>
<glyph name="Lje" format="2">
	<unicode hex="0409"/>
	<advance width="1058"/>
	<outline>
		<contour>
			<point x="31" y="0" type="line"/>
			<point x="113" y="0" type="line" smooth="yes"/>
			<point x="214" y="0"/>
			<point x="258" y="46"/>
			<point x="272" y="163" type="curve" smooth="yes"/>
			<point x="327" y="639" type="line"/>
			<point x="282" y="599" type="line"/>
			<point x="550" y="599" type="line"/>
			<point x="504" y="644" type="line"/>
			<point x="504" y="0" type="line"/>
			<point x="782" y="0" type="line" smooth="yes"/>
			<point x="927" y="0"/>
			<point x="1023" y="90"/>
			<point x="1023" y="225" type="curve" smooth="yes"/>
			<point x="1023" y="357"/>
			<point x="928" y="444"/>
			<point x="782" y="444" type="curve" smooth="yes"/>
			<point x="567" y="444" type="line"/>
			<point x="567" y="330" type="line"/>
			<point x="782" y="330" type="line" smooth="yes"/>
			<point x="847" y="330"/>
			<point x="886" y="289"/>
			<point x="886" y="226" type="curve" smooth="yes"/>
			<point x="886" y="156"/>
			<point x="847" y="115"/>
			<point x="782" y="115" type="curve" smooth="yes"/>
			<point x="595" y="115" type="line"/>
			<point x="639" y="71" type="line"/>
			<point x="639" y="715" type="line"/>
			<point x="201" y="715" type="line"/>
			<point x="141" y="168" type="line" smooth="yes"/>
			<point x="137" y="128"/>
			<point x="125" y="116"/>
			<point x="92" y="116" type="curve" smooth="yes"/>
			<point x="31" y="116" type="line"/>
		</contour>
	</outline>
</glyph>
<glyph name="Nje" format="2">
	<unicode hex="040A"/>
	<advance width="1076"/>
	<outline>
		<contour>
			<point x="89" y="0" type="line"/>
			<point x="224" y="0" type="line"/>
			<point x="224" y="715" type="line"/>
			<point x="89" y="715" type="line"/>
		</contour>
		<contour>
			<point x="165" y="316" type="line"/>
			<point x="557" y="316" type="line"/>
			<point x="557" y="431" type="line"/>
			<point x="165" y="431" type="line"/>
		</contour>
		<contour>
			<point x="511" y="0" type="line"/>
			<point x="799" y="0" type="line" smooth="yes"/>
			<point x="945" y="0"/>
			<point x="1042" y="88"/>
			<point x="1042" y="217" type="curve" smooth="yes"/>
			<point x="1042" y="346"/>
			<point x="946" y="431"/>
			<point x="799" y="431" type="curve" smooth="yes"/>
			<point x="572" y="431" type="line"/>
			<point x="572" y="316" type="line"/>
			<point x="799" y="316" type="line" smooth="yes"/>
			<point x="864" y="316"/>
			<point x="905" y="279"/>
			<point x="905" y="217" type="curve" smooth="yes"/>
			<point x="905" y="153"/>
			<point x="864" y="115"/>
			<point x="799" y="115" type="curve" smooth="yes"/>
			<point x="599" y="115" type="line"/>
			<point x="646" y="70" type="line"/>
			<point x="646" y="715" type="line"/>
			<point x="511" y="715" type="line"/>
		</contour>
	</outline>
</glyph>
<glyph name="Tshe" format="2">
	<unicode hex="040B"/>
	<advance width="736"/>
	<outline>
		<contour>
			<point x="19" y="599" type="line"/>
			<point x="544" y="599" type="line"/>
			<point x="544" y="715" type="line"/>
			<point x="19" y="715" type="line"/>
		</contour>
		<contour>
			<point x="554" y="0" type="line"/>
			<point x="689" y="0" type="line"/>
			<point x="689" y="225" type="line" smooth="yes"/>
			<point x="689" y="372"/>
			<point x="604" y="453"/>
			<point x="450" y="453" type="curve" smooth="yes"/>
			<point x="371" y="453"/>
			<point x="296" y="432"/>
			<point x="238" y="394" type="curve"/>
			<point x="263" y="296" type="line"/>
			<point x="317" y="321"/>
			<point x="374" y="334"/>
			<point x="422" y="334" type="curve" smooth="yes"/>
			<point x="510" y="334"/>
			<point x="554" y="292"/>
			<point x="554" y="208" type="curve" smooth="yes"/>
		</contour>
		<contour>
			<point x="153" y="0" type="line"/>
			<point x="288" y="0" type="line"/>
			<point x="288" y="663" type="line"/>
			<point x="153" y="663" type="line"/>
		</contour>
	</outline>
</glyph>
<glyph name="Dzhe" format="2">
	<unicode hex="040F"/>
	<advance width="745"/>
	<outline>
		<contour>
			<point x="89" y="0" type="line"/>
			<point x="657" y="0" type="line"/>
			<point x="657" y="715" type="line"/>
			<point x="522" y="715" type="line"/>
			<point x="522" y="91" type="line"/>
			<point x="547" y="116" type="line"/>
			<point x="199" y="116" type="line"/>
			<point x="224" y="91" type="line"/>
			<point x="224" y="715" type="line"/>
			<point x="89" y="715" type="line"/>
		</contour>
		<contour>
			<point x="309" y="-174" type="line"/>
			<point x="436" y="-174" type="line"/>
			<point x="436" y="73" type="line"/>
			<point x="309" y="73" type="line"/>
		</contour>
	</outline>
</glyph>
<glyph name="Be" format="2">
	<unicode hex="0411"/>
	<advance width="662"/>
	<outline>
		<contour>
			<point x="89" y="0" type="line"/>
			<point x="377" y="0" type="line" smooth="yes"/>
			<point x="523" y="0"/>
			<point x="620" y="87"/>
			<point x="620" y="217" type="curve" smooth="yes"/>
			<point x="620" y="345"/>
			<point x="524" y="428"/>
			<point x="377" y="428" type="curve" smooth="yes"/>
			<point x="170" y="428" type="line"/>
			<point x="170" y="315" type="line"/>
			<point x="377" y="315" type="line" smooth="yes"/>
			<point x="443" y="315"/>
			<point x="483" y="279"/>
			<point x="483" y="217" type="curve" smooth="yes"/>
			<point x="483" y="151"/>
			<point x="443" y="113"/>
			<point x="377" y="113" type="curve" smooth="yes"/>
			<point x="199" y="113" type="line"/>
			<point x="224" y="88" type="line"/>
			<point x="224" y="624" type="line"/>
			<point x="199" y="600" type="line"/>
			<point x="570" y="600" type="line"/>
			<point x="570" y="715" type="line"/>
			<point x="89" y="715" type="line"/>
		</contour>
	</outline>
</glyph>
<glyph name="De" format="2">
	<unicode hex="0414"/>
	<advance width="786"/>
	<outline>
		<contour>
			<point x="31" y="-174" type="line"/>
			<point x="158" y="-174" type="line"/>
			<point x="158" y="25" type="line"/>
			<point x="133" y="0" type="line"/>
			<point x="638" y="0" type="line"/>
			<point x="613" y="25" type="line"/>
			<point x="613" y="-174" type="line"/>
			<point x="740" y="-174" type="line"/>
			<point x="740" y="116" type="line"/>
			<point x="218" y="116" type="line"/>
			<point x="226" y="97" type="line"/>
			<point x="264" y="131"/>
			<point x="280" y="188"/>
			<point x="289" y="261" type="curve" smooth="yes"/>
			<point x="331" y="624" type="line"/>
			<point x="303" y="599" type="line"/>
			<point x="551" y="599" type="line"/>
			<point x="526" y="624" type="line"/>
			<point x="526" y="85" type="line"/>
			<point x="660" y="85" type="line"/>
			<point x="660" y="715" type="line"/>
			<point x="212" y="715" type="line"/>
			<point x="163" y="276" type="line" smooth="yes"/>
			<point x="152" y="179"/>
			<point x="136" y="116"/>
			<point x="99" y="116" type="curve"/>
			<point x="31" y="116" type="line"/>
		</contour>
	</outline>
</glyph>
<glyph name="Zhe" format="2">
	<unicode hex="0416"/>
	<advance width="1079"/>
	<outline>
		<contour>
			<point x="24" y="0" type="line"/>
			<point x="198" y="0" type="line"/>
			<point x="499" y="371" type="line"/>
			<point x="484" y="371" type="line"/>
			<point x="213" y="715" type="line"/>
			<point x="49" y="715" type="line"/>
			<point x="331" y="370" type="line"/>
		</contour>
		<contour>
			<point x="472" y="0" type="line"/>
			<point x="607" y="0" type="line"/>
			<point x="607" y="715" type="line"/>
			<point x="472" y="715" type="line"/>
		</contour>
		<contour>
			<point x="880" y="0" type="line"/>
			<point x="1054" y="0" type="line"/>
			<point x="748" y="370" type="line"/>
			<point x="1030" y="715" type="line"/>
			<point x="866" y="715" type="line"/>
			<point x="595" y="371" type="line"/>
			<point x="580" y="371" type="line"/>
		</contour>
	</outline>
</glyph>
<glyph name="Ze" format="2">
	<unicode hex="0417"/>
	<advance width="655"/>
	<outline>
		<contour>
			<point x="323" y="-16" type="curve" smooth="yes"/>
			<point x="484" y="-16"/>
			<point x="599" y="73"/>
			<point x="599" y="207" type="curve" smooth="yes"/>
			<point x="599" y="294"/>
			<point x="541" y="366"/>
			<point x="447" y="386" type="curve"/>
			<point x="448" y="370" type="line"/>
			<point x="530" y="391"/>
			<point x="580" y="458"/>
			<point x="580" y="536" type="curve" smooth="yes"/>
			<point x="580" y="650"/>
			<point x="479" y="731"/>
			<point x="323" y="731" type="curve" smooth="yes"/>
			<point x="207" y="731"/>
			<point x="118" y="688"/>
			<point x="50" y="598" type="curve"/>
			<point x="135" y="510" type="line"/>
			<point x="182" y="582"/>
			<point x="242" y="611"/>
			<point x="315" y="611" type="curve" smooth="yes"/>
			<point x="395" y="611"/>
			<point x="443" y="575"/>
			<point x="443" y="516" type="curve" smooth="yes"/>
			<point x="443" y="457"/>
			<point x="399" y="425"/>
			<point x="329" y="425" type="curve" smooth="yes"/>
			<point x="196" y="425" type="line"/>
			<point x="196" y="310" type="line"/>
			<point x="329" y="310" type="line" smooth="yes"/>
			<point x="413" y="310"/>
			<point x="463" y="279"/>
			<point x="463" y="215" type="curve" smooth="yes"/>
			<point x="463" y="147"/>
			<point x="407" y="104"/>
			<point x="321" y="104" type="curve" smooth="yes"/>
			<point x="238" y="104"/>
			<point x="164" y="138"/>
			<point x="117" y="206" type="curve"/>
			<point x="33" y="115" type="line"/>
			<point x="98" y="29"/>
			<point x="195" y="-16"/>
		</contour>
	</outline>
</glyph>
<glyph name="Pe" format="2">
	<unicode hex="041F"/>
	<advance width="751"/>
	<outline>
		<contour>
			<point x="89" y="0" type="line"/>
			<point x="224" y="0" type="line"/>
			<point x="224" y="690" type="line"/>
			<point x="149" y="599" type="line"/>
			<point x="597" y="599" type="line"/>
			<point x="527" y="690" type="line"/>
			<point x="527" y="0" type="line"/>
			<point x="662" y="0" type="line"/>
			<point x="662" y="715" type="line"/>
			<point x="89" y="715" type="line"/>
		</contour>
	</outline>
</glyph>
<glyph name="Ucyr" format="2">
	<unicode hex="0423"/>
	<advance width="655"/>
	<outline>
		<contour>
			<point x="71" y="0" type="line"/>
			<point x="169" y="0" type="line" smooth="yes"/>
			<point x="272" y="0"/>
			<point x="332" y="43"/>
			<point x="382" y="152" type="curve" smooth="yes"/>
			<point x="637" y="715" type="line"/>
			<point x="500" y="715" type="line"/>
			<point x="293" y="236" type="line" smooth="yes"/>
			<point x="254" y="143"/>
			<point x="224" y="116"/>
			<point x="161" y="116" type="curve" smooth="yes"/>
			<point x="71" y="116" type="line"/>
		</contour>
		<contour>
			<point x="278" y="157" type="line"/>
			<point x="379" y="222" type="line"/>
			<point x="155" y="715" type="line"/>
			<point x="18" y="715" type="line"/>
		</contour>
	</outline>
	<anchor name="top.UC" x="326" y="750"/>
</glyph>
<glyph name="Ef" format="2">
	<unicode hex="0424"/>
	<advance width="851"/>
	<outline>
		<contour>
			<point x="425" y="71" type="curve" smooth="yes"/>
			<point x="670" y="71"/>
			<point x="800" y="171"/>
			<point x="800" y="358" type="curve" smooth="yes"/>
			<point x="800" y="544"/>
			<point x="669" y="644"/>
			<point x="425" y="644" type="curve" smooth="yes"/>
			<point x="182" y="644"/>
			<point x="52" y="544"/>
			<point x="52" y="358" type="curve" smooth="yes"/>
			<point x="52" y="171"/>
			<point x="181" y="71"/>
		</contour>
		<contour>
			<point x="425" y="184" type="curve" smooth="yes"/>
			<point x="258" y="184"/>
			<point x="185" y="237"/>
			<point x="185" y="358" type="curve" smooth="yes"/>
			<point x="185" y="478"/>
			<point x="259" y="531"/>
			<point x="425" y="531" type="curve" smooth="yes"/>
			<point x="593" y="531"/>
			<point x="666" y="478"/>
			<point x="666" y="358" type="curve" smooth="yes"/>
			<point x="666" y="237"/>
			<point x="592" y="184"/>
		</contour>
		<contour>
			<point x="358" y="-33" type="line"/>
			<point x="493" y="-33" type="line"/>
			<point x="493" y="113" type="line"/>
			<point x="489" y="157" type="line"/>
			<point x="489" y="564" type="line"/>
			<point x="493" y="603" type="line"/>
			<point x="493" y="748" type="line"/>
			<point x="358" y="748" type="line"/>
			<point x="358" y="603" type="line"/>
			<point x="363" y="564" type="line"/>
			<point x="363" y="157" type="line"/>
			<point x="358" y="113" type="line"/>
		</contour>
	</outline>
</glyph>
<glyph name="Tse" format="2">
	<unicode hex="0426"/>
	<advance width="784"/>
	<outline>
		<contour>
			<point x="658" y="71" type="line"/>
			<point x="658" y="715" type="line"/>
			<point x="523" y="715" type="line"/>
			<point x="523" y="71" type="line"/>
		</contour>
		<contour>
			<point x="611" y="-174" type="line"/>
			<point x="738" y="-174" type="line"/>
			<point x="738" y="116" type="line"/>
			<point x="199" y="116" type="line"/>
			<point x="224" y="91" type="line"/>
			<point x="224" y="715" type="line"/>
			<point x="89" y="715" type="line"/>
			<point x="89" y="0" type="line"/>
			<point x="636" y="0" type="line"/>
			<point x="611" y="25" type="line"/>
		</contour>
	</outline>
</glyph>
<glyph name="Che" format="2">
	<unicode hex="0427"/>
	<advance width="676"/>
	<outline>
		<contour>
			<point x="452" y="0" type="line"/>
			<point x="587" y="0" type="line"/>
			<point x="587" y="715" type="line"/>
			<point x="452" y="715" type="line"/>
		</contour>
		<contour>
			<point x="291" y="253" type="curve" smooth="yes"/>
			<point x="376" y="253"/>
			<point x="451" y="281"/>
			<point x="500" y="331" type="curve"/>
			<point x="466" y="414" type="line"/>
			<point x="425" y="386"/>
			<point x="368" y="370"/>
			<point x="315" y="370" type="curve" smooth="yes"/>
			<point x="228" y="370"/>
			<point x="185" y="411"/>
			<point x="185" y="493" type="curve" smooth="yes"/>
			<point x="185" y="715" type="line"/>
			<point x="50" y="715" type="line"/>
			<point x="50" y="477" type="line" smooth="yes"/>
			<point x="50" y="335"/>
			<point x="139" y="253"/>
		</contour>
	</outline>
</glyph>
<glyph name="Sha" format="2">
	<unicode hex="0428"/>
	<advance width="1078"/>
	<outline>
		<contour>
			<point x="89" y="0" type="line"/>
			<point x="989" y="0" type="line"/>
			<point x="989" y="715" type="line"/>
			<point x="854" y="715" type="line"/>
			<point x="854" y="68" type="line"/>
			<point x="897" y="116" type="line"/>
			<point x="553" y="116" type="line"/>
			<point x="606" y="69" type="line"/>
			<point x="606" y="715" type="line"/>
			<point x="471" y="715" type="line"/>
			<point x="471" y="69" type="line"/>
			<point x="525" y="116" type="line"/>
			<point x="184" y="116" type="line"/>
			<point x="224" y="68" type="line"/>
			<point x="224" y="715" type="line"/>
			<point x="89" y="715" type="line"/>
		</contour>
	</outline>
</glyph>
<glyph name="Shcha" format="2">
	<unicode hex="0429"/>
	<advance width="1115"/>
	<outline>
		<contour>
			<point x="606" y="61" type="line"/>
			<point x="606" y="715" type="line"/>
			<point x="471" y="715" type="line"/>
			<point x="471" y="61" type="line"/>
		</contour>
		<contour>
			<point x="989" y="65" type="line"/>
			<point x="989" y="715" type="line"/>
			<point x="854" y="715" type="line"/>
			<point x="854" y="65" type="line"/>
		</contour>
		<contour>
			<point x="942" y="-174" type="line"/>
			<point x="1070" y="-174" type="line"/>
			<point x="1070" y="116" type="line"/>
			<point x="199" y="116" type="line"/>
			<point x="224" y="91" type="line"/>
			<point x="224" y="715" type="line"/>
			<point x="89" y="715" type="line"/>
			<point x="89" y="0" type="line"/>
			<point x="967" y="0" type="line"/>
			<point x="942" y="25" type="line"/>
		</contour>
	</outline>
</glyph>
<glyph name="Hard" format="2">
	<unicode hex="042A"/>
	<advance width="718"/>
	<outline>
		<contour>
			<point x="153" y="0" type="line"/>
			<point x="441" y="0" type="line" smooth="yes"/>
			<point x="587" y="0"/>
			<point x="684" y="90"/>
			<point x="684" y="224" type="curve" smooth="yes"/>
			<point x="684" y="356"/>
			<point x="588" y="444"/>
			<point x="441" y="444" type="curve" smooth="yes"/>
			<point x="231" y="444" type="line"/>
			<point x="231" y="330" type="line"/>
			<point x="441" y="330" type="line" smooth="yes"/>
			<point x="507" y="330"/>
			<point x="547" y="289"/>
			<point x="547" y="224" type="curve" smooth="yes"/>
			<point x="547" y="155"/>
			<point x="507" y="115"/>
			<point x="441" y="115" type="curve" smooth="yes"/>
			<point x="263" y="115" type="line"/>
			<point x="288" y="90" type="line"/>
			<point x="288" y="715" type="line"/>
			<point x="19" y="715" type="line"/>
			<point x="19" y="599" type="line"/>
			<point x="178" y="599" type="line"/>
			<point x="153" y="624" type="line"/>
		</contour>
	</outline>
</glyph>
<glyph name="Soft" format="2">
	<unicode hex="042C"/>
	<advance width="654"/>
	<outline>
		<contour>
			<point x="89" y="0" type="line"/>
			<point x="377" y="0" type="line" smooth="yes"/>
			<point x="523" y="0"/>
			<point x="620" y="90"/>
			<point x="620" y="224" type="curve" smooth="yes"/>
			<point x="620" y="356"/>
			<point x="524" y="444"/>
			<point x="377" y="444" type="curve" smooth="yes"/>
			<point x="151" y="444" type="line"/>
			<point x="151" y="330" type="line"/>
			<point x="377" y="330" type="line" smooth="yes"/>
			<point x="443" y="330"/>
			<point x="483" y="289"/>
			<point x="483" y="224" type="curve" smooth="yes"/>
			<point x="483" y="155"/>
			<point x="443" y="115"/>
			<point x="377" y="115" type="curve" smooth="yes"/>
			<point x="209" y="115" type="line"/>
			<point x="224" y="99" type="line"/>
			<point x="224" y="715" type="line"/>
			<point x="89" y="715" type="line"/>
		</contour>
	</outline>
</glyph>
<glyph name="Ecyr" format="2">
	<unicode hex="042D"/>
	<advance width="723"/>
	<outline>
		<contour>
			<point x="317" y="-16" type="curve" smooth="yes"/>
			<point x="524" y="-16"/>
			<point x="669" y="134"/>
			<point x="669" y="358" type="curve" smooth="yes"/>
			<point x="669" y="579"/>
			<point x="520" y="731"/>
			<point x="312" y="731" type="curve" smooth="yes"/>
			<point x="203" y="731"/>
			<point x="102" y="683"/>
			<point x="40" y="598" type="curve"/>
			<point x="128" y="504" type="line"/>
			<point x="171" y="572"/>
			<point x="239" y="611"/>
			<point x="314" y="611" type="curve" smooth="yes"/>
			<point x="443" y="611"/>
			<point x="534" y="510"/>
			<point x="534" y="358" type="curve" smooth="yes"/>
			<point x="534" y="205"/>
			<point x="443" y="104"/>
			<point x="314" y="104" type="curve" smooth="yes"/>
			<point x="240" y="104"/>
			<point x="172" y="143"/>
			<point x="128" y="211" type="curve"/>
			<point x="40" y="117" type="line"/>
			<point x="101" y="34"/>
			<point x="206" y="-16"/>
		</contour>
		<contour>
			<point x="192" y="310" type="line"/>
			<point x="589" y="310" type="line"/>
			<point x="589" y="425" type="line"/>
			<point x="192" y="425" type="line"/>
		</contour>
	</outline>
</glyph>
<glyph name="Yu" format="2">
	<unicode hex="042E"/>
	<advance width="1054"/>
	<outline>
		<contour>
			<point x="89" y="0" type="line"/>
			<point x="224" y="0" type="line"/>
			<point x="224" y="715" type="line"/>
			<point x="89" y="715" type="line"/>
		</contour>
		<contour>
			<point x="660" y="-16" type="curve" smooth="yes"/>
			<point x="860" y="-16"/>
			<point x="1000" y="139"/>
			<point x="1000" y="358" type="curve" smooth="yes"/>
			<point x="1000" y="576"/>
			<point x="860" y="731"/>
			<point x="660" y="731" type="curve" smooth="yes"/>
			<point x="460" y="731"/>
			<point x="321" y="577"/>
			<point x="321" y="358" type="curve" smooth="yes"/>
			<point x="321" y="139"/>
			<point x="460" y="-16"/>
		</contour>
		<contour>
			<point x="660" y="104" type="curve" smooth="yes"/>
			<point x="543" y="104"/>
			<point x="460" y="207"/>
			<point x="460" y="358" type="curve" smooth="yes"/>
			<point x="460" y="508"/>
			<point x="543" y="611"/>
			<point x="660" y="611" type="curve" smooth="yes"/>
			<point x="778" y="611"/>
			<point x="860" y="509"/>
			<point x="860" y="358" type="curve" smooth="yes"/>
			<point x="860" y="207"/>
			<point x="778" y="104"/>
		</contour>
		<contour>
			<point x="166" y="310" type="line"/>
			<point x="410" y="310" type="line"/>
			<point x="410" y="425" type="line"/>
			<point x="166" y="425" type="line"/>
		</contour>
	</outline>
</glyph>
<glyph name="Ya" format="2">
	<unicode hex="042F"/>
	<advance width="684"/>
	<outline>
		<contour>
			<point x="460" y="0" type="line"/>
			<point x="595" y="0" type="line"/>
			<point x="595" y="715" type="line"/>
			<point x="321" y="715" type="line" smooth="yes"/>
			<point x="176" y="715"/>
			<point x="78" y="627"/>
			<point x="78" y="496" type="curve" smooth="yes"/>
			<point x="78" y="366"/>
			<point x="176" y="278"/>
			<point x="321" y="278" type="curve" smooth="yes"/>
			<point x="476" y="278" type="line"/>
			<point x="476" y="392" type="line"/>
			<point x="321" y="392" type="line" smooth="yes"/>
			<point x="256" y="392"/>
			<point x="215" y="431"/>
			<point x="215" y="496" type="curve" smooth="yes"/>
			<point x="215" y="561"/>
			<point x="256" y="600"/>
			<point x="321" y="600" type="curve" smooth="yes"/>
			<point x="460" y="600" type="line"/>
		</contour>
		<contour>
			<point x="28" y="0" type="line"/>
			<point x="186" y="0" type="line"/>
			<point x="398" y="333" type="line"/>
			<point x="250" y="333" type="line"/>
		</contour>
	</outline>
</glyph>
<glyph name="ve" format="2">
	<unicode hex="0432"/>
	<advance width="552"/>
	<outline>
		<contour>
			<point x="71" y="0" type="line"/>
			<point x="332" y="0" type="line" smooth="yes"/>
			<point x="441" y="0"/>
			<point x="517" y="58"/>
			<point x="517" y="143" type="curve" smooth="yes"/>
			<point x="517" y="202"/>
			<point x="478" y="248"/>
			<point x="413" y="267" type="curve"/>
			<point x="413" y="258" type="line"/>
			<point x="465" y="277"/>
			<point x="494" y="317"/>
			<point x="494" y="368" type="curve" smooth="yes"/>
			<point x="494" y="452"/>
			<point x="422" y="503"/>
			<point x="314" y="503" type="curve" smooth="yes"/>
			<point x="71" y="503" type="line"/>
		</contour>
		<contour>
			<point x="165" y="95" type="line"/>
			<point x="190" y="70" type="line"/>
			<point x="190" y="433" type="line"/>
			<point x="165" y="408" type="line"/>
			<point x="295" y="408" type="line" smooth="yes"/>
			<point x="341" y="408"/>
			<point x="366" y="393"/>
			<point x="366" y="355" type="curve" smooth="yes"/>
			<point x="366" y="318"/>
			<point x="339" y="301"/>
			<point x="295" y="301" type="curve" smooth="yes"/>
			<point x="141" y="301" type="line"/>
			<point x="141" y="216" type="line"/>
			<point x="312" y="216" type="line" smooth="yes"/>
			<point x="363" y="216"/>
			<point x="388" y="193"/>
			<point x="388" y="155" type="curve" smooth="yes"/>
			<point x="388" y="115"/>
			<point x="363" y="95"/>
			<point x="312" y="95" type="curve" smooth="yes"/>
		</contour>
	</outline>
</glyph>
<glyph name="ghe" format="2">
	<unicode hex="0433"/>
	<advance width="446"/>
	<outline>
		<contour>
			<point x="71" y="0" type="line"/>
			<point x="203" y="0" type="line"/>
			<point x="203" y="433" type="line"/>
			<point x="166" y="397" type="line"/>
			<point x="426" y="397" type="line"/>
			<point x="426" y="503" type="line"/>
			<point x="71" y="503" type="line"/>
		</contour>
	</outline>
	<anchor name="top.LC" x="245" y="544"/>
</glyph>
<glyph name="de" format="2">
	<unicode hex="0434"/>
	<advance width="620"/>
	<outline>
		<contour>
			<point x="17" y="-138" type="line"/>
			<point x="141" y="-138" type="line"/>
			<point x="141" y="25" type="line"/>
			<point x="116" y="0" type="line"/>
			<point x="492" y="0" type="line"/>
			<point x="467" y="25" type="line"/>
			<point x="467" y="-138" type="line"/>
			<point x="591" y="-138" type="line"/>
			<point x="591" y="106" type="line"/>
			<point x="188" y="106" type="line"/>
			<point x="197" y="88" type="line"/>
			<point x="221" y="108"/>
			<point x="233" y="141"/>
			<point x="239" y="194" type="curve" smooth="yes"/>
			<point x="263" y="423" type="line"/>
			<point x="236" y="398" type="line"/>
			<point x="411" y="398" type="line"/>
			<point x="386" y="423" type="line"/>
			<point x="386" y="71" type="line"/>
			<point x="515" y="71" type="line"/>
			<point x="515" y="503" type="line"/>
			<point x="144" y="503" type="line"/>
			<point x="115" y="205" type="line" smooth="yes"/>
			<point x="107" y="125"/>
			<point x="95" y="106"/>
			<point x="58" y="106" type="curve" smooth="yes"/>
			<point x="17" y="106" type="line"/>
		</contour>
	</outline>
</glyph>
<glyph name="icyr" format="2">
	<unicode hex="0438"/>
	<advance width="602"/>
	<outline>
		<contour>
			<point x="71" y="0" type="line"/>
			<point x="187" y="0" type="line"/>
			<point x="413" y="325" type="line"/>
			<point x="406" y="330" type="line"/>
			<point x="406" y="0" type="line"/>
			<point x="531" y="0" type="line"/>
			<point x="531" y="503" type="line"/>
			<point x="415" y="503" type="line"/>
			<point x="189" y="179" type="line"/>
			<point x="197" y="174" type="line"/>
			<point x="197" y="503" type="line"/>
			<point x="71" y="503" type="line"/>
		</contour>
	</outline>
	<anchor name="top.LC" x="308" y="544"/>
</glyph>
<glyph name="ka" format="2">
	<unicode hex="043A"/>
	<advance width="561"/>
	<outline>
		<contour>
			<point x="71" y="0" type="line"/>
			<point x="203" y="0" type="line"/>
			<point x="203" y="503" type="line"/>
			<point x="71" y="503" type="line"/>
		</contour>
		<contour>
			<point x="389" y="0" type="line"/>
			<point x="554" y="0" type="line"/>
			<point x="301" y="291" type="line"/>
			<point x="308" y="235" type="line"/>
			<point x="533" y="503" type="line"/>
			<point x="377" y="503" type="line"/>
			<point x="178" y="262" type="line"/>
			<point x="169" y="262" type="line"/>
		</contour>
	</outline>
	<anchor name="top.LC" x="284" y="544"/>
</glyph>
<glyph name="el" format="2">
	<unicode hex="043B"/>
	<advance width="581"/>
	<outline>
		<contour>
			<point x="21" y="0" type="line"/>
			<point x="78" y="0" type="line" smooth="yes"/>
			<point x="173" y="0"/>
			<point x="216" y="33"/>
			<point x="226" y="135" type="curve" smooth="yes"/>
			<point x="253" y="419" type="line"/>
			<point x="229" y="397" type="line"/>
			<point x="401" y="397" type="line"/>
			<point x="378" y="420" type="line"/>
			<point x="378" y="0" type="line"/>
			<point x="510" y="0" type="line"/>
			<point x="510" y="503" type="line"/>
			<point x="134" y="503" type="line"/>
			<point x="104" y="162" type="line" smooth="yes"/>
			<point x="100" y="123"/>
			<point x="87" y="109"/>
			<point x="56" y="109" type="curve" smooth="yes"/>
			<point x="21" y="109" type="line"/>
		</contour>
	</outline>
</glyph>
<glyph name="em" format="2">
	<unicode hex="043C"/>
	<advance width="713"/>
	<outline>
		<contour>
			<point x="71" y="0" type="line"/>
			<point x="184" y="0" type="line"/>
			<point x="184" y="341" type="line"/>
			<point x="174" y="338" type="line"/>
			<point x="310" y="53" type="line"/>
			<point x="397" y="53" type="line"/>
			<point x="537" y="345" type="line"/>
			<point x="524" y="349" type="line"/>
			<point x="524" y="0" type="line"/>
			<point x="642" y="0" type="line"/>
			<point x="642" y="503" type="line"/>
			<point x="503" y="503" type="line"/>
			<point x="339" y="156" type="line"/>
			<point x="372" y="156" type="line"/>
			<point x="206" y="503" type="line"/>
			<point x="71" y="503" type="line"/>
		</contour>
	</outline>
</glyph>
<glyph name="en" format="2">
	<unicode hex="043D"/>
	<advance width="601"/>
	<outline>
		<contour>
			<point x="71" y="0" type="line"/>
			<point x="203" y="0" type="line"/>
			<point x="203" y="503" type="line"/>
			<point x="71" y="503" type="line"/>
		</contour>
		<contour>
			<point x="398" y="0" type="line"/>
			<point x="530" y="0" type="line"/>
			<point x="530" y="503" type="line"/>
			<point x="398" y="503" type="line"/>
		</contour>
		<contour>
			<point x="130" y="211" type="line"/>
			<point x="476" y="211" type="line"/>
			<point x="476" y="317" type="line"/>
			<point x="130" y="317" type="line"/>
		</contour>
	</outline>
</glyph>
<glyph name="pe" format="2">
	<unicode hex="043F"/>
	<advance width="596"/>
	<outline>
		<contour>
			<point x="71" y="0" type="line"/>
			<point x="203" y="0" type="line"/>
			<point x="203" y="431" type="line"/>
			<point x="167" y="397" type="line"/>
			<point x="429" y="397" type="line"/>
			<point x="393" y="431" type="line"/>
			<point x="393" y="0" type="line"/>
			<point x="525" y="0" type="line"/>
			<point x="525" y="503" type="line"/>
			<point x="71" y="503" type="line"/>
		</contour>
	</outline>
</glyph>
<glyph name="te" format="2">
	<unicode hex="0442"/>
	<advance width="497"/>
	<outline>
		<contour>
			<point x="25" y="397" type="line"/>
			<point x="471" y="397" type="line"/>
			<point x="471" y="503" type="line"/>
			<point x="25" y="503" type="line"/>
		</contour>
		<contour>
			<point x="183" y="0" type="line"/>
			<point x="314" y="0" type="line"/>
			<point x="314" y="457" type="line"/>
			<point x="183" y="457" type="line"/>
		</contour>
	</outline>
</glyph>
<glyph name="tse" format="2">
	<unicode hex="0446"/>
	<advance width="626"/>
	<outline>
		<contour>
			<point x="389" y="50" type="line"/>
			<point x="521" y="50" type="line"/>
			<point x="521" y="503" type="line"/>
			<point x="389" y="503" type="line"/>
		</contour>
		<contour>
			<point x="71" y="0" type="line"/>
			<point x="497" y="0" type="line"/>
			<point x="472" y="25" type="line"/>
			<point x="472" y="-138" type="line"/>
			<point x="596" y="-138" type="line"/>
			<point x="596" y="106" type="line"/>
			<point x="178" y="106" type="line"/>
			<point x="203" y="81" type="line"/>
			<point x="203" y="503" type="line"/>
			<point x="71" y="503" type="line"/>
		</contour>
	</outline>
</glyph>
<glyph name="sha" format="2">
	<unicode hex="0448"/>
	<advance width="831"/>
	<outline>
		<contour>
			<point x="71" y="0" type="line"/>
			<point x="760" y="0" type="line"/>
			<point x="760" y="503" type="line"/>
			<point x="631" y="503" type="line"/>
			<point x="631" y="37" type="line"/>
			<point x="681" y="106" type="line"/>
			<point x="433" y="106" type="line"/>
			<point x="480" y="39" type="line"/>
			<point x="480" y="503" type="line"/>
			<point x="351" y="503" type="line"/>
			<point x="351" y="39" type="line"/>
			<point x="400" y="106" type="line"/>
			<point x="145" y="106" type="line"/>
			<point x="200" y="37" type="line"/>
			<point x="200" y="503" type="line"/>
			<point x="71" y="503" type="line"/>
		</contour>
	</outline>
</glyph>
<glyph name="yeru" format="2">
	<unicode hex="044B"/>
	<advance width="743"/>
	<outline>
		<contour>
			<point x="71" y="0" type="line"/>
			<point x="296" y="0" type="line" smooth="yes"/>
			<point x="413" y="0"/>
			<point x="488" y="71"/>
			<point x="488" y="177" type="curve" smooth="yes"/>
			<point x="488" y="278"/>
			<point x="412" y="345"/>
			<point x="296" y="345" type="curve" smooth="yes"/>
			<point x="140" y="345" type="line"/>
			<point x="140" y="242" type="line"/>
			<point x="285" y="242" type="line" smooth="yes"/>
			<point x="332" y="242"/>
			<point x="357" y="218"/>
			<point x="357" y="173" type="curve" smooth="yes"/>
			<point x="357" y="128"/>
			<point x="332" y="103"/>
			<point x="285" y="103" type="curve" smooth="yes"/>
			<point x="174" y="103" type="line"/>
			<point x="203" y="82" type="line"/>
			<point x="203" y="503" type="line"/>
			<point x="71" y="503" type="line"/>
		</contour>
		<contour>
			<point x="540" y="0" type="line"/>
			<point x="672" y="0" type="line"/>
			<point x="672" y="503" type="line"/>
			<point x="540" y="503" type="line"/>
		</contour>
	</outline>
</glyph>
<glyph name="soft" format="2">
	<unicode hex="044C"/>
	<advance width="516"/>
	<outline>
		<contour>
			<point x="71" y="0" type="line"/>
			<point x="309" y="0" type="line" smooth="yes"/>
			<point x="426" y="0"/>
			<point x="501" y="70"/>
			<point x="501" y="177" type="curve" smooth="yes"/>
			<point x="501" y="279"/>
			<point x="425" y="345"/>
			<point x="309" y="345" type="curve" smooth="yes"/>
			<point x="140" y="345" type="line"/>
			<point x="140" y="242" type="line"/>
			<point x="298" y="242" type="line" smooth="yes"/>
			<point x="344" y="242"/>
			<point x="369" y="218"/>
			<point x="369" y="173" type="curve" smooth="yes"/>
			<point x="369" y="128"/>
			<point x="344" y="103"/>
			<point x="298" y="103" type="curve" smooth="yes"/>
			<point x="174" y="103" type="line"/>
			<point x="203" y="82" type="line"/>
			<point x="203" y="503" type="line"/>
			<point x="71" y="503" type="line"/>
		</contour>
	</outline>
</glyph>
<glyph name="ecyr" format="2">
	<unicode hex="044D"/>
	<advance width="547"/>
	<outline>
		<contour>
			<point x="154" y="210" type="line"/>
			<point x="419" y="210" type="line"/>
			<point x="419" y="302" type="line"/>
			<point x="154" y="302" type="line"/>
		</contour>
		<contour>
			<point x="238" y="-16" type="curve" smooth="yes"/>
			<point x="392" y="-16"/>
			<point x="502" y="96"/>
			<point x="502" y="252" type="curve" smooth="yes"/>
			<point x="502" y="409"/>
			<point x="393" y="519"/>
			<point x="238" y="519" type="curve" smooth="yes"/>
			<point x="152" y="519"/>
			<point x="77" y="485"/>
			<point x="27" y="421" type="curve"/>
			<point x="105" y="344" type="line"/>
			<point x="138" y="390"/>
			<point x="178" y="414"/>
			<point x="231" y="414" type="curve" smooth="yes"/>
			<point x="312" y="414"/>
			<point x="370" y="350"/>
			<point x="370" y="252" type="curve" smooth="yes"/>
			<point x="370" y="154"/>
			<point x="311" y="89"/>
			<point x="230" y="89" type="curve" smooth="yes"/>
			<point x="177" y="89"/>
			<point x="135" y="114"/>
			<point x="103" y="159" type="curve"/>
			<point x="26" y="83" type="line"/>
			<point x="77" y="20"/>
			<point x="154" y="-16"/>
		</contour>
	</outline>
</glyph>
<glyph name="yu" format="2">
	<unicode hex="044E"/>
	<advance width="830"/>
	<outline>
		<contour>
			<point x="71" y="0" type="line"/>
			<point x="203" y="0" type="line"/>
			<point x="203" y="503" type="line"/>
			<point x="71" y="503" type="line"/>
		</contour>
		<contour>
			<point x="132" y="210" type="line"/>
			<point x="340" y="210" type="line"/>
			<point x="340" y="317" type="line"/>
			<point x="132" y="317" type="line"/>
		</contour>
		<contour>
			<point x="528" y="-16" type="curve" smooth="yes"/>
			<point x="681" y="-16"/>
			<point x="785" y="94"/>
			<point x="785" y="252" type="curve" smooth="yes"/>
			<point x="785" y="410"/>
			<point x="681" y="519"/>
			<point x="528" y="519" type="curve" smooth="yes"/>
			<point x="375" y="519"/>
			<point x="274" y="410"/>
			<point x="274" y="252" type="curve" smooth="yes"/>
			<point x="274" y="94"/>
			<point x="375" y="-16"/>
		</contour>
		<contour>
			<point x="528" y="94" type="curve" smooth="yes"/>
			<point x="453" y="94"/>
			<point x="407" y="159"/>
			<point x="407" y="252" type="curve" smooth="yes"/>
			<point x="407" y="345"/>
			<point x="453" y="409"/>
			<point x="528" y="409" type="curve" smooth="yes"/>
			<point x="603" y="409"/>
			<point x="649" y="345"/>
			<point x="649" y="252" type="curve" smooth="yes"/>
			<point x="649" y="159"/>
			<point x="603" y="94"/>
		</contour>
	</outline>
</glyph>
<glyph name="ya" format="2">
	<unicode hex="044F"/>
	<advance width="557"/>
	<outline>
		<contour>
			<point x="33" y="0" type="line"/>
			<point x="175" y="0" type="line"/>
			<point x="326" y="218" type="line"/>
			<point x="194" y="218" type="line"/>
		</contour>
		<contour>
			<point x="366" y="0" type="line"/>
			<point x="486" y="0" type="line"/>
			<point x="486" y="503" type="line"/>
			<point x="237" y="503" type="line" smooth="yes"/>
			<point x="125" y="503"/>
			<point x="48" y="437"/>
			<point x="48" y="341" type="curve" smooth="yes"/>
			<point x="48" y="243"/>
			<point x="120" y="177"/>
			<point x="233" y="177" type="curve" smooth="yes"/>
			<point x="415" y="177" type="line"/>
			<point x="415" y="272" type="line"/>
			<point x="250" y="272" type="line" smooth="yes"/>
			<point x="206" y="272"/>
			<point x="178" y="295"/>
			<point x="178" y="339" type="curve" smooth="yes"/>
			<point x="178" y="381"/>
			<point x="205" y="405"/>
			<point x="249" y="405" type="curve" smooth="yes"/>
			<point x="393" y="405" type="line"/>
			<point x="366" y="433" type="line"/>
		</contour>
	</outline>
</glyph>
<glyph name="dje" format="2">
	<unicode hex="0452"/>
	<advance width="613"/>
	<outline>
		<contour>
			<point x="86" y="0" type="line"/>
			<point x="218" y="0" type="line"/>
			<point x="218" y="217" type="line" smooth="yes"/>
			<point x="218" y="319"/>
			<point x="261" y="384"/>
			<point x="330" y="384" type="curve" smooth="yes"/>
			<point x="393" y="384"/>
			<point x="422" y="322"/>
			<point x="422" y="189" type="curve" smooth="yes"/>
			<point x="422" y="41"/>
			<point x="372" y="-55"/>
			<point x="272" y="-105" type="curve"/>
			<point x="347" y="-211" type="line"/>
			<point x="484" y="-136"/>
			<point x="557" y="5"/>
			<point x="557" y="199" type="curve" smooth="yes"/>
			<point x="557" y="396"/>
			<point x="495" y="494"/>
			<point x="369" y="494" type="curve" smooth="yes"/>
			<point x="274" y="494"/>
			<point x="214" y="434"/>
			<point x="201" y="322" type="curve"/>
			<point x="218" y="322" type="line"/>
			<point x="218" y="720" type="line"/>
			<point x="86" y="720" type="line"/>
		</contour>
		<contour>
			<point x="8" y="552" type="line"/>
			<point x="360" y="552" type="line"/>
			<point x="360" y="647" type="line"/>
			<point x="8" y="647" type="line"/>
		</contour>
	</outline>
</glyph>
<glyph name="ieukrain" format="2">
	<unicode hex="0454"/>
	<advance width="547"/>
	<outline>
		<contour>
			<point x="128" y="210" type="line"/>
			<point x="393" y="210" type="line"/>
			<point x="393" y="302" type="line"/>
			<point x="128" y="302" type="line"/>
		</contour>
		<contour>
			<point x="309" y="-16" type="curve" smooth="yes"/>
			<point x="394" y="-16"/>
			<point x="470" y="20"/>
			<point x="521" y="83" type="curve"/>
			<point x="444" y="159" type="line"/>
			<point x="413" y="114"/>
			<point x="370" y="89"/>
			<point x="318" y="89" type="curve" smooth="yes"/>
			<point x="236" y="89"/>
			<point x="177" y="154"/>
			<point x="177" y="252" type="curve" smooth="yes"/>
			<point x="177" y="350"/>
			<point x="235" y="414"/>
			<point x="317" y="414" type="curve" smooth="yes"/>
			<point x="369" y="414"/>
			<point x="410" y="390"/>
			<point x="442" y="344" type="curve"/>
			<point x="521" y="421" type="line"/>
			<point x="470" y="485"/>
			<point x="396" y="519"/>
			<point x="309" y="519" type="curve" smooth="yes"/>
			<point x="154" y="519"/>
			<point x="45" y="409"/>
			<point x="45" y="252" type="curve" smooth="yes"/>
			<point x="45" y="96"/>
			<point x="155" y="-16"/>
		</contour>
	</outline>
</glyph>
<glyph name="lje" format="2">
	<unicode hex="0459"/>
	<advance width="795"/>
	<outline>
		<contour>
			<point x="21" y="0" type="line"/>
			<point x="78" y="0" type="line" smooth="yes"/>
			<point x="173" y="0"/>
			<point x="216" y="33"/>
			<point x="226" y="135" type="curve" smooth="yes"/>
			<point x="252" y="414" type="line"/>
			<point x="233" y="397" type="line"/>
			<point x="386" y="397" type="line"/>
			<point x="368" y="414" type="line"/>
			<point x="368" y="0" type="line"/>
			<point x="595" y="0" type="line" smooth="yes"/>
			<point x="702" y="0"/>
			<point x="780" y="69"/>
			<point x="780" y="177" type="curve" smooth="yes"/>
			<point x="780" y="277"/>
			<point x="705" y="345"/>
			<point x="595" y="345" type="curve" smooth="yes"/>
			<point x="444" y="345" type="line"/>
			<point x="444" y="242" type="line"/>
			<point x="580" y="242" type="line" smooth="yes"/>
			<point x="625" y="242"/>
			<point x="653" y="217"/>
			<point x="653" y="174" type="curve" smooth="yes"/>
			<point x="653" y="129"/>
			<point x="625" y="103"/>
			<point x="580" y="103" type="curve" smooth="yes"/>
			<point x="478" y="103" type="line"/>
			<point x="493" y="85" type="line"/>
			<point x="493" y="503" type="line"/>
			<point x="134" y="503" type="line"/>
			<point x="104" y="162" type="line" smooth="yes"/>
			<point x="100" y="123"/>
			<point x="87" y="109"/>
			<point x="56" y="109" type="curve" smooth="yes"/>
			<point x="21" y="109" type="line"/>
		</contour>
	</outline>
</glyph>
<glyph name="tshe" format="2">
	<unicode hex="045B"/>
	<advance width="614"/>
	<outline>
		<contour>
			<point x="86" y="0" type="line"/>
			<point x="218" y="0" type="line"/>
			<point x="218" y="220" type="line" smooth="yes"/>
			<point x="218" y="321"/>
			<point x="261" y="384"/>
			<point x="330" y="384" type="curve" smooth="yes"/>
			<point x="386" y="384"/>
			<point x="418" y="342"/>
			<point x="418" y="266" type="curve" smooth="yes"/>
			<point x="418" y="0" type="line"/>
			<point x="550" y="0" type="line"/>
			<point x="550" y="279" type="line" smooth="yes"/>
			<point x="550" y="415"/>
			<point x="483" y="494"/>
			<point x="369" y="494" type="curve" smooth="yes"/>
			<point x="274" y="494"/>
			<point x="213" y="432"/>
			<point x="201" y="322" type="curve"/>
			<point x="218" y="322" type="line"/>
			<point x="218" y="720" type="line"/>
			<point x="86" y="720" type="line"/>
		</contour>
		<contour>
			<point x="8" y="552" type="line"/>
			<point x="360" y="552" type="line"/>
			<point x="360" y="647" type="line"/>
			<point x="8" y="647" type="line"/>
		</contour>
	</outline>
</glyph>
<glyph name="dzhe" format="2">
	<unicode hex="045F"/>
	<advance width="592"/>
	<outline>
		<contour>
			<point x="71" y="0" type="line"/>
			<point x="521" y="0" type="line"/>
			<point x="521" y="503" type="line"/>
			<point x="389" y="503" type="line"/>
			<point x="389" y="41" type="line"/>
			<point x="445" y="106" type="line"/>
			<point x="144" y="106" type="line"/>
			<point x="203" y="41" type="line"/>
			<point x="203" y="503" type="line"/>
			<point x="71" y="503" type="line"/>
		</contour>
		<contour>
			<point x="234" y="-138" type="line"/>
			<point x="358" y="-138" type="line"/>
			<point x="358" y="87" type="line"/>
			<point x="234" y="87" type="line"/>
		</contour>
	</outline>
</glyph>
<glyph name="Yat" format="2">
	<unicode hex="0462"/>
	<advance width="694"/>
	<outline>
		<contour>
			<point x="19" y="533" type="line"/>
			<point x="495" y="533" type="line"/>
			<point x="495" y="642" type="line"/>
			<point x="19" y="642" type="line"/>
		</contour>
		<contour>
			<point x="129" y="0" type="line"/>
			<point x="417" y="0" type="line" smooth="yes"/>
			<point x="563" y="0"/>
			<point x="659" y="89"/>
			<point x="659" y="219" type="curve" smooth="yes"/>
			<point x="659" y="350"/>
			<point x="564" y="435"/>
			<point x="417" y="435" type="curve" smooth="yes"/>
			<point x="191" y="435" type="line"/>
			<point x="191" y="320" type="line"/>
			<point x="417" y="320" type="line" smooth="yes"/>
			<point x="483" y="320"/>
			<point x="522" y="283"/>
			<point x="522" y="219" type="curve" smooth="yes"/>
			<point x="522" y="153"/>
			<point x="483" y="115"/>
			<point x="417" y="115" type="curve" smooth="yes"/>
			<point x="246" y="115" type="line"/>
			<point x="264" y="94" type="line"/>
			<point x="264" y="715" type="line"/>
			<point x="129" y="715" type="line"/>
		</contour>
	</outline>
</glyph>
<glyph name="yat" format="2">
	<unicode hex="0463"/>
	<advance width="572"/>
	<outline>
		<contour>
			<point x="25" y="408" type="line"/>
			<point x="417" y="408" type="line"/>
			<point x="417" y="503" type="line"/>
			<point x="25" y="503" type="line"/>
		</contour>
		<contour>
			<point x="113" y="0" type="line"/>
			<point x="351" y="0" type="line" smooth="yes"/>
			<point x="466" y="0"/>
			<point x="543" y="66"/>
			<point x="543" y="171" type="curve" smooth="yes"/>
			<point x="543" y="268"/>
			<point x="469" y="335"/>
			<point x="351" y="335" type="curve" smooth="yes"/>
			<point x="182" y="335" type="line"/>
			<point x="182" y="234" type="line"/>
			<point x="339" y="234" type="line" smooth="yes"/>
			<point x="385" y="234"/>
			<point x="409" y="212"/>
			<point x="409" y="171" type="curve" smooth="yes"/>
			<point x="409" y="129"/>
			<point x="385" y="107"/>
			<point x="339" y="107" type="curve" smooth="yes"/>
			<point x="148" y="107" type="line"/>
			<point x="240" y="11" type="line"/>
			<point x="240" y="720" type="line"/>
			<point x="113" y="720" type="line"/>
		</contour>
	</outline>
</glyph>
<glyph name="fita" format="2">
	<unicode hex="0473"/>
	<advance width="618"/>
	<outline>
		<contour>
			<point x="116" y="208" type="line"/>
			<point x="500" y="208" type="line"/>
			<point x="500" y="299" type="line"/>
			<point x="116" y="299" type="line"/>
		</contour>
		<contour>
			<point x="308" y="-16" type="curve" smooth="yes"/>
			<point x="464" y="-16"/>
			<point x="573" y="95"/>
			<point x="573" y="252" type="curve" smooth="yes"/>
			<point x="573" y="409"/>
			<point x="464" y="519"/>
			<point x="308" y="519" type="curve" smooth="yes"/>
			<point x="154" y="519"/>
			<point x="45" y="409"/>
			<point x="45" y="252" type="curve" smooth="yes"/>
			<point x="45" y="95"/>
			<point x="154" y="-16"/>
		</contour>
		<contour>
			<point x="308" y="86" type="curve" smooth="yes"/>
			<point x="225" y="86"/>
			<point x="167" y="150"/>
			<point x="167" y="252" type="curve" smooth="yes"/>
			<point x="167" y="354"/>
			<point x="225" y="418"/>
			<point x="308" y="418" type="curve" smooth="yes"/>
			<point x="392" y="418"/>
			<point x="451" y="353"/>
			<point x="451" y="252" type="curve" smooth="yes"/>
			<point x="451" y="150"/>
			<point x="392" y="86"/>
		</contour>
	</outline>
</glyph>
<glyph name="Izhitsa" format="2">
	<unicode hex="0474"/>
	<advance width="765"/>
	<outline>
		<contour>
			<point x="298" y="0" type="line"/>
			<point x="434" y="0" type="line"/>
			<point x="631" y="558" type="line" smooth="yes"/>
			<point x="642" y="590"/>
			<point x="653" y="599"/>
			<point x="680" y="599" type="curve" smooth="yes"/>
			<point x="742" y="599" type="line"/>
			<point x="742" y="715" type="line"/>
			<point x="656" y="715" type="line" smooth="yes"/>
			<point x="575" y="715"/>
			<point x="541" y="693"/>
			<point x="514" y="609" type="curve" smooth="yes"/>
			<point x="352" y="106" type="line"/>
			<point x="387" y="106" type="line"/>
			<point x="180" y="715" type="line"/>
			<point x="33" y="715" type="line"/>
		</contour>
	</outline>
</glyph>
<glyph name="izhitsa" format="2">
	<unicode hex="0475"/>
	<advance width="590"/>
	<outline>
		<contour>
			<point x="226" y="0" type="line"/>
			<point x="354" y="0" type="line"/>
			<point x="488" y="359" type="line" smooth="yes"/>
			<point x="498" y="385"/>
			<point x="509" y="394"/>
			<point x="532" y="394" type="curve" smooth="yes"/>
			<point x="573" y="394" type="line"/>
			<point x="573" y="503" type="line"/>
			<point x="510" y="503" type="line" smooth="yes"/>
			<point x="438" y="503"/>
			<point x="408" y="482"/>
			<point x="386" y="414" type="curve" smooth="yes"/>
			<point x="279" y="91" type="line"/>
			<point x="306" y="91" type="line"/>
			<point x="161" y="503" type="line"/>
			<point x="24" y="503" type="line"/>
		</contour>
	</outline>
</glyph>
<glyph name="Gheup" format="2">
	<unicode hex="0490"/>
	<advance width="561"/>
	<outline>
		<contour>
			<point x="89" y="0" type="line"/>
			<point x="224" y="0" type="line"/>
			<point x="224" y="690" type="line"/>
			<point x="149" y="599" type="line"/>
			<point x="536" y="599" type="line"/>
			<point x="536" y="879" type="line"/>
			<point x="409" y="879" type="line"/>
			<point x="409" y="645" type="line"/>
			<point x="485" y="715" type="line"/>
			<point x="89" y="715" type="line"/>
		</contour>
	</outline>
</glyph>
<glyph name="Germandbls" format="2">
	<unicode hex="1E9E"/>
	<advance width="755"/>
	<outline>
		<contour>
			<point x="259" y="71" type="line"/>
			<point x="313" y="16"/>
			<point x="391" y="-16"/>
			<point x="473" y="-16" type="curve" smooth="yes"/>
			<point x="620" y="-16"/>
			<point x="730" y="83"/>
			<point x="730" y="210" type="curve" smooth="yes"/>
			<point x="730" y="352"/>
			<point x="596" y="455"/>
			<point x="456" y="417" type="curve"/>
			<point x="498" y="403" type="line"/>
			<point x="668" y="608" type="line"/>
			<point x="668" y="715" type="line"/>
			<point x="379" y="715" type="line" smooth="yes"/>
			<point x="190" y="715"/>
			<point x="77" y="604"/>
			<point x="77" y="417" type="curve" smooth="yes"/>
			<point x="77" y="0" type="line"/>
			<point x="216" y="0" type="line"/>
			<point x="216" y="417" type="line" smooth="yes"/>
			<point x="216" y="540"/>
			<point x="274" y="608"/>
			<point x="379" y="608" type="curve" smooth="yes"/>
			<point x="618" y="608" type="line"/>
			<point x="558" y="647" type="line"/>
			<point x="327" y="372" type="line"/>
			<point x="400" y="305" type="line"/>
			<point x="420" y="322"/>
			<point x="445" y="331"/>
			<point x="474" y="331" type="curve" smooth="yes"/>
			<point x="544" y="331"/>
			<point x="592" y="283"/>
			<point x="592" y="212" type="curve" smooth="yes"/>
			<point x="592" y="141"/>
			<point x="541" y="91"/>
			<point x="473" y="91" type="curve" smooth="yes"/>
			<point x="420" y="91"/>
			<point x="373" y="119"/>
			<point x="338" y="163" type="curve"/>
		</contour>
	</outline>
</glyph>
<glyph name="quoteleft" format="2">
	<unicode hex="2018"/>
	<advance width="258"/>
	<outline>
		<contour>
			<point x="134" y="745" type="line"/>
			<point x="81" y="681"/>
			<point x="46" y="611"/>
			<point x="46" y="547" type="curve" smooth="yes"/>
			<point x="46" y="489"/>
			<point x="80" y="454"/>
			<point x="129" y="454" type="curve" smooth="yes"/>
			<point x="175" y="454"/>
			<point x="208" y="488"/>
			<point x="208" y="535" type="curve" smooth="yes"/>
			<point x="208" y="580"/>
			<point x="173" y="615"/>
			<point x="126" y="614" type="curve"/>
			<point x="138" y="570" type="line"/>
			<point x="132" y="620"/>
			<point x="167" y="689"/>
			<point x="212" y="745" type="curve"/>
		</contour>
	</outline>
</glyph>
<glyph name="dagger" format="2">
	<unicode hex="2020"/>
	<advance width="452"/>
	<outline>
		<contour>
			<point x="421" y="397" type="line"/>
			<point x="421" y="503" type="line"/>
			<point x="31" y="503" type="line"/>
			<point x="31" y="397" type="line"/>
		</contour>
		<contour>
			<point x="293" y="-129" type="line"/>
			<point x="293" y="736" type="line"/>
			<point x="161" y="736" type="line"/>
			<point x="161" y="-129" type="line"/>
		</contour>
	</outline>
</glyph>
<glyph name="guilsinglleft" format="2">
	<unicode hex="2039"/>
	<advance width="338"/>
	<outline>
		<contour>
			<point x="163" y="33" type="line"/>
			<point x="310" y="33" type="line"/>
			<point x="166" y="252" type="line"/>
			<point x="310" y="470" type="line"/>
			<point x="163" y="470" type="line"/>
			<point x="23" y="252" type="line"/>
		</contour>
	</outline>
</glyph>
<glyph name="guilsinglright" format="2">
	<unicode hex="203A"/>
	<advance width="338"/>
	<outline>
		<contour>
			<point x="175" y="470" type="line"/>
			<point x="28" y="470" type="line"/>
			<point x="172" y="252" type="line"/>
			<point x="28" y="33" type="line"/>
			<point x="175" y="33" type="line"/>
			<point x="315" y="252" type="line"/>
		</contour>
	</outline>
</glyph>
<glyph name="hryvnia" format="2">
	<unicode hex="20B4"/>
	<advance width="632"/>
	<outline>
		<contour>
			<point x="325" y="-16" type="curve" smooth="yes"/>
			<point x="427" y="-16"/>
			<point x="508" y="16"/>
			<point x="568" y="77" type="curve"/>
			<point x="498" y="166" type="line"/>
			<point x="459" y="121"/>
			<point x="401" y="95"/>
			<point x="331" y="95" type="curve" smooth="yes"/>
			<point x="253" y="95"/>
			<point x="210" y="120"/>
			<point x="210" y="164" type="curve" smooth="yes"/>
			<point x="210" y="215"/>
			<point x="254" y="247"/>
			<point x="330" y="303" type="curve" smooth="yes"/>
			<point x="381" y="341" type="line" smooth="yes"/>
			<point x="481" y="416"/>
			<point x="553" y="486"/>
			<point x="553" y="571" type="curve" smooth="yes"/>
			<point x="553" y="669"/>
			<point x="470" y="731"/>
			<point x="336" y="731" type="curve" smooth="yes"/>
			<point x="241" y="731"/>
			<point x="157" y="696"/>
			<point x="104" y="634" type="curve"/>
			<point x="179" y="551" type="line"/>
			<point x="212" y="595"/>
			<point x="261" y="620"/>
			<point x="326" y="620" type="curve" smooth="yes"/>
			<point x="388" y="620"/>
			<point x="427" y="595"/>
			<point x="427" y="554" type="curve" smooth="yes"/>
			<point x="427" y="514"/>
			<point x="388" y="483"/>
			<point x="316" y="427" type="curve" smooth="yes"/>
			<point x="269" y="391" type="line" smooth="yes"/>
			<point x="151" y="301"/>
			<point x="82" y="241"/>
			<point x="82" y="143" type="curve" smooth="yes"/>
			<point x="82" y="40"/>
			<point x="168" y="-16"/>
		</contour>
		<contour>
			<point x="35" y="235" type="line"/>
			<point x="597" y="235" type="line"/>
			<point x="597" y="327" type="line"/>
			<point x="35" y="327" type="line"/>
		</contour>
		<contour>
			<point x="35" y="390" type="line"/>
			<point x="597" y="390" type="line"/>
			<point x="597" y="482" type="line"/>
			<point x="35" y="482" type="line"/>
		</contour>
	</outline>
</glyph>
<glyph name="numero" format="2">
	<unicode hex="2116"/>
	<advance width="1195"/>
	<outline>
		<contour>
			<point x="794" y="200" type="line"/>
			<point x="1135" y="200" type="line"/>
			<point x="1135" y="293" type="line"/>
			<point x="794" y="293" type="line"/>
		</contour>
		<contour>
			<point x="964" y="336" type="curve" smooth="yes"/>
			<point x="1075" y="336"/>
			<point x="1152" y="415"/>
			<point x="1152" y="526" type="curve" smooth="yes"/>
			<point x="1152" y="637"/>
			<point x="1075" y="715"/>
			<point x="964" y="715" type="curve" smooth="yes"/>
			<point x="853" y="715"/>
			<point x="775" y="637"/>
			<point x="775" y="526" type="curve" smooth="yes"/>
			<point x="775" y="415"/>
			<point x="853" y="336"/>
		</contour>
		<contour>
			<point x="964" y="430" type="curve" smooth="yes"/>
			<point x="920" y="430"/>
			<point x="889" y="470"/>
			<point x="889" y="526" type="curve" smooth="yes"/>
			<point x="889" y="582"/>
			<point x="920" y="621"/>
			<point x="964" y="621" type="curve" smooth="yes"/>
			<point x="1008" y="621"/>
			<point x="1039" y="582"/>
			<point x="1039" y="526" type="curve" smooth="yes"/>
			<point x="1039" y="470"/>
			<point x="1008" y="430"/>
		</contour>
		<contour>
			<point x="89" y="0" type="line"/>
			<point x="221" y="0" type="line"/>
			<point x="221" y="586" type="line"/>
			<point x="166" y="586" type="line"/>
			<point x="537" y="0" type="line"/>
			<point x="678" y="0" type="line"/>
			<point x="678" y="715" type="line"/>
			<point x="546" y="715" type="line"/>
			<point x="546" y="130" type="line"/>
			<point x="600" y="130" type="line"/>
			<point x="230" y="715" type="line"/>
			<point x="89" y="715" type="line"/>
		</contour>
	</outline>
</glyph>
<glyph name="trademark" format="2">
	<unicode hex="2122"/>
	<advance width="857"/>
	<outline>
		<contour>
			<point x="232" y="307" type="line"/>
			<point x="232" y="636" type="line"/>
			<point x="130" y="636" type="line"/>
			<point x="130" y="307" type="line"/>
		</contour>
		<contour>
			<point x="345" y="630" type="line"/>
			<point x="345" y="715" type="line"/>
			<point x="16" y="715" type="line"/>
			<point x="16" y="630" type="line"/>
		</contour>
		<contour>
			<point x="651" y="361" type="line"/>
			<point x="796" y="682" type="line"/>
			<point x="739" y="684" type="line"/>
			<point x="739" y="307" type="line"/>
			<point x="841" y="307" type="line"/>
			<point x="841" y="715" type="line"/>
			<point x="722" y="715" type="line"/>
			<point x="597" y="431" type="line"/>
			<point x="631" y="431" type="line"/>
			<point x="506" y="715" type="line"/>
			<point x="386" y="715" type="line"/>
			<point x="386" y="307" type="line"/>
			<point x="485" y="307" type="line"/>
			<point x="485" y="684" type="line"/>
			<point x="431" y="682" type="line"/>
			<point x="576" y="361" type="line"/>
		</contour>
	</outline>
</glyph>
<glyph name="checkmark" format="2">
	<unicode hex="2713"/>
	<advance width="966"/>
	<outline>
		<contour>
			<point x="405" y="0" type="line"/>
			<point x="866" y="593" type="line"/>
			<point x="802" y="646" type="line"/>
			<point x="376" y="98" type="line"/>
			<point x="429" y="98" type="line"/>
			<point x="159" y="385" type="line"/>
			<point x="100" y="324" type="line"/>
		</contour>
	</outline>
</glyph>
<glyph name="Ef.loclBGR" format="2">
	<advance width="850"/>
	<outline>
		<contour>
			<point x="425" y="51" type="curve" smooth="yes"/>
			<point x="670" y="51"/>
			<point x="799" y="157"/>
			<point x="799" y="358" type="curve" smooth="yes"/>
			<point x="799" y="558"/>
			<point x="669" y="664"/>
			<point x="425" y="664" type="curve" smooth="yes"/>
			<point x="181" y="664"/>
			<point x="52" y="558"/>
			<point x="52" y="358" type="curve" smooth="yes"/>
			<point x="52" y="157"/>
			<point x="180" y="51"/>
		</contour>
		<contour>
			<point x="425" y="164" type="curve" smooth="yes"/>
			<point x="259" y="164"/>
			<point x="184" y="224"/>
			<point x="184" y="358" type="curve" smooth="yes"/>
			<point x="184" y="492"/>
			<point x="258" y="551"/>
			<point x="425" y="551" type="curve" smooth="yes"/>
			<point x="593" y="551"/>
			<point x="666" y="492"/>
			<point x="666" y="358" type="curve" smooth="yes"/>
			<point x="666" y="223"/>
			<point x="592" y="164"/>
		</contour>
		<contour>
			<point x="358" y="-53" type="line"/>
			<point x="493" y="-53" type="line"/>
			<point x="493" y="93" type="line"/>
			<point x="488" y="137" type="line"/>
			<point x="488" y="584" type="line"/>
			<point x="493" y="623" type="line"/>
			<point x="493" y="768" type="line"/>
			<point x="358" y="768" type="line"/>
			<point x="358" y="623" type="line"/>
			<point x="362" y="584" type="line"/>
			<point x="362" y="137" type="line"/>
			<point x="358" y="93" type="line"/>
		</contour>
	</outline>
</glyph>
<glyph name="El.loclBGR" format="2">
	<advance width="736"/>
	<outline>
		<contour>
			<point x="31" y="0" type="line"/>
			<point x="171" y="0" type="line"/>
			<point x="380" y="602" type="line"/>
			<point x="351" y="602" type="line"/>
			<point x="560" y="0" type="line"/>
			<point x="706" y="0" type="line"/>
			<point x="443" y="715" type="line"/>
			<point x="293" y="715" type="line"/>
		</contour>
	</outline>
</glyph>
<glyph name="be.loclMKDSRB" format="2">
	<advance width="609"/>
	<outline>
		<contour>
			<point x="306" y="-16" type="curve" smooth="yes"/>
			<point x="461" y="-16"/>
			<point x="561" y="83"/>
			<point x="561" y="234" type="curve" smooth="yes"/>
			<point x="561" y="341"/>
			<point x="506" y="420"/>
			<point x="394" y="473" type="curve" smooth="yes"/>
			<point x="271" y="533" type="line" smooth="yes"/>
			<point x="249" y="543"/>
			<point x="242" y="552"/>
			<point x="242" y="566" type="curve" smooth="yes"/>
			<point x="242" y="584"/>
			<point x="253" y="591"/>
			<point x="283" y="594" type="curve" smooth="yes"/>
			<point x="512" y="611" type="line"/>
			<point x="505" y="720" type="line"/>
			<point x="268" y="704" type="line" smooth="yes"/>
			<point x="158" y="696"/>
			<point x="104" y="653"/>
			<point x="104" y="571" type="curve" smooth="yes"/>
			<point x="104" y="513"/>
			<point x="142" y="469"/>
			<point x="226" y="428" type="curve" smooth="yes"/>
			<point x="327" y="379" type="line" smooth="yes"/>
			<point x="391" y="348"/>
			<point x="426" y="300"/>
			<point x="426" y="231" type="curve" smooth="yes"/>
			<point x="426" y="150"/>
			<point x="378" y="94"/>
			<point x="307" y="94" type="curve" smooth="yes"/>
			<point x="233" y="94"/>
			<point x="185" y="146"/>
			<point x="185" y="224" type="curve" smooth="yes"/>
			<point x="185" y="306"/>
			<point x="244" y="377"/>
			<point x="331" y="401" type="curve"/>
			<point x="277" y="466" type="line"/>
			<point x="132" y="437"/>
			<point x="48" y="345"/>
			<point x="48" y="216" type="curve" smooth="yes"/>
			<point x="48" y="74"/>
			<point x="148" y="-16"/>
		</contour>
	</outline>
</glyph>
<glyph name="breveacutecomb" format="2">
	<outline>
		<contour>
			<point x="0" y="585" type="curve" smooth="yes"/>
			<point x="84" y="585"/>
			<point x="153" y="645"/>
			<point x="163" y="748" type="curve"/>
			<point x="64" y="748" type="line"/>
			<point x="57" y="696"/>
			<point x="32" y="674"/>
			<point x="0" y="674" type="curve" smooth="yes"/>
			<point x="-31" y="674"/>
			<point x="-57" y="696"/>
			<point x="-64" y="748" type="curve"/>
			<point x="-162" y="748" type="line"/>
			<point x="-153" y="645"/>
			<point x="-84" y="585"/>
		</contour>
		<contour>
			<point x="-48" y="755" type="line"/>
			<point x="41" y="755" type="line"/>
			<point x="174" y="904" type="line"/>
			<point x="45" y="904" type="line"/>
		</contour>
	</outline>
	<anchor name="_top.LC" x="0" y="544"/>
</glyph>
<glyph name="brevecomb.cyrl.cap" format="2">
	<outline>
		<contour>
			<point x="0" y="586" type="curve" smooth="yes"/>
			<point x="103" y="586"/>
			<point x="176" y="634"/>
			<point x="188" y="735" type="curve"/>
			<point x="80" y="735" type="line"/>
			<point x="74" y="682"/>
			<point x="47" y="661"/>
			<point x="0" y="661" type="curve" smooth="yes"/>
			<point x="-46" y="661"/>
			<point x="-74" y="682"/>
			<point x="-81" y="735" type="curve"/>
			<point x="-188" y="735" type="line"/>
			<point x="-176" y="634"/>
			<point x="-104" y="586"/>
		</contour>
	</outline>
	<anchor name="_top.UC" x="0" y="544"/>
</glyph>
<glyph name="brevecomb.cyrl" format="2">
	<outline>
		<contour>
			<point x="0" y="587" type="curve" smooth="yes"/>
			<point x="97" y="587"/>
			<point x="165" y="636"/>
			<point x="180" y="735" type="curve"/>
			<point x="74" y="735" type="line"/>
			<point x="67" y="682"/>
			<point x="41" y="662"/>
			<point x="0" y="662" type="curve" smooth="yes"/>
			<point x="-40" y="662"/>
			<point x="-67" y="682"/>
			<point x="-74" y="735" type="curve"/>
			<point x="-179" y="735" type="line"/>
			<point x="-165" y="636"/>
			<point x="-97" y="587"/>
		</contour>
	</outline>
	<anchor name="_top.LC" x="0" y="544"/>
</glyph>
<glyph name="brevegravecomb.cap" format="2">
	<outline>
		<contour>
			<point x="0" y="795" type="curve" smooth="yes"/>
			<point x="93" y="795"/>
			<point x="163" y="854"/>
			<point x="172" y="947" type="curve"/>
			<point x="69" y="947" type="line"/>
			<point x="63" y="907"/>
			<point x="36" y="882"/>
			<point x="0" y="882" type="curve" smooth="yes"/>
			<point x="-35" y="882"/>
			<point x="-63" y="907"/>
			<point x="-69" y="947" type="curve"/>
			<point x="-172" y="947" type="line"/>
			<point x="-163" y="854"/>
			<point x="-93" y="795"/>
		</contour>
		<contour>
			<point x="-36" y="952" type="line"/>
			<point x="54" y="952" type="line"/>
			<point x="-45" y="1100" type="line"/>
			<point x="-174" y="1100" type="line"/>
		</contour>
	</outline>
	<anchor name="_top.UC" x="0" y="750"/>
</glyph>
<glyph name="brevetildecomb.cap" format="2">
	<outline>
		<contour>
			<point x="0" y="795" type="curve" smooth="yes"/>
			<point x="95" y="795"/>
			<point x="163" y="856"/>
			<point x="172" y="947" type="curve"/>
			<point x="69" y="947" type="line"/>
			<point x="63" y="908"/>
			<point x="36" y="882"/>
			<point x="-1" y="882" type="curve" smooth="yes"/>
			<point x="-36" y="882"/>
			<point x="-63" y="907"/>
			<point x="-69" y="947" type="curve"/>
			<point x="-172" y="947" type="line"/>
			<point x="-163" y="856"/>
			<point x="-95" y="795"/>
		</contour>
		<contour>
			<point x="-100" y="976" type="line"/>
			<point x="-95" y="1014"/>
			<point x="-82" y="1036"/>
			<point x="-65" y="1036" type="curve" smooth="yes"/>
			<point x="-57" y="1036"/>
			<point x="-47" y="1031"/>
			<point x="-22" y="1014" type="curve" smooth="yes"/>
			<point x="18" y="986"/>
			<point x="45" y="976"/>
			<point x="74" y="976" type="curve" smooth="yes"/>
			<point x="130" y="976"/>
			<point x="170" y="1018"/>
			<point x="180" y="1086" type="curve"/>
			<point x="100" y="1119" type="line"/>
			<point x="95" y="1080"/>
			<point x="83" y="1058"/>
			<point x="67" y="1058" type="curve" smooth="yes"/>
			<point x="57" y="1058"/>
			<point x="45" y="1064"/>
			<point x="18" y="1082" type="curve" smooth="yes"/>
			<point x="-23" y="1109"/>
			<point x="-45" y="1118"/>
			<point x="-73" y="1118" type="curve" smooth="yes"/>
			<point x="-130" y="1118"/>
			<point x="-169" y="1078"/>
			<point x="-179" y="1009" type="curve"/>
		</contour>
	</outline>
	<anchor name="_top.UC" x="0" y="750"/>
</glyph>
<glyph name="cedillacomb.cap" format="2">
	<outline>
		<contour>
			<point x="-130" y="-222" type="line"/>
			<point x="-98" y="-248"/>
			<point x="-61" y="-261"/>
			<point x="-18" y="-261" type="curve" smooth="yes"/>
			<point x="72" y="-261"/>
			<point x="126" y="-210"/>
			<point x="126" y="-145" type="curve" smooth="yes"/>
			<point x="126" y="-80"/>
			<point x="56" y="-39"/>
			<point x="-25" y="-42" type="curve"/>
			<point x="11" y="-88" type="line"/>
			<point x="36" y="10" type="line"/>
			<point x="-38" y="10" type="line"/>
			<point x="-71" y="-117" type="line"/>
			<point x="-54" y="-112"/>
			<point x="-37" y="-111"/>
			<point x="-25" y="-111" type="curve" smooth="yes"/>
			<point x="13" y="-111"/>
			<point x="33" y="-126"/>
			<point x="33" y="-148" type="curve" smooth="yes"/>
			<point x="33" y="-170"/>
			<point x="13" y="-184"/>
			<point x="-16" y="-184" type="curve" smooth="yes"/>
			<point x="-43" y="-184"/>
			<point x="-70" y="-173"/>
			<point x="-88" y="-156" type="curve"/>
		</contour>
	</outline>
	<anchor name="_bottom.UC" x="0" y="-50"/>
</glyph>
<glyph name="che.loclBGR" format="2">
	<advance width="567"/>
	<outline>
		<contour>
			<point x="364" y="-1" type="line"/>
			<point x="496" y="-1" type="line"/>
			<point x="496" y="503" type="line"/>
			<point x="364" y="503" type="line"/>
		</contour>
		<contour>
			<point x="221" y="152" type="curve" smooth="yes"/>
			<point x="329" y="152"/>
			<point x="399" y="231"/>
			<point x="400" y="348" type="curve"/>
			<point x="368" y="371" type="line"/>
			<point x="360" y="308"/>
			<point x="313" y="262"/>
			<point x="258" y="262" type="curve" smooth="yes"/>
			<point x="205" y="262"/>
			<point x="173" y="296"/>
			<point x="173" y="370" type="curve" smooth="yes"/>
			<point x="173" y="503" type="line"/>
			<point x="41" y="503" type="line"/>
			<point x="41" y="356" type="line" smooth="yes"/>
			<point x="41" y="225"/>
			<point x="109" y="152"/>
		</contour>
	</outline>
</glyph>
<glyph name="circumflexacutecomb" format="2">
	<outline>
		<contour>
			<point x="135" y="678" type="line"/>
			<point x="225" y="678" type="line"/>
			<point x="358" y="826" type="line"/>
			<point x="229" y="826" type="line"/>
		</contour>
		<contour>
			<point x="-179" y="587" type="line"/>
			<point x="-63" y="587" type="line"/>
			<point x="15" y="671" type="line"/>
			<point x="-15" y="670" type="line"/>
			<point x="64" y="587" type="line"/>
			<point x="183" y="587" type="line"/>
			<point x="68" y="737" type="line"/>
			<point x="-64" y="737" type="line"/>
		</contour>
	</outline>
	<anchor name="_top.LC" x="0" y="544"/>
</glyph>
<glyph name="circumflexcomb.cap" format="2">
	<outline>
		<contour>
			<point x="202" y="799" type="line"/>
			<point x="72" y="943" type="line"/>
			<point x="-72" y="943" type="line"/>
			<point x="-202" y="799" type="line"/>
			<point x="-76" y="799" type="line"/>
			<point x="57" y="927" type="line"/>
			<point x="-59" y="927" type="line"/>
			<point x="75" y="799" type="line"/>
		</contour>
	</outline>
	<anchor name="_top.UC" x="0" y="750"/>
	<anchor name="top.UC" x="200" y="859"/>
</glyph>
<glyph name="circumflexcomb.narrow" format="2">
	<outline>
		<contour>
			<point x="172" y="587" type="line"/>
			<point x="50" y="761" type="line"/>
			<point x="-51" y="761" type="line"/>
			<point x="-172" y="587" type="line"/>
			<point x="-67" y="587" type="line"/>
			<point x="51" y="738" type="line"/>
			<point x="-55" y="738" type="line"/>
			<point x="63" y="587" type="line"/>
		</contour>
	</outline>
	<anchor name="_top.LC" x="0" y="544"/>
</glyph>
<glyph name="circumflexgravecomb.cap" format="2">
	<outline>
		<contour>
			<point x="-187" y="799" type="line"/>
			<point x="-65" y="799" type="line"/>
			<point x="18" y="882" type="line"/>
			<point x="-18" y="882" type="line"/>
			<point x="66" y="799" type="line"/>
			<point x="189" y="799" type="line"/>
			<point x="72" y="935" type="line"/>
			<point x="-70" y="935" type="line"/>
		</contour>
		<contour>
			<point x="194" y="879" type="line"/>
			<point x="284" y="879" type="line"/>
			<point x="185" y="1027" type="line"/>
			<point x="55" y="1027" type="line"/>
		</contour>
	</outline>
	<anchor name="_top.UC" x="0" y="750"/>
</glyph>
<glyph name="circumflexgravecomb" format="2">
	<outline>
		<contour>
			<point x="-178" y="587" type="line"/>
			<point x="-62" y="587" type="line"/>
			<point x="16" y="671" type="line"/>
			<point x="-14" y="670" type="line"/>
			<point x="64" y="587" type="line"/>
			<point x="183" y="587" type="line"/>
			<point x="69" y="737" type="line"/>
			<point x="-64" y="737" type="line"/>
		</contour>
		<contour>
			<point x="178" y="678" type="line"/>
			<point x="269" y="678" type="line"/>
			<point x="175" y="826" type="line"/>
			<point x="44" y="826" type="line"/>
		</contour>
	</outline>
	<anchor name="_top.LC" x="0" y="544"/>
</glyph>
<glyph name="circumflexhookabovecomb.cap" format="2">
	<outline>
		<contour>
			<point x="-187" y="799" type="line"/>
			<point x="-65" y="799" type="line"/>
			<point x="18" y="882" type="line"/>
			<point x="-18" y="882" type="line"/>
			<point x="66" y="799" type="line"/>
			<point x="189" y="799" type="line"/>
			<point x="72" y="935" type="line"/>
			<point x="-70" y="935" type="line"/>
		</contour>
		<contour>
			<point x="176" y="862" type="line"/>
			<point x="248" y="891"/>
			<point x="287" y="935"/>
			<point x="287" y="985" type="curve" smooth="yes"/>
			<point x="287" y="1039"/>
			<point x="243" y="1079"/>
			<point x="181" y="1079" type="curve" smooth="yes"/>
			<point x="144" y="1079"/>
			<point x="111" y="1064"/>
			<point x="82" y="1035" type="curve"/>
			<point x="121" y="983" type="line"/>
			<point x="139" y="997"/>
			<point x="154" y="1005"/>
			<point x="170" y="1005" type="curve" smooth="yes"/>
			<point x="190" y="1005"/>
			<point x="201" y="994"/>
			<point x="201" y="975" type="curve" smooth="yes"/>
			<point x="201" y="953"/>
			<point x="184" y="936"/>
			<point x="147" y="917" type="curve"/>
		</contour>
	</outline>
	<anchor name="_top.UC" x="0" y="750"/>
</glyph>
<glyph name="circumflexhookabovecomb" format="2">
	<outline>
		<contour>
			<point x="-179" y="587" type="line"/>
			<point x="-63" y="587" type="line"/>
			<point x="15" y="671" type="line"/>
			<point x="-15" y="670" type="line"/>
			<point x="64" y="587" type="line"/>
			<point x="183" y="587" type="line"/>
			<point x="68" y="737" type="line"/>
			<point x="-64" y="737" type="line"/>
		</contour>
		<contour>
			<point x="170" y="659" type="line"/>
			<point x="243" y="687"/>
			<point x="282" y="731"/>
			<point x="282" y="782" type="curve" smooth="yes"/>
			<point x="282" y="836"/>
			<point x="237" y="876"/>
			<point x="174" y="876" type="curve" smooth="yes"/>
			<point x="137" y="876"/>
			<point x="102" y="862"/>
			<point x="74" y="832" type="curve"/>
			<point x="114" y="779" type="line"/>
			<point x="132" y="794"/>
			<point x="147" y="802"/>
			<point x="164" y="802" type="curve" smooth="yes"/>
			<point x="183" y="802"/>
			<point x="196" y="790"/>
			<point x="196" y="772" type="curve" smooth="yes"/>
			<point x="196" y="751"/>
			<point x="179" y="733"/>
			<point x="141" y="714" type="curve"/>
		</contour>
	</outline>
	<anchor name="_top.LC" x="0" y="544"/>
</glyph>
<glyph name="circumflextildecomb" format="2">
	<outline>
		<contour>
			<point x="-179" y="587" type="line"/>
			<point x="-63" y="587" type="line"/>
			<point x="15" y="671" type="line"/>
			<point x="-15" y="670" type="line"/>
			<point x="64" y="587" type="line"/>
			<point x="183" y="587" type="line"/>
			<point x="68" y="737" type="line"/>
			<point x="-64" y="737" type="line"/>
		</contour>
		<contour>
			<point x="-90" y="771" type="line"/>
			<point x="-84" y="809"/>
			<point x="-73" y="827"/>
			<point x="-58" y="827" type="curve" smooth="yes"/>
			<point x="-48" y="827"/>
			<point x="-29" y="818"/>
			<point x="-3" y="800" type="curve" smooth="yes"/>
			<point x="27" y="780"/>
			<point x="44" y="773"/>
			<point x="67" y="773" type="curve" smooth="yes"/>
			<point x="119" y="773"/>
			<point x="158" y="813"/>
			<point x="171" y="879" type="curve"/>
			<point x="94" y="913" type="line"/>
			<point x="88" y="876"/>
			<point x="77" y="857"/>
			<point x="60" y="857" type="curve" smooth="yes"/>
			<point x="54" y="857"/>
			<point x="49" y="859"/>
			<point x="28" y="872" type="curve" smooth="yes"/>
			<point x="-25" y="905"/>
			<point x="-38" y="911"/>
			<point x="-60" y="911" type="curve" smooth="yes"/>
			<point x="-115" y="911"/>
			<point x="-155" y="870"/>
			<point x="-166" y="804" type="curve"/>
		</contour>
	</outline>
	<anchor name="_top.LC" x="0" y="544"/>
</glyph>
<glyph name="dieresiscomb.cap" format="2">
	<outline>
		<contour>
			<point x="112" y="790" type="curve" smooth="yes"/>
			<point x="156" y="790"/>
			<point x="190" y="823"/>
			<point x="190" y="865" type="curve" smooth="yes"/>
			<point x="190" y="908"/>
			<point x="156" y="941"/>
			<point x="112" y="941" type="curve" smooth="yes"/>
			<point x="68" y="941"/>
			<point x="34" y="908"/>
			<point x="34" y="865" type="curve" smooth="yes"/>
			<point x="34" y="823"/>
			<point x="68" y="790"/>
		</contour>
		<contour>
			<point x="-112" y="790" type="curve" smooth="yes"/>
			<point x="-68" y="790"/>
			<point x="-34" y="823"/>
			<point x="-34" y="865" type="curve" smooth="yes"/>
			<point x="-34" y="908"/>
			<point x="-68" y="941"/>
			<point x="-112" y="941" type="curve" smooth="yes"/>
			<point x="-157" y="941"/>
			<point x="-190" y="908"/>
			<point x="-190" y="865" type="curve" smooth="yes"/>
			<point x="-190" y="823"/>
			<point x="-157" y="790"/>
		</contour>
	</outline>
	<anchor name="_top.UC" x="0" y="750"/>
</glyph>
<glyph name="dieresiscomb.narrow" format="2">
	<outline>
		<contour>
			<point x="86" y="598" type="curve" smooth="yes"/>
			<point x="126" y="598"/>
			<point x="158" y="628"/>
			<point x="158" y="667" type="curve" smooth="yes"/>
			<point x="158" y="707"/>
			<point x="126" y="737"/>
			<point x="86" y="737" type="curve" smooth="yes"/>
			<point x="45" y="737"/>
			<point x="14" y="707"/>
			<point x="14" y="667" type="curve" smooth="yes"/>
			<point x="14" y="628"/>
			<point x="45" y="598"/>
		</contour>
		<contour>
			<point x="-86" y="598" type="curve" smooth="yes"/>
			<point x="-45" y="598"/>
			<point x="-14" y="628"/>
			<point x="-14" y="667" type="curve" smooth="yes"/>
			<point x="-14" y="707"/>
			<point x="-45" y="737"/>
			<point x="-86" y="737" type="curve" smooth="yes"/>
			<point x="-126" y="737"/>
			<point x="-158" y="707"/>
			<point x="-158" y="667" type="curve" smooth="yes"/>
			<point x="-158" y="628"/>
			<point x="-126" y="598"/>
		</contour>
	</outline>
	<anchor name="_top.LC" x="0" y="544"/>
</glyph>
<glyph name="eight.dnom" format="2">
	<advance width="394"/>
	<outline>
		<contour>
			<point x="196" y="-9" type="curve" smooth="yes"/>
			<point x="294" y="-9"/>
			<point x="361" y="42"/>
			<point x="361" y="113" type="curve" smooth="yes"/>
			<point x="361" y="184"/>
			<point x="292" y="232"/>
			<point x="196" y="232" type="curve" smooth="yes"/>
			<point x="101" y="232"/>
			<point x="33" y="184"/>
			<point x="33" y="113" type="curve" smooth="yes"/>
			<point x="33" y="43"/>
			<point x="98" y="-9"/>
		</contour>
		<contour>
			<point x="196" y="201" type="curve" smooth="yes"/>
			<point x="282" y="201"/>
			<point x="344" y="245"/>
			<point x="344" y="307" type="curve" smooth="yes"/>
			<point x="344" y="369"/>
			<point x="283" y="417"/>
			<point x="196" y="417" type="curve" smooth="yes"/>
			<point x="109" y="417"/>
			<point x="49" y="369"/>
			<point x="49" y="307" type="curve" smooth="yes"/>
			<point x="49" y="245"/>
			<point x="111" y="201"/>
		</contour>
		<contour>
			<point x="196" y="70" type="curve" smooth="yes"/>
			<point x="160" y="70"/>
			<point x="134" y="91"/>
			<point x="134" y="122" type="curve" smooth="yes"/>
			<point x="134" y="154"/>
			<point x="159" y="176"/>
			<point x="196" y="176" type="curve" smooth="yes"/>
			<point x="235" y="176"/>
			<point x="259" y="154"/>
			<point x="259" y="123" type="curve" smooth="yes"/>
			<point x="259" y="91"/>
			<point x="234" y="70"/>
		</contour>
		<contour>
			<point x="196" y="246" type="curve" smooth="yes"/>
			<point x="168" y="246"/>
			<point x="148" y="266"/>
			<point x="148" y="293" type="curve" smooth="yes"/>
			<point x="148" y="320"/>
			<point x="166" y="339"/>
			<point x="196" y="339" type="curve" smooth="yes"/>
			<point x="226" y="339"/>
			<point x="245" y="321"/>
			<point x="245" y="294" type="curve" smooth="yes"/>
			<point x="245" y="266"/>
			<point x="225" y="246"/>
		</contour>
	</outline>
</glyph>
<glyph name="hard.loclBGR" format="2">
	<advance width="591"/>
	<outline>
		<contour>
			<point x="363" y="-16" type="curve" smooth="yes"/>
			<point x="490" y="-16"/>
			<point x="576" y="65"/>
			<point x="576" y="183" type="curve" smooth="yes"/>
			<point x="576" y="290"/>
			<point x="498" y="369"/>
			<point x="390" y="369" type="curve" smooth="yes"/>
			<point x="320" y="369"/>
			<point x="263" y="332"/>
			<point x="242" y="276" type="curve"/>
			<point x="272" y="265" type="line"/>
			<point x="272" y="503" type="line"/>
			<point x="29" y="503" type="line"/>
			<point x="29" y="397" type="line"/>
			<point x="165" y="397" type="line"/>
			<point x="142" y="420" type="line"/>
			<point x="142" y="195" type="line" smooth="yes"/>
			<point x="142" y="62"/>
			<point x="223" y="-16"/>
		</contour>
		<contour>
			<point x="357" y="90" type="curve" smooth="yes"/>
			<point x="307" y="90"/>
			<point x="272" y="126"/>
			<point x="272" y="177" type="curve" smooth="yes"/>
			<point x="272" y="228"/>
			<point x="307" y="263"/>
			<point x="357" y="263" type="curve" smooth="yes"/>
			<point x="407" y="263"/>
			<point x="444" y="228"/>
			<point x="444" y="177" type="curve" smooth="yes"/>
			<point x="444" y="125"/>
			<point x="408" y="90"/>
		</contour>
	</outline>
</glyph>
<glyph name="hookabovecomb.cap" format="2">
	<outline>
		<contour>
			<point x="-5" y="764" type="line"/>
			<point x="69" y="794"/>
			<point x="112" y="842"/>
			<point x="112" y="897" type="curve" smooth="yes"/>
			<point x="112" y="953"/>
			<point x="68" y="994"/>
			<point x="1" y="994" type="curve" smooth="yes"/>
			<point x="-40" y="994"/>
			<point x="-75" y="979"/>
			<point x="-105" y="948" type="curve"/>
			<point x="-64" y="893" type="line"/>
			<point x="-44" y="909"/>
			<point x="-28" y="916"/>
			<point x="-12" y="916" type="curve" smooth="yes"/>
			<point x="9" y="916"/>
			<point x="21" y="904"/>
			<point x="21" y="885" type="curve" smooth="yes"/>
			<point x="21" y="862"/>
			<point x="4" y="843"/>
			<point x="-36" y="823" type="curve"/>
		</contour>
	</outline>
	<anchor name="_top.UC" x="0" y="750"/>
</glyph>
<glyph name="horncomb.cap" format="2">
	<outline>
		<contour>
			<point x="-1" y="628" type="line"/>
			<point x="88" y="628" type="line" smooth="yes"/>
			<point x="228" y="628"/>
			<point x="298" y="689"/>
			<point x="298" y="815" type="curve" smooth="yes"/>
			<point x="298" y="864" type="line"/>
			<point x="183" y="864" type="line"/>
			<point x="183" y="807" type="line" smooth="yes"/>
			<point x="183" y="742"/>
			<point x="156" y="715"/>
			<point x="92" y="715" type="curve" smooth="yes"/>
			<point x="-1" y="715" type="line"/>
		</contour>
	</outline>
	<anchor name="_topright.UC" x="0" y="750"/>
</glyph>
<glyph name="macroncomb.narrow" format="2">
	<outline>
		<contour>
			<point x="134" y="603" type="line"/>
			<point x="134" y="695" type="line"/>
			<point x="-134" y="695" type="line"/>
			<point x="-134" y="603" type="line"/>
		</contour>
	</outline>
	<anchor name="_top.LC" x="0" y="544"/>
</glyph>
<glyph name="nine.dnom" format="2">
	<advance width="389"/>
	<outline>
		<contour>
			<point x="195" y="417" type="curve"/>
			<point x="100" y="417"/>
			<point x="31" y="356"/>
			<point x="31" y="272" type="curve" smooth="yes"/>
			<point x="31" y="193"/>
			<point x="90" y="135"/>
			<point x="169" y="135" type="curve" smooth="yes"/>
			<point x="206" y="135"/>
			<point x="232" y="151"/>
			<point x="251" y="185" type="curve"/>
			<point x="243" y="188" type="line"/>
			<point x="220" y="136"/>
			<point x="170" y="83"/>
			<point x="67" y="0" type="curve"/>
			<point x="194" y="0" type="line"/>
			<point x="307" y="98"/>
			<point x="356" y="177"/>
			<point x="356" y="261" type="curve" smooth="yes"/>
			<point x="356" y="353"/>
			<point x="289" y="417"/>
		</contour>
		<contour>
			<point x="194" y="338" type="curve"/>
			<point x="232" y="338"/>
			<point x="260" y="310"/>
			<point x="260" y="274" type="curve" smooth="yes"/>
			<point x="260" y="237"/>
			<point x="232" y="210"/>
			<point x="194" y="210" type="curve" smooth="yes"/>
			<point x="155" y="210"/>
			<point x="128" y="237"/>
			<point x="128" y="274" type="curve" smooth="yes"/>
			<point x="128" y="311"/>
			<point x="155" y="338"/>
		</contour>
	</outline>
</glyph>
<glyph name="ogonekcomb.cap" format="2">
	<outline>
		<contour>
			<point x="126" y="-158" type="line"/>
			<point x="115" y="-161"/>
			<point x="104" y="-162"/>
			<point x="97" y="-162" type="curve" smooth="yes"/>
			<point x="65" y="-162"/>
			<point x="38" y="-142"/>
			<point x="38" y="-104" type="curve" smooth="yes"/>
			<point x="38" y="-63"/>
			<point x="65" y="-22"/>
			<point x="126" y="0" type="curve"/>
			<point x="40" y="22" type="line"/>
			<point x="-32" y="-20"/>
			<point x="-66" y="-74"/>
			<point x="-66" y="-130" type="curve" smooth="yes"/>
			<point x="-66" y="-210"/>
			<point x="-4" y="-252"/>
			<point x="82" y="-252" type="curve" smooth="yes"/>
			<point x="97" y="-252"/>
			<point x="111" y="-251"/>
			<point x="126" y="-248" type="curve"/>
		</contour>
	</outline>
	<anchor name="_ogonek.UC" x="0" y="-30"/>
</glyph>
<glyph name="ringcomb.cap" format="2">
	<outline>
		<contour>
			<point x="0" y="742" type="curve" smooth="yes"/>
			<point x="69" y="742"/>
			<point x="124" y="796"/>
			<point x="124" y="865" type="curve" smooth="yes"/>
			<point x="124" y="935"/>
			<point x="69" y="989"/>
			<point x="0" y="989" type="curve" smooth="yes"/>
			<point x="-69" y="989"/>
			<point x="-124" y="935"/>
			<point x="-124" y="865" type="curve" smooth="yes"/>
			<point x="-124" y="796"/>
			<point x="-69" y="742"/>
		</contour>
		<contour>
			<point x="0" y="811" type="curve" smooth="yes"/>
			<point x="-28" y="811"/>
			<point x="-50" y="834"/>
			<point x="-50" y="865" type="curve" smooth="yes"/>
			<point x="-50" y="897"/>
			<point x="-28" y="920"/>
			<point x="0" y="920" type="curve" smooth="yes"/>
			<point x="28" y="920"/>
			<point x="49" y="897"/>
			<point x="49" y="865" type="curve" smooth="yes"/>
			<point x="49" y="834"/>
			<point x="28" y="811"/>
		</contour>
	</outline>
	<anchor name="_top.UC" x="0" y="750"/>
</glyph>
<glyph name="shcha.loclBGR" format="2">
	<advance width="930"/>
	<outline>
		<contour>
			<point x="248" y="-16" type="curve" smooth="yes"/>
			<point x="353" y="-16"/>
			<point x="416" y="55"/>
			<point x="433" y="191" type="curve"/>
			<point x="384" y="208" type="line"/>
			<point x="377" y="141"/>
			<point x="332" y="94"/>
			<point x="276" y="94" type="curve" smooth="yes"/>
			<point x="225" y="94"/>
			<point x="196" y="133"/>
			<point x="196" y="203" type="curve" smooth="yes"/>
			<point x="196" y="503" type="line"/>
			<point x="64" y="503" type="line"/>
			<point x="64" y="189" type="line" smooth="yes"/>
			<point x="64" y="59"/>
			<point x="131" y="-16"/>
		</contour>
		<contour>
			<point x="552" y="-16" type="curve" smooth="yes"/>
			<point x="659" y="-16"/>
			<point x="727" y="62"/>
			<point x="727" y="184" type="curve"/>
			<point x="699" y="211" type="line"/>
			<point x="691" y="143"/>
			<point x="646" y="94"/>
			<point x="590" y="94" type="curve" smooth="yes"/>
			<point x="540" y="94"/>
			<point x="511" y="134"/>
			<point x="511" y="203" type="curve" smooth="yes"/>
			<point x="511" y="503" type="line"/>
			<point x="379" y="503" type="line"/>
			<point x="379" y="189" type="line" smooth="yes"/>
			<point x="379" y="59"/>
			<point x="443" y="-16"/>
		</contour>
		<contour>
			<point x="776" y="-138" type="line"/>
			<point x="900" y="-138" type="line"/>
			<point x="900" y="108" type="line"/>
			<point x="871" y="108" type="line" smooth="yes"/>
			<point x="837" y="108"/>
			<point x="824" y="124"/>
			<point x="824" y="163" type="curve" smooth="yes"/>
			<point x="824" y="503" type="line"/>
			<point x="692" y="503" type="line"/>
			<point x="692" y="138" type="line"/>
			<point x="694" y="114" type="line" smooth="yes"/>
			<point x="699" y="44"/>
			<point x="745" y="0"/>
			<point x="810" y="0" type="curve"/>
			<point x="776" y="48" type="line"/>
		</contour>
	</outline>
</glyph>
<glyph name="soft.loclBGR" format="2">
	<advance width="514"/>
	<outline>
		<contour>
			<point x="285" y="-16" type="curve" smooth="yes"/>
			<point x="411" y="-16"/>
			<point x="499" y="65"/>
			<point x="499" y="183" type="curve" smooth="yes"/>
			<point x="499" y="290"/>
			<point x="420" y="369"/>
			<point x="312" y="369" type="curve" smooth="yes"/>
			<point x="241" y="369"/>
			<point x="181" y="329"/>
			<point x="162" y="271" type="curve"/>
			<point x="194" y="256" type="line"/>
			<point x="194" y="503" type="line"/>
			<point x="64" y="503" type="line"/>
			<point x="64" y="195" type="line" smooth="yes"/>
			<point x="64" y="62"/>
			<point x="145" y="-16"/>
		</contour>
		<contour>
			<point x="279" y="90" type="curve" smooth="yes"/>
			<point x="229" y="90"/>
			<point x="194" y="126"/>
			<point x="194" y="177" type="curve" smooth="yes"/>
			<point x="194" y="228"/>
			<point x="229" y="263"/>
			<point x="279" y="263" type="curve" smooth="yes"/>
			<point x="329" y="263"/>
			<point x="366" y="228"/>
			<point x="366" y="177" type="curve" smooth="yes"/>
			<point x="366" y="125"/>
			<point x="330" y="90"/>
		</contour>
	</outline>
</glyph>
<glyph name="three.dnom" format="2">
	<advance width="382"/>
	<outline>
		<contour>
			<point x="20" y="64" type="line"/>
			<point x="59" y="18"/>
			<point x="118" y="-9"/>
			<point x="184" y="-9" type="curve" smooth="yes"/>
			<point x="282" y="-9"/>
			<point x="346" y="46"/>
			<point x="346" y="116" type="curve" smooth="yes"/>
			<point x="346" y="182"/>
			<point x="292" y="227"/>
			<point x="203" y="227" type="curve"/>
			<point x="195" y="203" type="line"/>
			<point x="278" y="203"/>
			<point x="334" y="244"/>
			<point x="334" y="304" type="curve" smooth="yes"/>
			<point x="334" y="366"/>
			<point x="274" y="417"/>
			<point x="189" y="417" type="curve" smooth="yes"/>
			<point x="128" y="417"/>
			<point x="71" y="390"/>
			<point x="31" y="343" type="curve"/>
			<point x="86" y="283" type="line"/>
			<point x="113" y="320"/>
			<point x="146" y="338"/>
			<point x="177" y="338" type="curve" smooth="yes"/>
			<point x="214" y="338"/>
			<point x="235" y="319"/>
			<point x="235" y="294" type="curve" smooth="yes"/>
			<point x="235" y="267"/>
			<point x="212" y="249"/>
			<point x="172" y="249" type="curve" smooth="yes"/>
			<point x="134" y="249" type="line"/>
			<point x="134" y="173" type="line"/>
			<point x="172" y="173" type="line" smooth="yes"/>
			<point x="219" y="173"/>
			<point x="246" y="153"/>
			<point x="246" y="122" type="curve" smooth="yes"/>
			<point x="246" y="91"/>
			<point x="219" y="70"/>
			<point x="178" y="70" type="curve" smooth="yes"/>
			<point x="141" y="70"/>
			<point x="107" y="87"/>
			<point x="74" y="124" type="curve"/>
		</contour>
	</outline>
</glyph>
<glyph name="tildecomb.cap" format="2">
	<outline>
		<contour>
			<point x="110" y="930" type="line"/>
			<point x="104" y="883"/>
			<point x="89" y="868"/>
			<point x="72" y="868" type="curve" smooth="yes"/>
			<point x="60" y="868"/>
			<point x="47" y="877"/>
			<point x="28" y="891" type="curve" smooth="yes"/>
			<point x="3" y="909"/>
			<point x="-31" y="931"/>
			<point x="-71" y="931" type="curve" smooth="yes"/>
			<point x="-132" y="931"/>
			<point x="-183" y="894"/>
			<point x="-196" y="812" type="curve"/>
			<point x="-110" y="780" type="line"/>
			<point x="-104" y="827"/>
			<point x="-89" y="842"/>
			<point x="-73" y="842" type="curve" smooth="yes"/>
			<point x="-60" y="842"/>
			<point x="-47" y="833"/>
			<point x="-28" y="819" type="curve" smooth="yes"/>
			<point x="-3" y="801"/>
			<point x="31" y="779"/>
			<point x="71" y="779" type="curve" smooth="yes"/>
			<point x="132" y="779"/>
			<point x="183" y="816"/>
			<point x="195" y="898" type="curve"/>
		</contour>
	</outline>
	<anchor name="_top.UC" x="0" y="750"/>
</glyph>
<glyph name="tse.loclBGR" format="2">
	<advance width="632"/>
	<outline>
		<contour>
			<point x="479" y="-138" type="line"/>
			<point x="603" y="-138" type="line"/>
			<point x="603" y="108" type="line"/>
			<point x="573" y="108" type="line" smooth="yes"/>
			<point x="540" y="108"/>
			<point x="527" y="124"/>
			<point x="527" y="163" type="curve" smooth="yes"/>
			<point x="527" y="503" type="line"/>
			<point x="395" y="503" type="line"/>
			<point x="395" y="138" type="line"/>
			<point x="397" y="114" type="line" smooth="yes"/>
			<point x="401" y="44"/>
			<point x="447" y="0"/>
			<point x="512" y="0" type="curve"/>
			<point x="479" y="48" type="line"/>
		</contour>
		<contour>
			<point x="401" y="210" type="line"/>
			<point x="393" y="142"/>
			<point x="343" y="94"/>
			<point x="285" y="94" type="curve" smooth="yes"/>
			<point x="230" y="94"/>
			<point x="196" y="132"/>
			<point x="196" y="203" type="curve" smooth="yes"/>
			<point x="196" y="503" type="line"/>
			<point x="64" y="503" type="line"/>
			<point x="64" y="189" type="line" smooth="yes"/>
			<point x="64" y="56"/>
			<point x="135" y="-16"/>
			<point x="245" y="-16" type="curve" smooth="yes"/>
			<point x="357" y="-16"/>
			<point x="430" y="68"/>
			<point x="428" y="192" type="curve"/>
		</contour>
	</outline>
</glyph>
<glyph name="two.dnom" format="2">
	<advance width="375"/>
	<outline>
		<contour>
			<point x="333" y="0" type="line"/>
			<point x="333" y="76" type="line"/>
			<point x="155" y="76" type="line"/>
			<point x="159" y="64" type="line"/>
			<point x="230" y="128" type="line" smooth="yes"/>
			<point x="304" y="194"/>
			<point x="329" y="237"/>
			<point x="329" y="288" type="curve" smooth="yes"/>
			<point x="329" y="362"/>
			<point x="267" y="417"/>
			<point x="180" y="417" type="curve" smooth="yes"/>
			<point x="116" y="417"/>
			<point x="64" y="388"/>
			<point x="24" y="335" type="curve"/>
			<point x="85" y="274" type="line"/>
			<point x="115" y="321"/>
			<point x="144" y="337"/>
			<point x="176" y="337" type="curve" smooth="yes"/>
			<point x="206" y="337"/>
			<point x="228" y="317"/>
			<point x="228" y="284" type="curve" smooth="yes"/>
			<point x="228" y="260"/>
			<point x="218" y="239"/>
			<point x="184" y="207" type="curve" smooth="yes"/>
			<point x="35" y="71" type="line"/>
			<point x="35" y="0" type="line"/>
		</contour>
	</outline>
</glyph>
<glyph name="ze.loclBGR" format="2">
	<advance width="531"/>
	<outline>
		<contour>
			<point x="233" y="-211" type="curve" smooth="yes"/>
			<point x="386" y="-211"/>
			<point x="490" y="-125"/>
			<point x="490" y="2" type="curve" smooth="yes"/>
			<point x="490" y="95"/>
			<point x="430" y="166"/>
			<point x="344" y="178" type="curve"/>
			<point x="344" y="166" type="line"/>
			<point x="425" y="177"/>
			<point x="479" y="242"/>
			<point x="479" y="328" type="curve" smooth="yes"/>
			<point x="479" y="441"/>
			<point x="384" y="519"/>
			<point x="247" y="519" type="curve" smooth="yes"/>
			<point x="153" y="519"/>
			<point x="82" y="489"/>
			<point x="25" y="425" type="curve"/>
			<point x="97" y="339" type="line"/>
			<point x="132" y="386"/>
			<point x="177" y="408"/>
			<point x="234" y="408" type="curve" smooth="yes"/>
			<point x="305" y="408"/>
			<point x="351" y="372"/>
			<point x="351" y="315" type="curve" smooth="yes"/>
			<point x="351" y="259"/>
			<point x="311" y="220"/>
			<point x="251" y="220" type="curve" smooth="yes"/>
			<point x="147" y="220" type="line"/>
			<point x="147" y="114" type="line"/>
			<point x="252" y="114" type="line" smooth="yes"/>
			<point x="321" y="114"/>
			<point x="360" y="76"/>
			<point x="360" y="9" type="curve" smooth="yes"/>
			<point x="360" y="-62"/>
			<point x="316" y="-101"/>
			<point x="232" y="-101" type="curve" smooth="yes"/>
			<point x="172" y="-101"/>
			<point x="124" y="-76"/>
			<point x="86" y="-25" type="curve"/>
			<point x="12" y="-110" type="line"/>
			<point x="68" y="-176"/>
			<point x="144" y="-211"/>
		</contour>
	</outline>
</glyph>
<glyph name="zhe.loclBGR" format="2">
	<advance width="798"/>
	<outline>
		<contour>
			<point x="9" y="0" type="line"/>
			<point x="163" y="0" type="line"/>
			<point x="362" y="261" type="line"/>
			<point x="352" y="261" type="line"/>
			<point x="166" y="503" type="line"/>
			<point x="18" y="503" type="line"/>
			<point x="227" y="237" type="line"/>
			<point x="228" y="275" type="line"/>
		</contour>
		<contour>
			<point x="334" y="0" type="line"/>
			<point x="462" y="0" type="line"/>
			<point x="462" y="720" type="line"/>
			<point x="334" y="720" type="line"/>
		</contour>
		<contour>
			<point x="635" y="0" type="line"/>
			<point x="790" y="0" type="line"/>
			<point x="570" y="275" type="line"/>
			<point x="569" y="237" type="line"/>
			<point x="779" y="503" type="line"/>
			<point x="631" y="503" type="line"/>
			<point x="445" y="261" type="line"/>
			<point x="435" y="261" type="line"/>
		</contour>
	</outline>
</glyph>
